Lexend-LooseExpandedMedium.ufo
<glyph name="exclam" format="2">
  <advance width="548"/>
  <unicode hex="0021"/>
  <outline>
    <contour>
      <point x="245" y="241" type="curve"/>
      <point x="305" y="241" type="line"/>
      <point x="336" y="350"/>
      <point x="359" y="501"/>
      <point x="359" y="630" type="curve" smooth="yes"/>
      <point x="359" y="700" type="line"/>
      <point x="191" y="700" type="line"/>
      <point x="191" y="630" type="line" smooth="yes"/>
      <point x="191" y="501"/>
      <point x="216" y="350"/>
    </contour>
    <contour>
      <point x="274" y="-11" type="curve" smooth="yes"/>
      <point x="345" y="-11"/>
      <point x="378" y="27"/>
      <point x="378" y="64" type="curve" smooth="yes"/>
      <point x="378" y="109"/>
      <point x="345" y="139"/>
      <point x="274" y="139" type="curve" smooth="yes"/>
      <point x="203" y="139"/>
      <point x="170" y="101"/>
      <point x="170" y="64" type="curve" smooth="yes"/>
      <point x="170" y="19"/>
      <point x="203" y="-11"/>
    </contour>
  </outline>
</glyph>
<glyph name="quotedbl" format="2">
  <advance width="618"/>
  <unicode hex="0022"/>
  <outline>
    <contour>
      <point x="110" y="422" type="line"/>
      <point x="190" y="422" type="line"/>
      <point x="271" y="700" type="line"/>
      <point x="123" y="700" type="line"/>
    </contour>
    <contour>
      <point x="348" y="422" type="line"/>
      <point x="428" y="422" type="line"/>
      <point x="508" y="700" type="line"/>
      <point x="362" y="700" type="line"/>
    </contour>
  </outline>
</glyph>
<glyph name="dollar" format="2">
  <advance width="935"/>
  <unicode hex="0024"/>
  <outline>
    <contour>
      <point x="478" y="-10" type="curve" smooth="yes"/>
      <point x="677" y="-10"/>
      <point x="807" y="80"/>
      <point x="807" y="216" type="curve" smooth="yes"/>
      <point x="807" y="356"/>
      <point x="655" y="384"/>
      <point x="495" y="403" type="curve" smooth="yes"/>
      <point x="367" y="419"/>
      <point x="281" y="442"/>
      <point x="281" y="515" type="curve" smooth="yes"/>
      <point x="281" y="576"/>
      <point x="363" y="613"/>
      <point x="471" y="613" type="curve" smooth="yes"/>
      <point x="576" y="613"/>
      <point x="657" y="569"/>
      <point x="709" y="508" type="curve"/>
      <point x="781" y="587" type="line"/>
      <point x="721" y="666"/>
      <point x="615" y="710"/>
      <point x="474" y="710" type="curve" smooth="yes"/>
      <point x="299" y="710"/>
      <point x="163" y="634"/>
      <point x="163" y="503" type="curve" smooth="yes"/>
      <point x="163" y="379"/>
      <point x="278" y="322"/>
      <point x="457" y="299" type="curve" smooth="yes"/>
      <point x="525" y="291"/>
      <point x="689" y="284"/>
      <point x="689" y="202" type="curve" smooth="yes"/>
      <point x="689" y="123"/>
      <point x="582" y="87"/>
      <point x="479" y="87" type="curve" smooth="yes"/>
      <point x="358" y="87"/>
      <point x="275" y="135"/>
      <point x="196" y="216" type="curve"/>
      <point x="128" y="126" type="line"/>
      <point x="216" y="30"/>
      <point x="334" y="-10"/>
    </contour>
    <contour>
      <point x="396" y="-91" type="line"/>
      <point x="503" y="-91" type="line"/>
      <point x="503" y="330" type="line"/>
      <point x="396" y="363" type="line"/>
    </contour>
    <contour>
      <point x="543" y="330" type="line"/>
      <point x="543" y="782" type="line"/>
      <point x="436" y="782" type="line"/>
      <point x="436" y="363" type="line"/>
    </contour>
  </outline>
</glyph>
<glyph name="percent" format="2">
  <advance width="1159"/>
  <unicode hex="0025"/>
  <outline>
    <contour>
      <point x="269" y="0" type="line"/>
      <point x="370" y="0" type="line"/>
      <point x="859" y="700" type="line"/>
      <point x="751" y="700" type="line"/>
    </contour>
    <contour>
      <point x="273" y="269" type="curve" smooth="yes"/>
      <point x="381" y="269"/>
      <point x="457" y="368"/>
      <point x="457" y="488" type="curve" smooth="yes"/>
      <point x="457" y="611"/>
      <point x="386" y="709"/>
      <point x="274" y="709" type="curve" smooth="yes"/>
      <point x="161" y="709"/>
      <point x="90" y="611"/>
      <point x="90" y="488" type="curve" smooth="yes"/>
      <point x="90" y="367"/>
      <point x="161" y="269"/>
    </contour>
    <contour>
      <point x="274" y="359" type="curve" smooth="yes"/>
      <point x="222" y="359"/>
      <point x="193" y="413"/>
      <point x="193" y="488" type="curve" smooth="yes"/>
      <point x="193" y="560"/>
      <point x="220" y="618"/>
      <point x="273" y="618" type="curve" smooth="yes"/>
      <point x="326" y="618"/>
      <point x="353" y="563"/>
      <point x="353" y="488" type="curve" smooth="yes"/>
      <point x="353" y="416"/>
      <point x="327" y="359"/>
    </contour>
    <contour>
      <point x="875" y="-16" type="curve" smooth="yes"/>
      <point x="983" y="-16"/>
      <point x="1059" y="83"/>
      <point x="1059" y="203" type="curve" smooth="yes"/>
      <point x="1059" y="326"/>
      <point x="988" y="424"/>
      <point x="876" y="424" type="curve" smooth="yes"/>
      <point x="763" y="424"/>
      <point x="692" y="326"/>
      <point x="692" y="203" type="curve" smooth="yes"/>
      <point x="692" y="82"/>
      <point x="763" y="-16"/>
    </contour>
    <contour>
      <point x="876" y="74" type="curve" smooth="yes"/>
      <point x="824" y="74"/>
      <point x="795" y="128"/>
      <point x="795" y="203" type="curve" smooth="yes"/>
      <point x="795" y="275"/>
      <point x="822" y="333"/>
      <point x="875" y="333" type="curve" smooth="yes"/>
      <point x="928" y="333"/>
      <point x="955" y="278"/>
      <point x="955" y="203" type="curve" smooth="yes"/>
      <point x="955" y="131"/>
      <point x="929" y="74"/>
    </contour>
  </outline>
</glyph>
<glyph name="ampersand" format="2">
  <advance width="1022"/>
  <unicode hex="0026"/>
  <outline>
    <contour>
      <point x="752" y="0" type="line"/>
      <point x="897" y="0" type="line"/>
      <point x="759" y="156" type="line"/>
      <point x="740" y="183" type="line"/>
      <point x="480" y="421" type="line" smooth="yes"/>
      <point x="440" y="457"/>
      <point x="383" y="503"/>
      <point x="383" y="547" type="curve" smooth="yes"/>
      <point x="383" y="595"/>
      <point x="440" y="614"/>
      <point x="500" y="614" type="curve" smooth="yes"/>
      <point x="571" y="614"/>
      <point x="655" y="581"/>
      <point x="706" y="501" type="curve"/>
      <point x="779" y="571" type="line"/>
      <point x="730" y="650"/>
      <point x="637" y="714"/>
      <point x="496" y="714" type="curve" smooth="yes"/>
      <point x="341" y="714"/>
      <point x="252" y="618"/>
      <point x="252" y="539" type="curve" smooth="yes"/>
      <point x="252" y="448"/>
      <point x="377" y="359"/>
      <point x="442" y="300" type="curve" smooth="yes"/>
      <point x="645" y="116" type="line"/>
      <point x="675" y="88" type="line"/>
    </contour>
    <contour>
      <point x="451" y="-16" type="curve" smooth="yes"/>
      <point x="614" y="-16"/>
      <point x="832" y="89"/>
      <point x="832" y="329" type="curve"/>
      <point x="720" y="329" type="line"/>
      <point x="720" y="149"/>
      <point x="562" y="95"/>
      <point x="458" y="95" type="curve" smooth="yes"/>
      <point x="315" y="95"/>
      <point x="264" y="158"/>
      <point x="264" y="223" type="curve" smooth="yes"/>
      <point x="264" y="280"/>
      <point x="296" y="330"/>
      <point x="400" y="357" type="curve"/>
      <point x="331" y="429" type="line"/>
      <point x="199" y="378"/>
      <point x="135" y="297"/>
      <point x="135" y="204" type="curve" smooth="yes"/>
      <point x="135" y="92"/>
      <point x="234" y="-16"/>
    </contour>
  </outline>
</glyph>
<glyph name="parenleft" format="2">
  <advance width="681"/>
  <unicode hex="0028"/>
  <outline>
    <contour>
      <point x="510" y="-186" type="curve"/>
      <point x="566" y="-109" type="line"/>
      <point x="341" y="-9"/>
      <point x="237" y="115"/>
      <point x="237" y="258" type="curve" smooth="yes"/>
      <point x="237" y="401"/>
      <point x="341" y="525"/>
      <point x="566" y="625" type="curve"/>
      <point x="511" y="702" type="line"/>
      <point x="247" y="597"/>
      <point x="120" y="434"/>
      <point x="120" y="258" type="curve" smooth="yes"/>
      <point x="120" y="82"/>
      <point x="246" y="-81"/>
    </contour>
  </outline>
</glyph>
<glyph name="parenright" format="2">
  <advance width="681"/>
  <unicode hex="0029"/>
  <outline>
    <contour>
      <point x="170" y="-186" type="line"/>
      <point x="434" y="-81"/>
      <point x="561" y="82"/>
      <point x="561" y="258" type="curve" smooth="yes"/>
      <point x="561" y="434"/>
      <point x="435" y="597"/>
      <point x="171" y="702" type="curve"/>
      <point x="115" y="625" type="line"/>
      <point x="340" y="525"/>
      <point x="444" y="401"/>
      <point x="444" y="258" type="curve" smooth="yes"/>
      <point x="444" y="115"/>
      <point x="340" y="-9"/>
      <point x="115" y="-109" type="curve"/>
    </contour>
  </outline>
</glyph>
<glyph name="plus" format="2">
  <advance width="881"/>
  <unicode hex="002B"/>
  <outline>
    <contour>
      <point x="130" y="235" type="line"/>
      <point x="751" y="235" type="line"/>
      <point x="751" y="350" type="line"/>
      <point x="130" y="350" type="line"/>
    </contour>
    <contour>
      <point x="377" y="2" type="line"/>
      <point x="502" y="2" type="line"/>
      <point x="502" y="565" type="line"/>
      <point x="377" y="565" type="line"/>
    </contour>
  </outline>
</glyph>
<glyph name="comma" format="2">
  <advance width="506"/>
  <unicode hex="002C"/>
  <outline>
    <contour>
      <point x="173" y="-203" type="line"/>
      <point x="261" y="-164"/>
      <point x="356" y="-75"/>
      <point x="356" y="5" type="curve" smooth="yes"/>
      <point x="356" y="84"/>
      <point x="289" y="147"/>
      <point x="221" y="147" type="curve" smooth="yes"/>
      <point x="172" y="147"/>
      <point x="131" y="124"/>
      <point x="131" y="75" type="curve" smooth="yes"/>
      <point x="131" y="38"/>
      <point x="163" y="21"/>
      <point x="191" y="5" type="curve" smooth="yes"/>
      <point x="214" y="-8"/>
      <point x="234" y="-21"/>
      <point x="234" y="-45" type="curve" smooth="yes"/>
      <point x="234" y="-74"/>
      <point x="189" y="-111"/>
      <point x="125" y="-148" type="curve"/>
    </contour>
  </outline>
</glyph>
<glyph name="hyphen" format="2">
  <advance width="608"/>
  <unicode hex="002D"/>
  <outline>
    <contour>
      <point x="125" y="241" type="line"/>
      <point x="483" y="241" type="line"/>
      <point x="483" y="337" type="line"/>
      <point x="125" y="337" type="line"/>
    </contour>
  </outline>
</glyph>
<glyph name="period" format="2">
  <advance width="548"/>
  <unicode hex="002E"/>
  <outline>
    <contour>
      <point x="274" y="-11" type="curve" smooth="yes"/>
      <point x="345" y="-11"/>
      <point x="378" y="27"/>
      <point x="378" y="64" type="curve" smooth="yes"/>
      <point x="378" y="109"/>
      <point x="345" y="139"/>
      <point x="274" y="139" type="curve" smooth="yes"/>
      <point x="203" y="139"/>
      <point x="170" y="101"/>
      <point x="170" y="64" type="curve" smooth="yes"/>
      <point x="170" y="19"/>
      <point x="203" y="-11"/>
    </contour>
  </outline>
</glyph>
<glyph name="zero" format="2">
  <advance width="825"/>
  <unicode hex="0030"/>
  <outline>
    <contour>
      <point x="417" y="-10" type="curve" smooth="yes"/>
      <point x="617" y="-10"/>
      <point x="725" y="142"/>
      <point x="725" y="350" type="curve" smooth="yes"/>
      <point x="725" y="558"/>
      <point x="617" y="710"/>
      <point x="417" y="710" type="curve" smooth="yes"/>
      <point x="212" y="710"/>
      <point x="100" y="558"/>
      <point x="100" y="350" type="curve" smooth="yes"/>
      <point x="100" y="142"/>
      <point x="212" y="-10"/>
    </contour>
    <contour>
      <point x="417" y="88" type="curve" smooth="yes"/>
      <point x="284" y="88"/>
      <point x="204" y="183"/>
      <point x="204" y="350" type="curve" smooth="yes"/>
      <point x="204" y="517"/>
      <point x="284" y="612"/>
      <point x="417" y="612" type="curve" smooth="yes"/>
      <point x="545" y="612"/>
      <point x="620" y="517"/>
      <point x="620" y="350" type="curve" smooth="yes"/>
      <point x="620" y="183"/>
      <point x="545" y="88"/>
    </contour>
  </outline>
</glyph>
<glyph name="two" format="2">
  <advance width="775"/>
  <unicode hex="0032"/>
  <outline>
    <contour>
      <point x="152" y="0" type="line"/>
      <point x="665" y="0" type="line"/>
      <point x="665" y="104" type="line"/>
      <point x="231" y="104" type="line"/>
      <point x="246" y="60" type="line"/>
      <point x="420" y="218" type="line" smooth="yes"/>
      <point x="512" y="302"/>
      <point x="643" y="398"/>
      <point x="643" y="522" type="curve" smooth="yes"/>
      <point x="643" y="631"/>
      <point x="557" y="710"/>
      <point x="414" y="710" type="curve" smooth="yes"/>
      <point x="274" y="710"/>
      <point x="171" y="638"/>
      <point x="110" y="538" type="curve"/>
      <point x="188" y="482" type="line"/>
      <point x="245" y="574"/>
      <point x="324" y="610"/>
      <point x="401" y="610" type="curve" smooth="yes"/>
      <point x="486" y="610"/>
      <point x="532" y="572"/>
      <point x="532" y="509" type="curve" smooth="yes"/>
      <point x="532" y="441"/>
      <point x="440" y="367"/>
      <point x="360" y="291" type="curve"/>
      <point x="119" y="82" type="line"/>
    </contour>
  </outline>
</glyph>
<glyph name="three" format="2">
  <advance width="764"/>
  <unicode hex="0033"/>
  <outline>
    <contour>
      <point x="371" y="-10" type="curve" smooth="yes"/>
      <point x="534" y="-10"/>
      <point x="664" y="83"/>
      <point x="664" y="227" type="curve" smooth="yes"/>
      <point x="664" y="343"/>
      <point x="556" y="431"/>
      <point x="437" y="431" type="curve" smooth="yes"/>
      <point x="404" y="431"/>
      <point x="363" y="427"/>
      <point x="346" y="422" type="curve"/>
      <point x="371" y="366" type="line"/>
      <point x="650" y="630" type="line"/>
      <point x="630" y="700" type="line"/>
      <point x="129" y="700" type="line"/>
      <point x="129" y="600" type="line"/>
      <point x="527" y="600" type="line"/>
      <point x="536" y="631" type="line"/>
      <point x="270" y="383" type="line"/>
      <point x="308" y="317" type="line"/>
      <point x="332" y="325"/>
      <point x="361" y="332"/>
      <point x="404" y="332" type="curve" smooth="yes"/>
      <point x="472" y="332"/>
      <point x="559" y="301"/>
      <point x="559" y="218" type="curve" smooth="yes"/>
      <point x="559" y="118"/>
      <point x="458" y="85"/>
      <point x="369" y="85" type="curve" smooth="yes"/>
      <point x="273" y="85"/>
      <point x="211" y="154"/>
      <point x="174" y="205" type="curve"/>
      <point x="90" y="138" type="line"/>
      <point x="151" y="55"/>
      <point x="239" y="-10"/>
    </contour>
  </outline>
</glyph>
<glyph name="five" format="2">
  <advance width="759"/>
  <unicode hex="0035"/>
  <outline>
    <contour>
      <point x="368" y="-7" type="curve" smooth="yes"/>
      <point x="531" y="-7"/>
      <point x="659" y="99"/>
      <point x="659" y="238" type="curve" smooth="yes"/>
      <point x="659" y="378"/>
      <point x="538" y="468"/>
      <point x="395" y="468" type="curve" smooth="yes"/>
      <point x="323" y="468"/>
      <point x="234" y="445"/>
      <point x="211" y="426" type="curve"/>
      <point x="230" y="397" type="line"/>
      <point x="263" y="619" type="line"/>
      <point x="248" y="600" type="line"/>
      <point x="598" y="600" type="line"/>
      <point x="598" y="700" type="line"/>
      <point x="180" y="700" type="line"/>
      <point x="139" y="403" type="line"/>
      <point x="196" y="331" type="line"/>
      <point x="229" y="344"/>
      <point x="289" y="373"/>
      <point x="376" y="373" type="curve" smooth="yes"/>
      <point x="473" y="373"/>
      <point x="555" y="314"/>
      <point x="555" y="238" type="curve" smooth="yes"/>
      <point x="555" y="146"/>
      <point x="476" y="92"/>
      <point x="368" y="92" type="curve" smooth="yes"/>
      <point x="303" y="92"/>
      <point x="229" y="131"/>
      <point x="166" y="187" type="curve"/>
      <point x="110" y="102" type="line"/>
      <point x="171" y="41"/>
      <point x="265" y="-7"/>
    </contour>
  </outline>
</glyph>
<glyph name="six" format="2">
  <advance width="792"/>
  <unicode hex="0036"/>
  <outline>
    <contour>
      <point x="393" y="0" type="curve" smooth="yes"/>
      <point x="570" y="0"/>
      <point x="682" y="119"/>
      <point x="682" y="260" type="curve" smooth="yes"/>
      <point x="682" y="392"/>
      <point x="567" y="489"/>
      <point x="428" y="489" type="curve" smooth="yes"/>
      <point x="288" y="489"/>
      <point x="195" y="413"/>
      <point x="138" y="333" type="curve"/>
      <point x="202" y="260" type="line"/>
      <point x="215" y="336"/>
      <point x="282" y="441"/>
      <point x="357" y="517" type="curve" smooth="yes"/>
      <point x="537" y="702" type="line"/>
      <point x="533" y="712" type="line"/>
      <point x="405" y="712" type="line"/>
      <point x="275" y="571" type="line" smooth="yes"/>
      <point x="184" y="472"/>
      <point x="110" y="363"/>
      <point x="110" y="247" type="curve" smooth="yes"/>
      <point x="110" y="100"/>
      <point x="238" y="0"/>
    </contour>
    <contour>
      <point x="393" y="100" type="curve" smooth="yes"/>
      <point x="281" y="100"/>
      <point x="214" y="171"/>
      <point x="214" y="248" type="curve" smooth="yes"/>
      <point x="214" y="320"/>
      <point x="283" y="389"/>
      <point x="395" y="389" type="curve" smooth="yes"/>
      <point x="503" y="389"/>
      <point x="578" y="315"/>
      <point x="578" y="247" type="curve" smooth="yes"/>
      <point x="578" y="155"/>
      <point x="492" y="100"/>
    </contour>
  </outline>
</glyph>
<glyph name="seven" format="2">
  <advance width="697"/>
  <unicode hex="0037"/>
  <outline>
    <contour>
      <point x="212" y="0" type="line"/>
      <point x="328" y="0" type="line"/>
      <point x="607" y="631" type="line"/>
      <point x="593" y="700" type="line"/>
      <point x="90" y="700" type="line"/>
      <point x="90" y="600" type="line"/>
      <point x="514" y="600" type="line"/>
      <point x="502" y="632" type="line"/>
    </contour>
  </outline>
</glyph>
<glyph name="eight" format="2">
  <advance width="813"/>
  <unicode hex="0038"/>
  <outline>
    <contour>
      <point x="406" y="-3" type="curve" smooth="yes"/>
      <point x="575" y="-3"/>
      <point x="693" y="94"/>
      <point x="693" y="213" type="curve" smooth="yes"/>
      <point x="693" y="289"/>
      <point x="638" y="350"/>
      <point x="559" y="381" type="curve"/>
      <point x="562" y="344" type="line"/>
      <point x="605" y="365"/>
      <point x="660" y="412"/>
      <point x="660" y="504" type="curve" smooth="yes"/>
      <point x="660" y="611"/>
      <point x="549" y="700"/>
      <point x="406" y="700" type="curve" smooth="yes"/>
      <point x="263" y="700"/>
      <point x="151" y="611"/>
      <point x="151" y="504" type="curve" smooth="yes"/>
      <point x="151" y="420"/>
      <point x="200" y="367"/>
      <point x="249" y="344" type="curve"/>
      <point x="255" y="385" type="line"/>
      <point x="190" y="356"/>
      <point x="120" y="312"/>
      <point x="120" y="213" type="curve" smooth="yes"/>
      <point x="120" y="94"/>
      <point x="238" y="-3"/>
    </contour>
    <contour>
      <point x="406" y="97" type="curve" smooth="yes"/>
      <point x="302" y="97"/>
      <point x="222" y="146"/>
      <point x="222" y="211" type="curve" smooth="yes"/>
      <point x="222" y="276"/>
      <point x="305" y="319"/>
      <point x="406" y="319" type="curve" smooth="yes"/>
      <point x="507" y="319"/>
      <point x="589" y="276"/>
      <point x="589" y="211" type="curve" smooth="yes"/>
      <point x="589" y="146"/>
      <point x="510" y="97"/>
    </contour>
    <contour>
      <point x="406" y="409" type="curve" smooth="yes"/>
      <point x="322" y="409"/>
      <point x="255" y="451"/>
      <point x="255" y="511" type="curve" smooth="yes"/>
      <point x="255" y="560"/>
      <point x="319" y="600"/>
      <point x="406" y="600" type="curve" smooth="yes"/>
      <point x="491" y="600"/>
      <point x="555" y="560"/>
      <point x="555" y="511" type="curve" smooth="yes"/>
      <point x="555" y="451"/>
      <point x="489" y="409"/>
    </contour>
  </outline>
</glyph>
<glyph name="nine" format="2">
  <advance width="776"/>
  <unicode hex="0039"/>
  <outline>
    <contour>
      <point x="319" y="0" type="line"/>
      <point x="429" y="0" type="line"/>
      <point x="532" y="174" type="line" smooth="yes"/>
      <point x="593" y="275"/>
      <point x="666" y="393"/>
      <point x="666" y="478" type="curve" smooth="yes"/>
      <point x="666" y="610"/>
      <point x="541" y="712"/>
      <point x="394" y="712" type="curve" smooth="yes"/>
      <point x="237" y="712"/>
      <point x="110" y="607"/>
      <point x="110" y="462" type="curve" smooth="yes"/>
      <point x="110" y="345"/>
      <point x="211" y="243"/>
      <point x="344" y="243" type="curve" smooth="yes"/>
      <point x="448" y="243"/>
      <point x="518" y="303"/>
      <point x="585" y="379" type="curve"/>
      <point x="591" y="452" type="line"/>
      <point x="315" y="10" type="line"/>
    </contour>
    <contour>
      <point x="381" y="344" type="curve" smooth="yes"/>
      <point x="282" y="344"/>
      <point x="215" y="411"/>
      <point x="215" y="475" type="curve" smooth="yes"/>
      <point x="215" y="560"/>
      <point x="294" y="611"/>
      <point x="383" y="611" type="curve" smooth="yes"/>
      <point x="494" y="611"/>
      <point x="561" y="546"/>
      <point x="561" y="474" type="curve" smooth="yes"/>
      <point x="561" y="407"/>
      <point x="493" y="344"/>
    </contour>
  </outline>
</glyph>
<glyph name="equal" format="2">
  <advance width="846"/>
  <unicode hex="003D"/>
  <outline>
    <contour>
      <point x="120" y="331" type="line"/>
      <point x="726" y="331" type="line"/>
      <point x="726" y="437" type="line"/>
      <point x="120" y="437" type="line"/>
    </contour>
    <contour>
      <point x="120" y="127" type="line"/>
      <point x="726" y="127" type="line"/>
      <point x="726" y="231" type="line"/>
      <point x="120" y="231" type="line"/>
    </contour>
  </outline>
</glyph>
<glyph name="at" format="2">
  <advance width="1285"/>
  <unicode hex="0040"/>
  <outline>
    <contour>
      <point x="504" y="-182" type="curve" smooth="yes"/>
      <point x="633" y="-182"/>
      <point x="714" y="-146"/>
      <point x="799" y="-109" type="curve"/>
      <point x="762" y="-27" type="line"/>
      <point x="667" y="-71"/>
      <point x="620" y="-87"/>
      <point x="507" y="-87" type="curve" smooth="yes"/>
      <point x="332" y="-87"/>
      <point x="194" y="32"/>
      <point x="194" y="218" type="curve" smooth="yes"/>
      <point x="194" y="486"/>
      <point x="411" y="641"/>
      <point x="712" y="641" type="curve" smooth="yes"/>
      <point x="951" y="641"/>
      <point x="1092" y="527"/>
      <point x="1092" y="351" type="curve" smooth="yes"/>
      <point x="1092" y="209"/>
      <point x="997" y="146"/>
      <point x="920" y="146" type="curve" smooth="yes"/>
      <point x="872" y="146"/>
      <point x="854" y="183"/>
      <point x="867" y="257" type="curve" smooth="yes"/>
      <point x="908" y="482" type="line"/>
      <point x="807" y="482" type="line"/>
      <point x="781" y="312" type="line"/>
      <point x="816" y="383" type="line"/>
      <point x="804" y="449"/>
      <point x="737" y="503"/>
      <point x="630" y="503" type="curve" smooth="yes"/>
      <point x="450" y="503"/>
      <point x="336" y="356"/>
      <point x="336" y="227" type="curve" smooth="yes"/>
      <point x="336" y="119"/>
      <point x="415" y="56"/>
      <point x="523" y="56" type="curve" smooth="yes"/>
      <point x="619" y="56"/>
      <point x="724" y="115"/>
      <point x="784" y="198" type="curve"/>
      <point x="760" y="223" type="line"/>
      <point x="757" y="205"/>
      <point x="752" y="187"/>
      <point x="752" y="169" type="curve" smooth="yes"/>
      <point x="752" y="114"/>
      <point x="801" y="56"/>
      <point x="889" y="56" type="curve" smooth="yes"/>
      <point x="1048" y="56"/>
      <point x="1195" y="148"/>
      <point x="1195" y="356" type="curve" smooth="yes"/>
      <point x="1195" y="560"/>
      <point x="1028" y="730"/>
      <point x="716" y="730" type="curve" smooth="yes"/>
      <point x="375" y="730"/>
      <point x="90" y="531"/>
      <point x="90" y="219" type="curve" smooth="yes"/>
      <point x="90" y="-5"/>
      <point x="267" y="-182"/>
    </contour>
    <contour>
      <point x="560" y="156" type="curve" smooth="yes"/>
      <point x="503" y="156"/>
      <point x="454" y="193"/>
      <point x="454" y="250" type="curve" smooth="yes"/>
      <point x="454" y="326"/>
      <point x="528" y="416"/>
      <point x="645" y="416" type="curve" smooth="yes"/>
      <point x="722" y="416"/>
      <point x="773" y="382"/>
      <point x="768" y="322" type="curve" smooth="yes"/>
      <point x="767" y="305"/>
      <point x="761" y="287"/>
      <point x="756" y="272" type="curve" smooth="yes"/>
      <point x="727" y="201"/>
      <point x="647" y="156"/>
    </contour>
  </outline>
</glyph>
<glyph name="A" format="2">
  <advance width="992"/>
  <unicode hex="0041"/>
  <anchor x="496" y="0" name="bottom"/>
  <anchor x="899" y="0" name="ogonek"/>
  <anchor x="496" y="700" name="top"/>
  <outline>
    <contour>
      <point x="92" y="0" type="line"/>
      <point x="206" y="0" type="line"/>
      <point x="439" y="478" type="line" smooth="yes"/>
      <point x="464" y="529"/>
      <point x="486" y="573"/>
      <point x="510" y="638" type="curve"/>
      <point x="478" y="637" type="line"/>
      <point x="499" y="573"/>
      <point x="521" y="533"/>
      <point x="546" y="482" type="curve" smooth="yes"/>
      <point x="781" y="0" type="line"/>
      <point x="900" y="0" type="line"/>
      <point x="560" y="700" type="line"/>
      <point x="434" y="700" type="line"/>
    </contour>
    <contour>
      <point x="241" y="164" type="line"/>
      <point x="716" y="164" type="line"/>
      <point x="699" y="268" type="line"/>
      <point x="284" y="268" type="line"/>
    </contour>
  </outline>
</glyph>
<glyph name="B" format="2">
  <advance width="995"/>
  <unicode hex="0042"/>
  <anchor x="500" y="0" name="bottom"/>
  <anchor x="500" y="700" name="top"/>
  <outline>
    <contour>
      <point x="182" y="0" type="line"/>
      <point x="590" y="0" type="line" smooth="yes"/>
      <point x="721" y="0"/>
      <point x="867" y="43"/>
      <point x="867" y="206" type="curve" smooth="yes"/>
      <point x="867" y="316"/>
      <point x="781" y="370"/>
      <point x="692" y="390" type="curve"/>
      <point x="685" y="371" type="line"/>
      <point x="780" y="393"/>
      <point x="830" y="451"/>
      <point x="830" y="524" type="curve" smooth="yes"/>
      <point x="830" y="637"/>
      <point x="739" y="700"/>
      <point x="564" y="700" type="curve" smooth="yes"/>
      <point x="182" y="700" type="line"/>
    </contour>
    <contour>
      <point x="290" y="104" type="line"/>
      <point x="290" y="311" type="line"/>
      <point x="589" y="311" type="line" smooth="yes"/>
      <point x="665" y="311"/>
      <point x="757" y="287"/>
      <point x="757" y="208" type="curve" smooth="yes"/>
      <point x="757" y="137"/>
      <point x="689" y="104"/>
      <point x="594" y="104" type="curve" smooth="yes"/>
    </contour>
    <contour>
      <point x="290" y="416" type="line"/>
      <point x="290" y="596" type="line"/>
      <point x="572" y="596" type="line" smooth="yes"/>
      <point x="655" y="596"/>
      <point x="719" y="572"/>
      <point x="719" y="508" type="curve" smooth="yes"/>
      <point x="719" y="451"/>
      <point x="656" y="416"/>
      <point x="584" y="416" type="curve" smooth="yes"/>
    </contour>
  </outline>
</glyph>
<glyph name="C" format="2">
  <advance width="981"/>
  <unicode hex="0043"/>
  <anchor x="486" y="0" name="bottom"/>
  <anchor x="486" y="700" name="top"/>
  <outline>
    <contour>
      <point x="532" y="-10" type="curve" smooth="yes"/>
      <point x="671" y="-10"/>
      <point x="793" y="57"/>
      <point x="850" y="104" type="curve"/>
      <point x="798" y="194" type="line"/>
      <point x="738" y="150"/>
      <point x="659" y="95"/>
      <point x="540" y="95" type="curve" smooth="yes"/>
      <point x="385" y="95"/>
      <point x="238" y="183"/>
      <point x="238" y="350" type="curve" smooth="yes"/>
      <point x="238" y="503"/>
      <point x="381" y="600"/>
      <point x="522" y="600" type="curve" smooth="yes"/>
      <point x="633" y="600"/>
      <point x="719" y="557"/>
      <point x="791" y="498" type="curve"/>
      <point x="855" y="589" type="line"/>
      <point x="794" y="646"/>
      <point x="667" y="706"/>
      <point x="532" y="706" type="curve" smooth="yes"/>
      <point x="316" y="706"/>
      <point x="128" y="555"/>
      <point x="128" y="350" type="curve" smooth="yes"/>
      <point x="128" y="133"/>
      <point x="307" y="-10"/>
    </contour>
  </outline>
</glyph>
<glyph name="D" format="2">
  <advance width="1057"/>
  <unicode hex="0044"/>
  <anchor x="531" y="0" name="bottom"/>
  <anchor x="303" y="350" name="center"/>
  <anchor x="531" y="700" name="top"/>
  <outline>
    <contour>
      <point x="182" y="0" type="line"/>
      <point x="536" y="0" type="line" smooth="yes"/>
      <point x="793" y="0"/>
      <point x="929" y="158"/>
      <point x="929" y="350" type="curve" smooth="yes"/>
      <point x="929" y="539"/>
      <point x="793" y="700"/>
      <point x="536" y="700" type="curve" smooth="yes"/>
      <point x="182" y="700" type="line"/>
    </contour>
    <contour>
      <point x="290" y="93" type="line"/>
      <point x="290" y="605" type="line"/>
      <point x="284" y="596" type="line"/>
      <point x="531" y="596" type="line" smooth="yes"/>
      <point x="730" y="596"/>
      <point x="814" y="482"/>
      <point x="814" y="350" type="curve" smooth="yes"/>
      <point x="814" y="215"/>
      <point x="730" y="104"/>
      <point x="531" y="104" type="curve" smooth="yes"/>
      <point x="287" y="104" type="line"/>
    </contour>
  </outline>
</glyph>
<glyph name="E" format="2">
  <advance width="923"/>
  <unicode hex="0045"/>
  <anchor x="461" y="0" name="bottom"/>
  <anchor x="723" y="0" name="ogonek"/>
  <anchor x="481" y="700" name="top"/>
  <anchor x="104" y="700" name="topleft"/>
  <outline>
    <contour>
      <point x="182" y="0" type="line"/>
      <point x="763" y="0" type="line"/>
      <point x="763" y="104" type="line"/>
      <point x="290" y="104" type="line"/>
      <point x="290" y="596" type="line"/>
      <point x="763" y="596" type="line"/>
      <point x="763" y="700" type="line"/>
      <point x="182" y="700" type="line"/>
    </contour>
    <contour>
      <point x="241" y="307" type="line"/>
      <point x="708" y="307" type="line"/>
      <point x="708" y="411" type="line"/>
      <point x="241" y="411" type="line"/>
    </contour>
  </outline>
</glyph>
<glyph name="H" format="2">
  <advance width="1069"/>
  <unicode hex="0048"/>
  <anchor x="535" y="0" name="bottom"/>
  <anchor x="535" y="350" name="center"/>
  <anchor x="535" y="700" name="top"/>
  <anchor x="104" y="700" name="topleft"/>
  <outline>
    <contour>
      <point x="779" y="0" type="line"/>
      <point x="887" y="0" type="line"/>
      <point x="887" y="700" type="line"/>
      <point x="779" y="700" type="line"/>
    </contour>
    <contour>
      <point x="182" y="0" type="line"/>
      <point x="290" y="0" type="line"/>
      <point x="290" y="700" type="line"/>
      <point x="182" y="700" type="line"/>
    </contour>
    <contour>
      <point x="229" y="293" type="line"/>
      <point x="827" y="293" type="line"/>
      <point x="827" y="397" type="line"/>
      <point x="230" y="397" type="line"/>
    </contour>
  </outline>
</glyph>
<glyph name="I" format="2">
  <advance width="854"/>
  <unicode hex="0049"/>
  <anchor x="427" y="0" name="bottom"/>
  <anchor x="520" y="0" name="ogonek"/>
  <anchor x="427" y="700" name="top"/>
  <anchor x="138" y="700" name="topleft"/>
  <outline>
    <contour>
      <point x="190" y="0" type="line"/>
      <point x="664" y="0" type="line"/>
      <point x="664" y="107" type="line"/>
      <point x="481" y="107" type="line"/>
      <point x="481" y="593" type="line"/>
      <point x="664" y="593" type="line"/>
      <point x="664" y="700" type="line"/>
      <point x="190" y="700" type="line"/>
      <point x="190" y="593" type="line"/>
      <point x="373" y="593" type="line"/>
      <point x="373" y="107" type="line"/>
      <point x="190" y="107" type="line"/>
    </contour>
  </outline>
</glyph>
<glyph name="J" format="2">
  <advance width="881"/>
  <unicode hex="004A"/>
  <anchor x="478" y="0" name="bottom"/>
  <anchor x="635" y="700" name="top"/>
  <outline>
    <contour>
      <point x="401" y="-10" type="curve" smooth="yes"/>
      <point x="592" y="-10"/>
      <point x="699" y="129"/>
      <point x="699" y="273" type="curve" smooth="yes"/>
      <point x="699" y="593" type="line"/>
      <point x="831" y="593" type="line"/>
      <point x="831" y="700" type="line"/>
      <point x="417" y="700" type="line"/>
      <point x="417" y="593" type="line"/>
      <point x="591" y="593" type="line"/>
      <point x="591" y="283" type="line" smooth="yes"/>
      <point x="591" y="176"/>
      <point x="518" y="90"/>
      <point x="401" y="90" type="curve" smooth="yes"/>
      <point x="296" y="90"/>
      <point x="246" y="156"/>
      <point x="197" y="223" type="curve"/>
      <point x="125" y="147" type="line"/>
      <point x="146" y="110"/>
      <point x="230" y="-10"/>
    </contour>
  </outline>
</glyph>
<glyph name="M" format="2">
  <advance width="1176"/>
  <unicode hex="004D"/>
  <anchor x="588" y="0" name="bottom"/>
  <anchor x="588" y="700" name="top"/>
  <outline>
    <contour>
      <point x="182" y="0" type="line"/>
      <point x="290" y="0" type="line"/>
      <point x="290" y="297" type="line" smooth="yes"/>
      <point x="290" y="408"/>
      <point x="286" y="501"/>
      <point x="270" y="602" type="curve"/>
      <point x="259" y="561" type="line"/>
      <point x="555" y="201" type="line"/>
      <point x="621" y="201" type="line"/>
      <point x="917" y="561" type="line"/>
      <point x="906" y="602" type="line"/>
      <point x="890" y="501"/>
      <point x="886" y="408"/>
      <point x="886" y="297" type="curve" smooth="yes"/>
      <point x="886" y="0" type="line"/>
      <point x="994" y="0" type="line"/>
      <point x="994" y="700" type="line"/>
      <point x="888" y="700" type="line"/>
      <point x="569" y="305" type="line"/>
      <point x="607" y="305" type="line"/>
      <point x="288" y="700" type="line"/>
      <point x="182" y="700" type="line"/>
    </contour>
  </outline>
</glyph>
<glyph name="N" format="2">
  <advance width="1121"/>
  <unicode hex="004E"/>
  <anchor x="561" y="0" name="bottom"/>
  <anchor x="561" y="700" name="top"/>
  <outline>
    <contour>
      <point x="182" y="0" type="line"/>
      <point x="290" y="0" type="line"/>
      <point x="290" y="291" type="line" smooth="yes"/>
      <point x="290" y="382"/>
      <point x="275" y="505"/>
      <point x="270" y="566" type="curve"/>
      <point x="269" y="552" type="line"/>
      <point x="830" y="0" type="line"/>
      <point x="939" y="0" type="line"/>
      <point x="939" y="700" type="line"/>
      <point x="831" y="700" type="line"/>
      <point x="831" y="470" type="line" smooth="yes"/>
      <point x="831" y="361"/>
      <point x="835" y="218"/>
      <point x="851" y="118" type="curve"/>
      <point x="857" y="127" type="line"/>
      <point x="289" y="700" type="line"/>
      <point x="182" y="700" type="line"/>
    </contour>
  </outline>
</glyph>
<glyph name="O" format="2">
  <advance width="1102"/>
  <unicode hex="004F"/>
  <anchor x="551" y="0" name="bottom"/>
  <anchor x="551" y="350" name="center"/>
  <anchor x="768" y="0" name="ogonek"/>
  <anchor x="551" y="700" name="top"/>
  <anchor x="100" y="700" name="topleft"/>
  <anchor x="1002" y="700" name="topright"/>
  <outline>
    <contour>
      <point x="551" y="-10" type="curve" smooth="yes"/>
      <point x="796" y="-10"/>
      <point x="974" y="149"/>
      <point x="974" y="350" type="curve" smooth="yes"/>
      <point x="974" y="551"/>
      <point x="796" y="710"/>
      <point x="551" y="710" type="curve" smooth="yes"/>
      <point x="304" y="710"/>
      <point x="128" y="551"/>
      <point x="128" y="350" type="curve" smooth="yes"/>
      <point x="128" y="149"/>
      <point x="304" y="-10"/>
    </contour>
    <contour>
      <point x="551" y="95" type="curve" smooth="yes"/>
      <point x="366" y="95"/>
      <point x="238" y="205"/>
      <point x="238" y="350" type="curve" smooth="yes"/>
      <point x="238" y="495"/>
      <point x="366" y="605"/>
      <point x="551" y="605" type="curve" smooth="yes"/>
      <point x="734" y="605"/>
      <point x="864" y="494"/>
      <point x="864" y="350" type="curve" smooth="yes"/>
      <point x="864" y="206"/>
      <point x="734" y="95"/>
    </contour>
  </outline>
</glyph>
<glyph name="Q" format="2">
  <advance width="1102"/>
  <unicode hex="0051"/>
  <anchor x="551" y="0" name="bottom"/>
  <anchor x="551" y="700" name="top"/>
  <anchor x="551" y="350" name="center"/>
  <anchor x="768" y="0" name="ogonek"/>
  <anchor x="100" y="700" name="topleft"/>
  <anchor x="1002" y="700" name="topright"/>
  <outline>
    <contour>
      <point x="796" y="-110" type="line"/>
      <point x="882" y="-58" type="line"/>
      <point x="620" y="286" type="line"/>
      <point x="531" y="237" type="line"/>
    </contour>
    <component base="O"/>
  </outline>
</glyph>
<glyph name="R" format="2">
  <advance width="1011"/>
  <unicode hex="0052"/>
  <anchor x="497" y="0" name="bottom"/>
  <anchor x="497" y="700" name="top"/>
  <outline>
    <contour>
      <point x="182" y="0" type="line"/>
      <point x="290" y="0" type="line"/>
      <point x="290" y="258" type="line"/>
      <point x="571" y="258" type="line" smooth="yes"/>
      <point x="704" y="258"/>
      <point x="818" y="358"/>
      <point x="818" y="485" type="curve" smooth="yes"/>
      <point x="818" y="605"/>
      <point x="714" y="700"/>
      <point x="591" y="700" type="curve" smooth="yes"/>
      <point x="182" y="700" type="line"/>
    </contour>
    <contour>
      <point x="724" y="0" type="line"/>
      <point x="859" y="-1" type="line"/>
      <point x="601" y="341" type="line"/>
      <point x="486" y="316" type="line"/>
    </contour>
    <contour>
      <point x="290" y="362" type="line"/>
      <point x="290" y="596" type="line"/>
      <point x="561" y="596" type="line" smooth="yes"/>
      <point x="637" y="596"/>
      <point x="703" y="546"/>
      <point x="703" y="485" type="curve" smooth="yes"/>
      <point x="703" y="418"/>
      <point x="637" y="362"/>
      <point x="561" y="362" type="curve" smooth="yes"/>
    </contour>
  </outline>
</glyph>
<glyph name="U" format="2">
  <advance width="1044"/>
  <unicode hex="0055"/>
  <anchor x="522" y="0" name="bottom"/>
  <anchor x="694" y="0" name="ogonek"/>
  <anchor x="522" y="700" name="top"/>
  <anchor x="942" y="700" name="topright"/>
  <outline>
    <contour>
      <point x="522" y="-6" type="curve" smooth="yes"/>
      <point x="734" y="-6"/>
      <point x="874" y="139"/>
      <point x="874" y="335" type="curve" smooth="yes"/>
      <point x="874" y="701" type="line"/>
      <point x="771" y="701" type="line"/>
      <point x="771" y="339" type="line" smooth="yes"/>
      <point x="771" y="200"/>
      <point x="665" y="99"/>
      <point x="522" y="99" type="curve" smooth="yes"/>
      <point x="386" y="99"/>
      <point x="278" y="200"/>
      <point x="278" y="339" type="curve" smooth="yes"/>
      <point x="278" y="701" type="line"/>
      <point x="170" y="701" type="line"/>
      <point x="170" y="335" type="line" smooth="yes"/>
      <point x="170" y="139"/>
      <point x="310" y="-6"/>
    </contour>
  </outline>
</glyph>
<glyph name="V" format="2">
  <advance width="952"/>
  <unicode hex="0056"/>
  <anchor x="476" y="0" name="bottom"/>
  <anchor x="476" y="700" name="top"/>
  <outline>
    <contour>
      <point x="415" y="0" type="line"/>
      <point x="545" y="0" type="line"/>
      <point x="860" y="700" type="line"/>
      <point x="733" y="700" type="line"/>
      <point x="560" y="281" type="line" smooth="yes"/>
      <point x="536" y="223"/>
      <point x="489" y="120"/>
      <point x="467" y="60" type="curve"/>
      <point x="499" y="61" type="line"/>
      <point x="477" y="127"/>
      <point x="418" y="246"/>
      <point x="401" y="283" type="curve" smooth="yes"/>
      <point x="214" y="700" type="line"/>
      <point x="92" y="700" type="line"/>
    </contour>
  </outline>
</glyph>
<glyph name="W" format="2">
  <advance width="1276"/>
  <unicode hex="0057"/>
  <anchor x="638" y="0" name="bottom"/>
  <anchor x="638" y="700" name="top"/>
  <outline>
    <contour>
      <point x="350" y="0" type="line"/>
      <point x="433" y="0" type="line"/>
      <point x="637" y="467" type="line"/>
      <point x="618" y="471" type="line"/>
      <point x="821" y="0" type="line"/>
      <point x="896" y="0" type="line"/>
      <point x="1184" y="700" type="line"/>
      <point x="1068" y="700" type="line"/>
      <point x="904" y="296" type="line" smooth="yes"/>
      <point x="879" y="236"/>
      <point x="856" y="157"/>
      <point x="840" y="102" type="curve"/>
      <point x="880" y="109" type="line"/>
      <point x="867" y="160"/>
      <point x="834" y="234"/>
      <point x="809" y="291" type="curve" smooth="yes"/>
      <point x="684" y="579" type="line"/>
      <point x="580" y="579" type="line"/>
      <point x="451" y="289" type="line" smooth="yes"/>
      <point x="424" y="229"/>
      <point x="394" y="153"/>
      <point x="375" y="100" type="curve"/>
      <point x="419" y="99" type="line"/>
      <point x="403" y="152"/>
      <point x="380" y="229"/>
      <point x="359" y="289" type="curve" smooth="yes"/>
      <point x="211" y="700" type="line"/>
      <point x="92" y="700" type="line"/>
    </contour>
  </outline>
</glyph>
<glyph name="Y" format="2">
  <advance width="960"/>
  <unicode hex="0059"/>
  <anchor x="480" y="0" name="bottom"/>
  <anchor x="480" y="700" name="top"/>
  <anchor x="90" y="700" name="topleft"/>
  <outline>
    <contour>
      <point x="436" y="0" type="line"/>
      <point x="544" y="0" type="line"/>
      <point x="544" y="321" type="line"/>
      <point x="539" y="263" type="line"/>
      <point x="880" y="700" type="line"/>
      <point x="746" y="700" type="line"/>
      <point x="480" y="347" type="line"/>
      <point x="503" y="347" type="line"/>
      <point x="230" y="700" type="line"/>
      <point x="80" y="700" type="line"/>
      <point x="456" y="236" type="line"/>
      <point x="436" y="313" type="line"/>
    </contour>
  </outline>
</glyph>
<glyph name="bracketright" format="2">
  <advance width="647"/>
  <unicode hex="005D"/>
  <outline>
    <contour>
      <point x="100" y="-190" type="line"/>
      <point x="497" y="-190" type="line"/>
      <point x="497" y="700" type="line"/>
      <point x="100" y="700" type="line"/>
      <point x="100" y="606" type="line"/>
      <point x="394" y="606" type="line"/>
      <point x="384" y="618" type="line"/>
      <point x="384" y="-104" type="line"/>
      <point x="390" y="-96" type="line"/>
      <point x="100" y="-96" type="line"/>
    </contour>
  </outline>
</glyph>
<glyph name="underscore" format="2">
  <advance width="904"/>
  <unicode hex="005F"/>
  <outline>
    <contour>
      <point x="125" y="-160" type="line"/>
      <point x="779" y="-160" type="line"/>
      <point x="779" y="-67" type="line"/>
      <point x="125" y="-67" type="line"/>
    </contour>
  </outline>
</glyph>
<glyph name="a" format="2">
  <advance width="984"/>
  <unicode hex="0061"/>
  <anchor x="469" y="0" name="bottom"/>
  <anchor x="784" y="0" name="ogonek"/>
  <anchor x="469" y="525" name="top"/>
  <outline>
    <contour>
      <point x="432" y="-10" type="curve" smooth="yes"/>
      <point x="573" y="-10"/>
      <point x="701" y="76"/>
      <point x="701" y="137" type="curve"/>
      <point x="681" y="145" type="line"/>
      <point x="681" y="0" type="line"/>
      <point x="784" y="0" type="line"/>
      <point x="784" y="525" type="line"/>
      <point x="681" y="525" type="line"/>
      <point x="681" y="389" type="line"/>
      <point x="711" y="391" type="line"/>
      <point x="711" y="454"/>
      <point x="593" y="536"/>
      <point x="438" y="536" type="curve" smooth="yes"/>
      <point x="251" y="536"/>
      <point x="120" y="422"/>
      <point x="120" y="263" type="curve" smooth="yes"/>
      <point x="120" y="104"/>
      <point x="241" y="-10"/>
    </contour>
    <contour>
      <point x="455" y="85" type="curve" smooth="yes"/>
      <point x="320" y="85"/>
      <point x="225" y="162"/>
      <point x="225" y="263" type="curve" smooth="yes"/>
      <point x="225" y="363"/>
      <point x="320" y="440"/>
      <point x="455" y="440" type="curve" smooth="yes"/>
      <point x="591" y="440"/>
      <point x="685" y="363"/>
      <point x="685" y="263" type="curve" smooth="yes"/>
      <point x="685" y="162"/>
      <point x="591" y="85"/>
    </contour>
  </outline>
</glyph>
<glyph name="b" format="2">
  <advance width="998"/>
  <unicode hex="0062"/>
  <anchor x="528" y="0" name="bottom"/>
  <anchor x="528" y="740" name="top"/>
  <outline>
    <contour>
      <point x="546" y="-10" type="curve" smooth="yes"/>
      <point x="733" y="-10"/>
      <point x="868" y="105"/>
      <point x="868" y="264" type="curve" smooth="yes"/>
      <point x="868" y="423"/>
      <point x="728" y="536"/>
      <point x="553" y="536" type="curve" smooth="yes"/>
      <point x="414" y="536"/>
      <point x="302" y="456"/>
      <point x="287" y="404" type="curve"/>
      <point x="323" y="405" type="line"/>
      <point x="323" y="740" type="line"/>
      <point x="220" y="740" type="line"/>
      <point x="220" y="3" type="line"/>
      <point x="323" y="3" type="line"/>
      <point x="323" y="131" type="line"/>
      <point x="277" y="127" type="line"/>
      <point x="293" y="75"/>
      <point x="406" y="-10"/>
    </contour>
    <contour>
      <point x="539" y="86" type="curve" smooth="yes"/>
      <point x="404" y="86"/>
      <point x="308" y="164"/>
      <point x="308" y="264" type="curve" smooth="yes"/>
      <point x="308" y="365"/>
      <point x="404" y="441"/>
      <point x="539" y="441" type="curve" smooth="yes"/>
      <point x="672" y="441"/>
      <point x="768" y="365"/>
      <point x="768" y="264" type="curve" smooth="yes"/>
      <point x="768" y="164"/>
      <point x="672" y="86"/>
    </contour>
  </outline>
</glyph>
<glyph name="c" format="2">
  <advance width="880"/>
  <unicode hex="0063"/>
  <anchor x="456" y="0" name="bottom"/>
  <anchor x="454" y="525" name="top"/>
  <outline>
    <contour>
      <point x="455" y="-10" type="curve" smooth="yes"/>
      <point x="580" y="-10"/>
      <point x="675" y="31"/>
      <point x="750" y="76" type="curve"/>
      <point x="694" y="156" type="line"/>
      <point x="638" y="123"/>
      <point x="564" y="83"/>
      <point x="456" y="83" type="curve" smooth="yes"/>
      <point x="335" y="83"/>
      <point x="238" y="159"/>
      <point x="238" y="263" type="curve" smooth="yes"/>
      <point x="238" y="367"/>
      <point x="326" y="443"/>
      <point x="455" y="443" type="curve" smooth="yes"/>
      <point x="540" y="443"/>
      <point x="637" y="402"/>
      <point x="692" y="350" type="curve"/>
      <point x="750" y="434" type="line"/>
      <point x="690" y="498"/>
      <point x="578" y="536"/>
      <point x="455" y="536" type="curve" smooth="yes"/>
      <point x="271" y="536"/>
      <point x="130" y="418"/>
      <point x="130" y="263" type="curve" smooth="yes"/>
      <point x="130" y="108"/>
      <point x="271" y="-10"/>
    </contour>
  </outline>
</glyph>
<glyph name="e" format="2">
  <advance width="931"/>
  <unicode hex="0065"/>
  <anchor x="476" y="0" name="bottom"/>
  <anchor x="711" y="0" name="ogonek"/>
  <anchor x="468" y="525" name="top"/>
  <outline>
    <contour>
      <point x="477" y="-10" type="curve" smooth="yes"/>
      <point x="589" y="-10"/>
      <point x="702" y="28"/>
      <point x="762" y="69" type="curve"/>
      <point x="717" y="147" type="line"/>
      <point x="673" y="122"/>
      <point x="605" y="86"/>
      <point x="497" y="86" type="curve" smooth="yes"/>
      <point x="334" y="86"/>
      <point x="222" y="156"/>
      <point x="222" y="264" type="curve" smooth="yes"/>
      <point x="222" y="395"/>
      <point x="331" y="442"/>
      <point x="468" y="442" type="curve" smooth="yes"/>
      <point x="572" y="442"/>
      <point x="670" y="395"/>
      <point x="681" y="327" type="curve"/>
      <point x="681" y="303" type="line"/>
      <point x="696" y="310" type="line"/>
      <point x="193" y="310" type="line"/>
      <point x="216" y="228" type="line"/>
      <point x="785" y="228" type="line"/>
      <point x="786" y="282" type="line" smooth="yes"/>
      <point x="789" y="433"/>
      <point x="643" y="536"/>
      <point x="468" y="537" type="curve" smooth="yes"/>
      <point x="281" y="536"/>
      <point x="120" y="432"/>
      <point x="120" y="257" type="curve" smooth="yes"/>
      <point x="120" y="102"/>
      <point x="268" y="-10"/>
    </contour>
  </outline>
</glyph>
<glyph name="f" format="2">
  <advance width="730"/>
  <unicode hex="0066"/>
  <anchor x="367" y="0" name="bottom"/>
  <anchor x="367" y="740" name="top"/>
  <outline>
    <contour>
      <point x="269" y="0" type="line"/>
      <point x="290" y="0"/>
      <point x="305" y="0"/>
      <point x="316" y="0" type="curve" smooth="yes"/>
      <point x="363" y="0" type="line"/>
      <point x="363" y="524" type="line" smooth="yes"/>
      <point x="363" y="585"/>
      <point x="397" y="643"/>
      <point x="497" y="643" type="curve" smooth="yes"/>
      <point x="532" y="643"/>
      <point x="571" y="623"/>
      <point x="595" y="606" type="curve"/>
      <point x="630" y="695" type="line"/>
      <point x="609" y="714"/>
      <point x="557" y="739"/>
      <point x="485" y="739" type="curve" smooth="yes"/>
      <point x="358" y="739"/>
      <point x="269" y="649"/>
      <point x="269" y="524" type="curve" smooth="yes"/>
    </contour>
    <contour>
      <point x="145" y="411" type="line"/>
      <point x="597" y="411" type="line"/>
      <point x="597" y="506" type="line"/>
      <point x="145" y="506" type="line"/>
    </contour>
  </outline>
</glyph>
<glyph name="g" format="2">
  <advance width="1001"/>
  <unicode hex="0067"/>
  <anchor x="482" y="-230" name="bottom"/>
  <anchor x="482" y="525" name="top"/>
  <outline>
    <contour>
      <point x="499" y="-230" type="curve" smooth="yes"/>
      <point x="652" y="-230"/>
      <point x="801" y="-133"/>
      <point x="801" y="72" type="curve" smooth="yes"/>
      <point x="801" y="525" type="line"/>
      <point x="698" y="525" type="line"/>
      <point x="698" y="402" type="line"/>
      <point x="720" y="410" type="line"/>
      <point x="720" y="483"/>
      <point x="527" y="536"/>
      <point x="451" y="536" type="curve" smooth="yes"/>
      <point x="262" y="536"/>
      <point x="130" y="422"/>
      <point x="130" y="263" type="curve" smooth="yes"/>
      <point x="130" y="104"/>
      <point x="253" y="-10"/>
      <point x="434" y="-10" type="curve" smooth="yes"/>
      <point x="571" y="-10"/>
      <point x="696" y="57"/>
      <point x="709" y="114" type="curve"/>
      <point x="698" y="121" type="line"/>
      <point x="698" y="60" type="line" smooth="yes"/>
      <point x="698" y="-67"/>
      <point x="615" y="-138"/>
      <point x="499" y="-138" type="curve" smooth="yes"/>
      <point x="395" y="-138"/>
      <point x="320" y="-102"/>
      <point x="276" y="-81" type="curve"/>
      <point x="240" y="-167" type="line"/>
      <point x="292" y="-200"/>
      <point x="378" y="-230"/>
    </contour>
    <contour>
      <point x="475" y="85" type="curve" smooth="yes"/>
      <point x="336" y="85"/>
      <point x="235" y="162"/>
      <point x="235" y="263" type="curve" smooth="yes"/>
      <point x="235" y="364"/>
      <point x="336" y="442"/>
      <point x="475" y="442" type="curve" smooth="yes"/>
      <point x="610" y="442"/>
      <point x="702" y="366"/>
      <point x="702" y="263" type="curve" smooth="yes"/>
      <point x="702" y="160"/>
      <point x="610" y="85"/>
    </contour>
  </outline>
</glyph>
<glyph name="j" format="2">
  <advance width="599"/>
  <unicode hex="006A"/>
  <outline>
    <contour>
      <point x="129" y="-197" type="line"/>
      <point x="276" y="-197"/>
      <point x="389" y="-81"/>
      <point x="389" y="106" type="curve" smooth="yes"/>
      <point x="389" y="525" type="line"/>
      <point x="286" y="525" type="line"/>
      <point x="286" y="131" type="line" smooth="yes"/>
      <point x="286" y="-16"/>
      <point x="226" y="-105"/>
      <point x="90" y="-105" type="curve"/>
    </contour>
    <contour>
      <point x="340" y="651" type="curve" smooth="yes"/>
      <point x="383" y="651"/>
      <point x="409" y="677"/>
      <point x="409" y="716" type="curve" smooth="yes"/>
      <point x="409" y="757"/>
      <point x="384" y="781"/>
      <point x="340" y="781" type="curve" smooth="yes"/>
      <point x="297" y="781"/>
      <point x="271" y="755"/>
      <point x="271" y="716" type="curve" smooth="yes"/>
      <point x="271" y="675"/>
      <point x="296" y="651"/>
    </contour>
  </outline>
</glyph>
<glyph name="k" format="2">
  <advance width="951"/>
  <unicode hex="006B"/>
  <anchor x="491" y="0" name="bottom"/>
  <anchor x="491" y="740" name="top"/>
  <outline>
    <contour>
      <point x="297" y="134" type="line"/>
      <point x="822" y="525" type="line"/>
      <point x="678" y="525" type="line"/>
      <point x="309" y="246" type="line"/>
    </contour>
    <contour>
      <point x="220" y="0" type="line"/>
      <point x="313" y="0" type="line"/>
      <point x="313" y="740" type="line"/>
      <point x="220" y="740" type="line"/>
    </contour>
    <contour>
      <point x="694" y="0" type="line"/>
      <point x="826" y="0" type="line"/>
      <point x="489" y="358" type="line"/>
      <point x="421" y="291" type="line"/>
    </contour>
  </outline>
</glyph>
<glyph name="l" format="2">
  <advance width="523"/>
  <unicode hex="006C"/>
  <anchor x="262" y="0" name="bottom"/>
  <anchor x="262" y="370" name="center"/>
  <anchor x="262" y="740" name="top"/>
  <anchor x="367" y="740" name="topright"/>
  <outline>
    <contour>
      <point x="210" y="0" type="line"/>
      <point x="313" y="0" type="line"/>
      <point x="313" y="740" type="line"/>
      <point x="210" y="740" type="line"/>
    </contour>
  </outline>
</glyph>
<glyph name="m" format="2">
  <advance width="1425"/>
  <unicode hex="006D"/>
  <anchor x="711" y="0" name="bottom"/>
  <anchor x="711" y="525" name="top"/>
  <outline>
    <contour>
      <point x="200" y="0" type="line"/>
      <point x="304" y="0" type="line"/>
      <point x="304" y="276" type="line" smooth="yes"/>
      <point x="304" y="343"/>
      <point x="384" y="439"/>
      <point x="496" y="439" type="curve" smooth="yes"/>
      <point x="612" y="439"/>
      <point x="659" y="378"/>
      <point x="659" y="291" type="curve" smooth="yes"/>
      <point x="659" y="0" type="line"/>
      <point x="763" y="0" type="line"/>
      <point x="763" y="254" type="line" smooth="yes"/>
      <point x="763" y="355"/>
      <point x="858" y="439"/>
      <point x="981" y="439" type="curve" smooth="yes"/>
      <point x="1081" y="439"/>
      <point x="1121" y="377"/>
      <point x="1121" y="289" type="curve" smooth="yes"/>
      <point x="1121" y="0" type="line"/>
      <point x="1225" y="0" type="line"/>
      <point x="1225" y="305" type="line" smooth="yes"/>
      <point x="1225" y="430"/>
      <point x="1170" y="534"/>
      <point x="997" y="534" type="curve" smooth="yes"/>
      <point x="865" y="534"/>
      <point x="762" y="442"/>
      <point x="727" y="394" type="curve"/>
      <point x="720" y="377" type="line"/>
      <point x="756" y="369" type="line"/>
      <point x="748" y="481"/>
      <point x="656" y="534"/>
      <point x="547" y="534" type="curve" smooth="yes"/>
      <point x="392" y="534"/>
      <point x="288" y="440"/>
      <point x="265" y="381" type="curve"/>
      <point x="304" y="373" type="line"/>
      <point x="304" y="525" type="line"/>
      <point x="200" y="525" type="line"/>
    </contour>
  </outline>
</glyph>
<glyph name="n" format="2">
  <advance width="1015"/>
  <unicode hex="006E"/>
  <anchor x="506" y="0" name="bottom"/>
  <anchor x="506" y="525" name="top"/>
  <outline>
    <contour>
      <point x="220" y="0" type="line"/>
      <point x="220" y="0"/>
      <point x="237" y="0"/>
      <point x="272" y="0" type="curve" smooth="yes"/>
      <point x="323" y="0" type="line"/>
      <point x="323" y="278" type="line" smooth="yes"/>
      <point x="323" y="346"/>
      <point x="406" y="440"/>
      <point x="521" y="440" type="curve" smooth="yes"/>
      <point x="614" y="440"/>
      <point x="692" y="380"/>
      <point x="692" y="293" type="curve" smooth="yes"/>
      <point x="692" y="0" type="line"/>
      <point x="795" y="0" type="line"/>
      <point x="795" y="310" type="line" smooth="yes"/>
      <point x="795" y="434"/>
      <point x="710" y="536"/>
      <point x="545" y="536" type="curve" smooth="yes"/>
      <point x="418" y="536"/>
      <point x="330" y="450"/>
      <point x="285" y="375" type="curve"/>
      <point x="323" y="377" type="line"/>
      <point x="323" y="525" type="line"/>
      <point x="220" y="525" type="line"/>
    </contour>
  </outline>
</glyph>
<glyph name="p" format="2">
  <advance width="1009"/>
  <unicode hex="0070"/>
  <anchor x="534" y="0" name="bottom"/>
  <anchor x="534" y="525" name="top"/>
  <outline>
    <contour>
      <point x="220" y="-220" type="line"/>
      <point x="324" y="-220" type="line"/>
      <point x="324" y="131" type="line"/>
      <point x="298" y="117" type="line"/>
      <point x="314" y="65"/>
      <point x="427" y="-9"/>
      <point x="567" y="-9" type="curve" smooth="yes"/>
      <point x="751" y="-9"/>
      <point x="879" y="104"/>
      <point x="879" y="263" type="curve" smooth="yes"/>
      <point x="879" y="422"/>
      <point x="753" y="534"/>
      <point x="564" y="534" type="curve" smooth="yes"/>
      <point x="436" y="534"/>
      <point x="323" y="467"/>
      <point x="308" y="414" type="curve"/>
      <point x="324" y="405" type="line"/>
      <point x="324" y="526" type="line"/>
      <point x="220" y="526" type="line"/>
    </contour>
    <contour>
      <point x="550" y="86" type="curve" smooth="yes"/>
      <point x="415" y="86"/>
      <point x="319" y="163"/>
      <point x="319" y="263" type="curve" smooth="yes"/>
      <point x="319" y="363"/>
      <point x="415" y="439"/>
      <point x="550" y="439" type="curve" smooth="yes"/>
      <point x="685" y="439"/>
      <point x="780" y="363"/>
      <point x="780" y="263" type="curve" smooth="yes"/>
      <point x="780" y="163"/>
      <point x="685" y="86"/>
    </contour>
  </outline>
</glyph>
<glyph name="r" format="2">
  <advance width="781"/>
  <unicode hex="0072"/>
  <anchor x="410" y="0" name="bottom"/>
  <anchor x="410" y="525" name="top"/>
  <outline>
    <contour>
      <point x="220" y="0" type="line"/>
      <point x="324" y="0" type="line"/>
      <point x="324" y="260" type="line" smooth="yes"/>
      <point x="324" y="339"/>
      <point x="399" y="428"/>
      <point x="519" y="428" type="curve" smooth="yes"/>
      <point x="556" y="428"/>
      <point x="605" y="417"/>
      <point x="634" y="400" type="curve"/>
      <point x="661" y="506" type="line"/>
      <point x="634" y="525"/>
      <point x="583" y="536"/>
      <point x="534" y="536" type="curve" smooth="yes"/>
      <point x="430" y="536"/>
      <point x="325" y="448"/>
      <point x="294" y="340" type="curve"/>
      <point x="324" y="334" type="line"/>
      <point x="324" y="525" type="line"/>
      <point x="220" y="525" type="line"/>
    </contour>
  </outline>
</glyph>
<glyph name="s" format="2">
  <advance width="797"/>
  <unicode hex="0073"/>
  <anchor x="420" y="0" name="bottom"/>
  <anchor x="400" y="525" name="top"/>
  <outline>
    <contour>
      <point x="418" y="-10" type="curve" smooth="yes"/>
      <point x="561" y="-10"/>
      <point x="677" y="49"/>
      <point x="677" y="161" type="curve" smooth="yes"/>
      <point x="677" y="202"/>
      <point x="653" y="231"/>
      <point x="616" y="252" type="curve" smooth="yes"/>
      <point x="565" y="281"/>
      <point x="490" y="296"/>
      <point x="417" y="307" type="curve" smooth="yes"/>
      <point x="353" y="317"/>
      <point x="296" y="329"/>
      <point x="263" y="349" type="curve" smooth="yes"/>
      <point x="246" y="360"/>
      <point x="235" y="372"/>
      <point x="235" y="388" type="curve" smooth="yes"/>
      <point x="235" y="439"/>
      <point x="332" y="451"/>
      <point x="399" y="451" type="curve" smooth="yes"/>
      <point x="472" y="451"/>
      <point x="563" y="421"/>
      <point x="620" y="381" type="curve"/>
      <point x="674" y="452" type="line"/>
      <point x="609" y="511"/>
      <point x="491" y="536"/>
      <point x="399" y="536" type="curve" smooth="yes"/>
      <point x="248" y="536"/>
      <point x="132" y="477"/>
      <point x="132" y="384" type="curve" smooth="yes"/>
      <point x="132" y="334"/>
      <point x="152" y="301"/>
      <point x="185" y="277" type="curve" smooth="yes"/>
      <point x="231" y="245"/>
      <point x="303" y="231"/>
      <point x="384" y="217" type="curve" smooth="yes"/>
      <point x="433" y="210"/>
      <point x="477" y="201"/>
      <point x="516" y="191" type="curve" smooth="yes"/>
      <point x="554" y="181"/>
      <point x="573" y="165"/>
      <point x="573" y="142" type="curve" smooth="yes"/>
      <point x="573" y="87"/>
      <point x="474" y="76"/>
      <point x="406" y="76" type="curve" smooth="yes"/>
      <point x="318" y="76"/>
      <point x="243" y="107"/>
      <point x="190" y="156" type="curve"/>
      <point x="120" y="91" type="line"/>
      <point x="189" y="18"/>
      <point x="295" y="-10"/>
    </contour>
  </outline>
</glyph>
<glyph name="t" format="2">
  <advance width="749"/>
  <unicode hex="0074"/>
  <anchor x="359" y="0" name="bottom"/>
  <anchor x="359" y="263" name="center"/>
  <anchor x="345" y="612" name="top"/>
  <anchor x="436" y="787" name="topright"/>
  <outline>
    <contour>
      <point x="294" y="0" type="line"/>
      <point x="397" y="0" type="line"/>
      <point x="397" y="689" type="line"/>
      <point x="294" y="689" type="line"/>
    </contour>
    <contour>
      <point x="125" y="425" type="line"/>
      <point x="599" y="425" type="line"/>
      <point x="599" y="525" type="line"/>
      <point x="125" y="525" type="line"/>
    </contour>
  </outline>
</glyph>
<glyph name="u" format="2">
  <advance width="981"/>
  <unicode hex="0075"/>
  <anchor x="491" y="0" name="bottom"/>
  <anchor x="781" y="0" name="ogonek"/>
  <anchor x="491" y="525" name="top"/>
  <anchor x="833" y="525" name="topright"/>
  <outline>
    <contour>
      <point x="434" y="-10" type="curve" smooth="yes"/>
      <point x="575" y="-10"/>
      <point x="669" y="61"/>
      <point x="696" y="122" type="curve"/>
      <point x="678" y="110" type="line"/>
      <point x="678" y="0" type="line"/>
      <point x="781" y="0" type="line"/>
      <point x="781" y="525" type="line"/>
      <point x="678" y="525" type="line"/>
      <point x="678" y="279" type="line" smooth="yes"/>
      <point x="678" y="163"/>
      <point x="585" y="93"/>
      <point x="476" y="93" type="curve" smooth="yes"/>
      <point x="355" y="93"/>
      <point x="303" y="163"/>
      <point x="303" y="299" type="curve" smooth="yes"/>
      <point x="303" y="525" type="line"/>
      <point x="200" y="525" type="line"/>
      <point x="200" y="261" type="line" smooth="yes"/>
      <point x="200" y="92"/>
      <point x="295" y="-10"/>
    </contour>
  </outline>
</glyph>
<glyph name="y" format="2">
  <advance width="943"/>
  <unicode hex="0079"/>
  <anchor x="666" y="0" name="bottom"/>
  <anchor x="472" y="525" name="top"/>
  <outline>
    <contour>
      <point x="302" y="-230" type="line"/>
      <point x="412" y="-230" type="line"/>
      <point x="537" y="-6" type="line"/>
      <point x="833" y="525" type="line"/>
      <point x="713" y="525" type="line"/>
      <point x="563" y="238" type="line" smooth="yes"/>
      <point x="517" y="150"/>
      <point x="486" y="79"/>
      <point x="468" y="28" type="curve"/>
      <point x="481" y="28" type="line"/>
      <point x="470" y="80"/>
      <point x="435" y="147"/>
      <point x="386" y="238" type="curve" smooth="yes"/>
      <point x="231" y="525" type="line"/>
      <point x="110" y="525" type="line"/>
      <point x="444" y="-64" type="line"/>
      <point x="444" y="14" type="line"/>
    </contour>
  </outline>
</glyph>
<glyph name="z" format="2">
  <advance width="729"/>
  <unicode hex="007A"/>
  <anchor x="362" y="0" name="bottom"/>
  <anchor x="362" y="263" name="center"/>
  <anchor x="362" y="525" name="top"/>
  <outline>
    <contour>
      <point x="100" y="0" type="line"/>
      <point x="629" y="0" type="line"/>
      <point x="629" y="86" type="line"/>
      <point x="202" y="86" type="line"/>
      <point x="222" y="84" type="line"/>
      <point x="623" y="441" type="line"/>
      <point x="623" y="525" type="line"/>
      <point x="100" y="525" type="line"/>
      <point x="100" y="439" type="line"/>
      <point x="521" y="439" type="line"/>
      <point x="504" y="448" type="line"/>
      <point x="100" y="86" type="line"/>
    </contour>
  </outline>
</glyph>
<glyph name="braceleft" format="2">
  <advance width="758"/>
  <unicode hex="007B"/>
  <outline>
    <contour>
      <point x="615" y="-200" type="curve"/>
      <point x="633" y="-116" type="line"/>
      <point x="523" y="-93"/>
      <point x="449" y="-71"/>
      <point x="451" y="22" type="curve" smooth="yes"/>
      <point x="453" y="102" type="line" smooth="yes"/>
      <point x="455" y="182"/>
      <point x="403" y="231"/>
      <point x="314" y="252" type="curve"/>
      <point x="315" y="249" type="line"/>
      <point x="403" y="268"/>
      <point x="455" y="318"/>
      <point x="453" y="398" type="curve" smooth="yes"/>
      <point x="451" y="478" type="line" smooth="yes"/>
      <point x="449" y="568"/>
      <point x="531" y="600"/>
      <point x="633" y="616" type="curve"/>
      <point x="615" y="700" type="line"/>
      <point x="416" y="671"/>
      <point x="339" y="614"/>
      <point x="340" y="507" type="curve" smooth="yes"/>
      <point x="341" y="412" type="line" smooth="yes"/>
      <point x="342" y="343"/>
      <point x="291" y="292"/>
      <point x="195" y="292" type="curve" smooth="yes"/>
      <point x="150" y="292" type="line"/>
      <point x="150" y="201" type="line"/>
      <point x="193" y="201" type="line" smooth="yes"/>
      <point x="289" y="201"/>
      <point x="342" y="164"/>
      <point x="341" y="88" type="curve" smooth="yes"/>
      <point x="340" y="-7" type="line" smooth="yes"/>
      <point x="339" y="-138"/>
      <point x="464" y="-181"/>
    </contour>
  </outline>
</glyph>
<glyph name="braceright" format="2">
  <advance width="758"/>
  <unicode hex="007D"/>
  <outline>
    <contour>
      <point x="143" y="-200" type="line"/>
      <point x="342" y="-171"/>
      <point x="419" y="-114"/>
      <point x="418" y="-7" type="curve" smooth="yes"/>
      <point x="417" y="88" type="line" smooth="yes"/>
      <point x="416" y="157"/>
      <point x="467" y="208"/>
      <point x="563" y="208" type="curve" smooth="yes"/>
      <point x="608" y="208" type="line"/>
      <point x="608" y="299" type="line"/>
      <point x="565" y="299" type="line" smooth="yes"/>
      <point x="469" y="299"/>
      <point x="416" y="336"/>
      <point x="417" y="412" type="curve" smooth="yes"/>
      <point x="418" y="507" type="line" smooth="yes"/>
      <point x="419" y="638"/>
      <point x="294" y="681"/>
      <point x="143" y="700" type="curve"/>
      <point x="125" y="616" type="line"/>
      <point x="235" y="593"/>
      <point x="309" y="571"/>
      <point x="307" y="478" type="curve" smooth="yes"/>
      <point x="305" y="398" type="line" smooth="yes"/>
      <point x="303" y="318"/>
      <point x="355" y="269"/>
      <point x="444" y="248" type="curve"/>
      <point x="443" y="251" type="line"/>
      <point x="355" y="232"/>
      <point x="303" y="182"/>
      <point x="305" y="102" type="curve" smooth="yes"/>
      <point x="307" y="22" type="line" smooth="yes"/>
      <point x="309" y="-68"/>
      <point x="227" y="-100"/>
      <point x="125" y="-116" type="curve"/>
    </contour>
  </outline>
</glyph>
<glyph name="asciitilde" format="2">
  <advance width="839"/>
  <unicode hex="007E"/>
  <outline>
    <contour>
      <point x="556" y="277" type="curve" smooth="yes"/>
      <point x="672" y="277"/>
      <point x="729" y="367"/>
      <point x="729" y="455" type="curve"/>
      <point x="635" y="453" type="line"/>
      <point x="636" y="404"/>
      <point x="611" y="373"/>
      <point x="566" y="373" type="curve" smooth="yes"/>
      <point x="530" y="373"/>
      <point x="485" y="395"/>
      <point x="436" y="416" type="curve" smooth="yes"/>
      <point x="387" y="437"/>
      <point x="332" y="459"/>
      <point x="276" y="459" type="curve" smooth="yes"/>
      <point x="171" y="459"/>
      <point x="110" y="389"/>
      <point x="110" y="289" type="curve"/>
      <point x="204" y="294" type="line"/>
      <point x="201" y="335"/>
      <point x="242" y="363"/>
      <point x="279" y="363" type="curve" smooth="yes"/>
      <point x="311" y="363"/>
      <point x="354" y="344"/>
      <point x="401" y="325" type="curve" smooth="yes"/>
      <point x="453" y="302"/>
      <point x="511" y="277"/>
    </contour>
  </outline>
</glyph>
<glyph name="cent" format="2">
  <advance width="880"/>
  <unicode hex="00A2"/>
  <outline>
    <contour>
      <point x="455" y="78" type="curve" smooth="yes"/>
      <point x="580" y="78"/>
      <point x="675" y="119"/>
      <point x="750" y="164" type="curve"/>
      <point x="694" y="244" type="line"/>
      <point x="638" y="211"/>
      <point x="564" y="171"/>
      <point x="456" y="171" type="curve" smooth="yes"/>
      <point x="335" y="171"/>
      <point x="238" y="247"/>
      <point x="238" y="351" type="curve" smooth="yes"/>
      <point x="238" y="455"/>
      <point x="326" y="531"/>
      <point x="455" y="531" type="curve" smooth="yes"/>
      <point x="540" y="531"/>
      <point x="637" y="490"/>
      <point x="692" y="438" type="curve"/>
      <point x="750" y="522" type="line"/>
      <point x="690" y="586"/>
      <point x="578" y="624"/>
      <point x="455" y="624" type="curve" smooth="yes"/>
      <point x="271" y="624"/>
      <point x="130" y="506"/>
      <point x="130" y="351" type="curve" smooth="yes"/>
      <point x="130" y="196"/>
      <point x="271" y="78"/>
    </contour>
    <contour>
      <point x="403" y="0" type="line"/>
      <point x="520" y="0" type="line"/>
      <point x="520" y="107" type="line"/>
      <point x="513" y="141" type="line"/>
      <point x="513" y="572" type="line"/>
      <point x="520" y="605" type="line"/>
      <point x="520" y="700" type="line"/>
      <point x="403" y="700" type="line"/>
      <point x="403" y="606" type="line"/>
      <point x="410" y="563" type="line"/>
      <point x="410" y="145" type="line"/>
      <point x="403" y="108" type="line"/>
    </contour>
  </outline>
</glyph>
<glyph name="currency" format="2">
  <advance width="830"/>
  <unicode hex="00A4"/>
  <outline>
    <contour>
      <point x="419" y="112" type="curve" smooth="yes"/>
      <point x="523" y="112"/>
      <point x="607" y="197"/>
      <point x="607" y="302" type="curve" smooth="yes"/>
      <point x="607" y="406"/>
      <point x="523" y="492"/>
      <point x="419" y="492" type="curve" smooth="yes"/>
      <point x="315" y="492"/>
      <point x="231" y="406"/>
      <point x="231" y="302" type="curve" smooth="yes"/>
      <point x="231" y="197"/>
      <point x="315" y="112"/>
    </contour>
    <contour>
      <point x="269" y="82" type="line"/>
      <point x="361" y="179" type="line"/>
      <point x="290" y="250" type="line"/>
      <point x="198" y="152" type="line"/>
    </contour>
    <contour>
      <point x="288" y="359" type="line"/>
      <point x="358" y="429" type="line"/>
      <point x="260" y="521" type="line"/>
      <point x="190" y="451" type="line"/>
    </contour>
    <contour>
      <point x="419" y="210" type="curve" smooth="yes"/>
      <point x="370" y="210"/>
      <point x="337" y="250"/>
      <point x="337" y="302" type="curve" smooth="yes"/>
      <point x="337" y="353"/>
      <point x="370" y="395"/>
      <point x="419" y="395" type="curve" smooth="yes"/>
      <point x="470" y="395"/>
      <point x="502" y="353"/>
      <point x="502" y="302" type="curve" smooth="yes"/>
      <point x="502" y="250"/>
      <point x="470" y="210"/>
    </contour>
    <contour>
      <point x="568" y="90" type="line"/>
      <point x="638" y="160" type="line"/>
      <point x="540" y="252" type="line"/>
      <point x="470" y="182" type="line"/>
    </contour>
    <contour>
      <point x="547" y="362" type="line"/>
      <point x="640" y="460" type="line"/>
      <point x="569" y="530" type="line"/>
      <point x="477" y="432" type="line"/>
    </contour>
  </outline>
</glyph>
<glyph name="yen" format="2">
  <advance width="960"/>
  <unicode hex="00A5"/>
  <outline>
    <contour>
      <point x="436" y="0" type="line"/>
      <point x="544" y="0" type="line"/>
      <point x="544" y="321" type="line"/>
      <point x="539" y="263" type="line"/>
      <point x="880" y="700" type="line"/>
      <point x="746" y="700" type="line"/>
      <point x="480" y="347" type="line"/>
      <point x="503" y="347" type="line"/>
      <point x="230" y="700" type="line"/>
      <point x="80" y="700" type="line"/>
      <point x="456" y="236" type="line"/>
      <point x="436" y="313" type="line"/>
    </contour>
    <contour>
      <point x="256" y="75" type="line"/>
      <point x="748" y="73" type="line"/>
      <point x="748" y="174" type="line"/>
      <point x="256" y="176" type="line"/>
    </contour>
    <contour>
      <point x="256" y="230" type="line"/>
      <point x="748" y="228" type="line"/>
      <point x="748" y="329" type="line"/>
      <point x="256" y="331" type="line"/>
    </contour>
  </outline>
</glyph>
<glyph name="section" format="2">
  <advance width="846"/>
  <unicode hex="00A7"/>
  <outline>
    <contour>
      <point x="537" y="115" type="line"/>
      <point x="657" y="123"/>
      <point x="711" y="193"/>
      <point x="711" y="269" type="curve" smooth="yes"/>
      <point x="711" y="369"/>
      <point x="654" y="425"/>
      <point x="530" y="446" type="curve" smooth="yes"/>
      <point x="343" y="477" type="line" smooth="yes"/>
      <point x="253" y="492"/>
      <point x="238" y="516"/>
      <point x="238" y="543" type="curve" smooth="yes"/>
      <point x="238" y="591"/>
      <point x="299" y="605"/>
      <point x="380" y="605" type="curve" smooth="yes"/>
      <point x="462" y="605"/>
      <point x="569" y="575"/>
      <point x="637" y="522" type="curve"/>
      <point x="702" y="616" type="line"/>
      <point x="627" y="677"/>
      <point x="500" y="711"/>
      <point x="380" y="711" type="curve" smooth="yes"/>
      <point x="210" y="711"/>
      <point x="120" y="641"/>
      <point x="120" y="543" type="curve" smooth="yes"/>
      <point x="120" y="454"/>
      <point x="182" y="387"/>
      <point x="315" y="365" type="curve" smooth="yes"/>
      <point x="503" y="334" type="line" smooth="yes"/>
      <point x="556" y="325"/>
      <point x="604" y="304"/>
      <point x="604" y="254" type="curve" smooth="yes"/>
      <point x="604" y="201"/>
      <point x="560" y="171"/>
      <point x="489" y="180" type="curve"/>
    </contour>
    <contour>
      <point x="451" y="-168" type="curve" smooth="yes"/>
      <point x="621" y="-168"/>
      <point x="711" y="-98"/>
      <point x="711" y="5" type="curve" smooth="yes"/>
      <point x="711" y="94"/>
      <point x="649" y="156"/>
      <point x="516" y="178" type="curve" smooth="yes"/>
      <point x="328" y="209" type="line" smooth="yes"/>
      <point x="275" y="218"/>
      <point x="227" y="239"/>
      <point x="227" y="289" type="curve" smooth="yes"/>
      <point x="227" y="343"/>
      <point x="271" y="372"/>
      <point x="342" y="363" type="curve"/>
      <point x="294" y="428" type="line"/>
      <point x="174" y="420"/>
      <point x="120" y="349"/>
      <point x="120" y="274" type="curve" smooth="yes"/>
      <point x="120" y="174"/>
      <point x="177" y="118"/>
      <point x="301" y="97" type="curve" smooth="yes"/>
      <point x="488" y="66" type="line" smooth="yes"/>
      <point x="578" y="51"/>
      <point x="593" y="27"/>
      <point x="593" y="0" type="curve" smooth="yes"/>
      <point x="593" y="-48"/>
      <point x="532" y="-62"/>
      <point x="460" y="-62" type="curve" smooth="yes"/>
      <point x="355" y="-62"/>
      <point x="262" y="-34"/>
      <point x="185" y="18" type="curve"/>
      <point x="129" y="-73" type="line"/>
      <point x="204" y="-134"/>
      <point x="331" y="-168"/>
    </contour>
  </outline>
</glyph>
<glyph name="copyright" format="2">
  <advance width="974"/>
  <unicode hex="00A9"/>
  <outline>
    <contour>
      <point x="487" y="-17" type="curve" smooth="yes"/>
      <point x="687" y="-17"/>
      <point x="854" y="145"/>
      <point x="854" y="350" type="curve" smooth="yes"/>
      <point x="854" y="555"/>
      <point x="687" y="717"/>
      <point x="487" y="717" type="curve" smooth="yes"/>
      <point x="286" y="717"/>
      <point x="120" y="555"/>
      <point x="120" y="350" type="curve" smooth="yes"/>
      <point x="120" y="145"/>
      <point x="286" y="-17"/>
    </contour>
    <contour>
      <point x="505" y="142" type="curve" smooth="yes"/>
      <point x="550" y="142"/>
      <point x="597" y="156"/>
      <point x="638" y="185" type="curve"/>
      <point x="601" y="261" type="line"/>
      <point x="572" y="238"/>
      <point x="538" y="223"/>
      <point x="505" y="223" type="curve" smooth="yes"/>
      <point x="436" y="223"/>
      <point x="377" y="273"/>
      <point x="377" y="350" type="curve" smooth="yes"/>
      <point x="377" y="419"/>
      <point x="432" y="476"/>
      <point x="505" y="476" type="curve" smooth="yes"/>
      <point x="540" y="476"/>
      <point x="570" y="457"/>
      <point x="597" y="437" type="curve"/>
      <point x="634" y="512" type="line"/>
      <point x="597" y="540"/>
      <point x="550" y="557"/>
      <point x="505" y="557" type="curve" smooth="yes"/>
      <point x="385" y="557"/>
      <point x="291" y="462"/>
      <point x="291" y="350" type="curve" smooth="yes"/>
      <point x="291" y="223"/>
      <point x="393" y="142"/>
    </contour>
    <contour>
      <point x="487" y="67" type="curve" smooth="yes"/>
      <point x="332" y="67"/>
      <point x="204" y="191"/>
      <point x="204" y="350" type="curve" smooth="yes"/>
      <point x="204" y="509"/>
      <point x="332" y="633"/>
      <point x="487" y="633" type="curve" smooth="yes"/>
      <point x="642" y="633"/>
      <point x="770" y="509"/>
      <point x="770" y="350" type="curve" smooth="yes"/>
      <point x="770" y="191"/>
      <point x="642" y="67"/>
    </contour>
  </outline>
</glyph>
<glyph name="ordfeminine" format="2">
  <advance width="520"/>
  <unicode hex="00AA"/>
  <outline>
    <contour>
      <point x="228" y="391" type="curve" smooth="yes"/>
      <point x="297" y="391"/>
      <point x="342" y="463"/>
      <point x="342" y="512" type="curve"/>
      <point x="327" y="474" type="line"/>
      <point x="327" y="401" type="line"/>
      <point x="420" y="401" type="line"/>
      <point x="420" y="715" type="line"/>
      <point x="327" y="715" type="line"/>
      <point x="327" y="648" type="line"/>
      <point x="342" y="592" type="line"/>
      <point x="342" y="679"/>
      <point x="301" y="721"/>
      <point x="240" y="721" type="curve" smooth="yes"/>
      <point x="155" y="721"/>
      <point x="100" y="650"/>
      <point x="100" y="562" type="curve" smooth="yes"/>
      <point x="100" y="470"/>
      <point x="143" y="391"/>
    </contour>
    <contour>
      <point x="257" y="458" type="curve" smooth="yes"/>
      <point x="213" y="458"/>
      <point x="193" y="505"/>
      <point x="193" y="562" type="curve" smooth="yes"/>
      <point x="193" y="613"/>
      <point x="221" y="654"/>
      <point x="256" y="654" type="curve" smooth="yes"/>
      <point x="303" y="654"/>
      <point x="331" y="616"/>
      <point x="331" y="555" type="curve" smooth="yes"/>
      <point x="331" y="494"/>
      <point x="298" y="458"/>
    </contour>
  </outline>
</glyph>
<glyph name="logicalnot" format="2">
  <advance width="960"/>
  <unicode hex="00AC"/>
  <outline>
    <contour>
      <point x="715" y="117" type="line"/>
      <point x="840" y="117" type="line"/>
      <point x="840" y="404" type="line"/>
      <point x="120" y="404" type="line"/>
      <point x="120" y="282" type="line"/>
      <point x="734" y="282" type="line"/>
      <point x="715" y="319" type="line"/>
    </contour>
  </outline>
</glyph>
<glyph name="micro" format="2">
  <advance width="896"/>
  <unicode hex="00B5"/>
  <outline>
    <contour>
      <point x="151" y="-157" type="line"/>
      <point x="267" y="-157" type="line"/>
      <point x="267" y="62" type="line"/>
      <point x="260" y="49" type="line"/>
      <point x="284" y="9"/>
      <point x="360" y="-10"/>
      <point x="409" y="-10" type="curve" smooth="yes"/>
      <point x="545" y="-10"/>
      <point x="624" y="62"/>
      <point x="664" y="146" type="curve"/>
      <point x="629" y="97" type="line"/>
      <point x="629" y="0" type="line"/>
      <point x="746" y="0" type="line"/>
      <point x="746" y="525" type="line"/>
      <point x="629" y="525" type="line"/>
      <point x="629" y="252" type="line" smooth="yes"/>
      <point x="629" y="169"/>
      <point x="544" y="96"/>
      <point x="424" y="96" type="curve" smooth="yes"/>
      <point x="308" y="96"/>
      <point x="267" y="159"/>
      <point x="267" y="238" type="curve" smooth="yes"/>
      <point x="267" y="525" type="line"/>
      <point x="150" y="525" type="line"/>
    </contour>
  </outline>
</glyph>
<glyph name="AE" format="2">
  <advance width="1421"/>
  <unicode hex="00C6"/>
  <anchor x="712" y="0" name="bottom"/>
  <anchor x="875" y="700" name="top"/>
  <outline>
    <contour>
      <point x="92" y="0" type="line"/>
      <point x="221" y="0" type="line"/>
      <point x="722" y="563" type="line"/>
      <point x="692" y="575" type="line"/>
      <point x="692" y="257" type="line"/>
      <point x="434" y="257" type="line"/>
      <point x="341" y="153" type="line"/>
      <point x="692" y="153" type="line"/>
      <point x="692" y="0" type="line"/>
      <point x="1261" y="0" type="line"/>
      <point x="1261" y="104" type="line"/>
      <point x="800" y="104" type="line"/>
      <point x="800" y="293" type="line"/>
      <point x="1216" y="293" type="line"/>
      <point x="1216" y="397" type="line"/>
      <point x="800" y="397" type="line"/>
      <point x="800" y="596" type="line"/>
      <point x="1261" y="596" type="line"/>
      <point x="1261" y="700" type="line"/>
      <point x="720" y="700" type="line"/>
    </contour>
  </outline>
</glyph>
<glyph name="Eth" format="2">
  <advance width="1057"/>
  <unicode hex="00D0"/>
  <anchor x="531" y="0" name="bottom"/>
  <anchor x="303" y="350" name="center"/>
  <anchor x="531" y="700" name="top"/>
  <outline>
    <contour>
      <point x="99" y="307" type="line"/>
      <point x="507" y="307" type="line"/>
      <point x="507" y="393" type="line"/>
      <point x="99" y="393" type="line"/>
    </contour>
    <component base="D"/>
  </outline>
</glyph>
<glyph name="Oslash" format="2">
  <advance width="1130"/>
  <unicode hex="00D8"/>
  <anchor x="565" y="0" name="bottom"/>
  <anchor x="565" y="700" name="top"/>
  <anchor x="565" y="350" name="center"/>
  <anchor x="782" y="0" name="ogonek"/>
  <anchor x="114" y="700" name="topleft"/>
  <anchor x="1016" y="700" name="topright"/>
  <outline>
    <contour>
      <point x="188" y="-34" type="line"/>
      <point x="1002" y="669" type="line"/>
      <point x="936" y="737" type="line"/>
      <point x="128" y="39" type="line"/>
    </contour>
    <component base="O" xOffset="14"/>
  </outline>
</glyph>
<glyph name="Thorn" format="2">
  <advance width="968"/>
  <unicode hex="00DE"/>
  <anchor x="481" y="0" name="bottom"/>
  <anchor x="481" y="700" name="top"/>
  <outline>
    <contour>
      <point x="182" y="0" type="line"/>
      <point x="290" y="0" type="line"/>
      <point x="290" y="141" type="line"/>
      <point x="588" y="141" type="line" smooth="yes"/>
      <point x="739" y="141"/>
      <point x="833" y="238"/>
      <point x="833" y="358" type="curve" smooth="yes"/>
      <point x="833" y="498"/>
      <point x="739" y="573"/>
      <point x="588" y="573" type="curve" smooth="yes"/>
      <point x="290" y="573" type="line"/>
      <point x="290" y="700" type="line"/>
      <point x="182" y="700" type="line"/>
    </contour>
    <contour>
      <point x="290" y="245" type="line"/>
      <point x="290" y="469" type="line"/>
      <point x="601" y="469" type="line" smooth="yes"/>
      <point x="664" y="469"/>
      <point x="718" y="419"/>
      <point x="718" y="358" type="curve" smooth="yes"/>
      <point x="718" y="295"/>
      <point x="664" y="245"/>
      <point x="601" y="245" type="curve" smooth="yes"/>
    </contour>
  </outline>
</glyph>
<glyph name="germandbls" format="2">
  <advance width="1027"/>
  <unicode hex="00DF"/>
  <anchor x="525" y="0" name="bottom"/>
  <anchor x="525" y="525" name="top"/>
  <outline>
    <contour>
      <point x="655" y="-10" type="curve" smooth="yes"/>
      <point x="798" y="-10"/>
      <point x="907" y="80"/>
      <point x="907" y="208" type="curve" smooth="yes"/>
      <point x="907" y="332"/>
      <point x="785" y="414"/>
      <point x="662" y="443" type="curve"/>
      <point x="664" y="399" type="line"/>
      <point x="759" y="428"/>
      <point x="838" y="486"/>
      <point x="838" y="554" type="curve" smooth="yes"/>
      <point x="838" y="653"/>
      <point x="742" y="734"/>
      <point x="569" y="734" type="curve" smooth="yes"/>
      <point x="362" y="734"/>
      <point x="248" y="630"/>
      <point x="248" y="499" type="curve" smooth="yes"/>
      <point x="248" y="0" type="line"/>
      <point x="351" y="0" type="line"/>
      <point x="351" y="502" type="line" smooth="yes"/>
      <point x="351" y="579"/>
      <point x="426" y="639"/>
      <point x="565" y="639" type="curve" smooth="yes"/>
      <point x="661" y="639"/>
      <point x="722" y="602"/>
      <point x="722" y="545" type="curve" smooth="yes"/>
      <point x="722" y="492"/>
      <point x="610" y="445"/>
      <point x="559" y="430" type="curve"/>
      <point x="559" y="365" type="line"/>
      <point x="706" y="340"/>
      <point x="790" y="295"/>
      <point x="790" y="196" type="curve" smooth="yes"/>
      <point x="790" y="132"/>
      <point x="735" y="84"/>
      <point x="659" y="84" type="curve" smooth="yes"/>
      <point x="600" y="84"/>
      <point x="541" y="104"/>
      <point x="486" y="136" type="curve"/>
      <point x="444" y="57" type="line"/>
      <point x="491" y="20"/>
      <point x="559" y="-10"/>
    </contour>
    <contour>
      <point x="145" y="404" type="line"/>
      <point x="325" y="404" type="line"/>
      <point x="325" y="497" type="line"/>
      <point x="145" y="497" type="line"/>
    </contour>
  </outline>
</glyph>
<glyph name="ae" format="2">
  <advance width="1366"/>
  <unicode hex="00E6"/>
  <anchor x="672" y="0" name="bottom"/>
  <anchor x="672" y="525" name="top"/>
  <outline>
    <contour>
      <point x="368" y="-10" type="curve" smooth="yes"/>
      <point x="511" y="-10"/>
      <point x="605" y="71"/>
      <point x="646" y="116" type="curve"/>
      <point x="606" y="185" type="line"/>
      <point x="578" y="146"/>
      <point x="488" y="78"/>
      <point x="372" y="78" type="curve" smooth="yes"/>
      <point x="288" y="78"/>
      <point x="217" y="100"/>
      <point x="217" y="157" type="curve" smooth="yes"/>
      <point x="217" y="229"/>
      <point x="332" y="237"/>
      <point x="413" y="237" type="curve" smooth="yes"/>
      <point x="1220" y="237" type="line"/>
      <point x="1221" y="281" type="line" smooth="yes"/>
      <point x="1221" y="432"/>
      <point x="1084" y="535"/>
      <point x="913" y="536" type="curve" smooth="yes"/>
      <point x="740" y="536"/>
      <point x="575" y="432"/>
      <point x="575" y="257" type="curve" smooth="yes"/>
      <point x="575" y="102"/>
      <point x="717" y="-10"/>
      <point x="936" y="-10" type="curve" smooth="yes"/>
      <point x="1044" y="-10"/>
      <point x="1167" y="27"/>
      <point x="1211" y="60" type="curve"/>
      <point x="1161" y="140" type="line"/>
      <point x="1122" y="107"/>
      <point x="1054" y="80"/>
      <point x="946" y="80" type="curve" smooth="yes"/>
      <point x="803" y="80"/>
      <point x="668" y="137"/>
      <point x="668" y="264" type="curve" smooth="yes"/>
      <point x="668" y="407"/>
      <point x="785" y="446"/>
      <point x="913" y="446" type="curve" smooth="yes"/>
      <point x="1012" y="446"/>
      <point x="1105" y="399"/>
      <point x="1116" y="326" type="curve"/>
      <point x="1116" y="302" type="line"/>
      <point x="1131" y="319" type="line"/>
      <point x="426" y="319" type="line" smooth="yes"/>
      <point x="272" y="320"/>
      <point x="120" y="303"/>
      <point x="120" y="149" type="curve" smooth="yes"/>
      <point x="120" y="40"/>
      <point x="221" y="-10"/>
    </contour>
    <contour>
      <point x="575" y="257" type="line"/>
      <point x="668" y="263" type="line"/>
      <point x="668" y="388" type="line" smooth="yes"/>
      <point x="668" y="501"/>
      <point x="528" y="536"/>
      <point x="416" y="536" type="curve" smooth="yes"/>
      <point x="300" y="536"/>
      <point x="215" y="496"/>
      <point x="143" y="445" type="curve"/>
      <point x="200" y="374" type="line"/>
      <point x="263" y="423"/>
      <point x="341" y="442"/>
      <point x="414" y="442" type="curve" smooth="yes"/>
      <point x="479" y="442"/>
      <point x="575" y="400"/>
      <point x="575" y="336" type="curve" smooth="yes"/>
    </contour>
  </outline>
</glyph>
<glyph name="eth" format="2">
  <advance width="904"/>
  <unicode hex="00F0"/>
  <outline>
    <contour>
      <point x="447" y="-7" type="curve" smooth="yes"/>
      <point x="628" y="-7"/>
      <point x="774" y="103"/>
      <point x="774" y="283" type="curve" smooth="yes"/>
      <point x="774" y="480"/>
      <point x="584" y="680"/>
      <point x="471" y="740" type="curve"/>
      <point x="419" y="672" type="line"/>
      <point x="550" y="583"/>
      <point x="664" y="456"/>
      <point x="664" y="335" type="curve"/>
      <point x="698" y="348" type="line"/>
      <point x="673" y="447"/>
      <point x="583" y="528"/>
      <point x="435" y="528" type="curve" smooth="yes"/>
      <point x="264" y="528"/>
      <point x="130" y="410"/>
      <point x="130" y="262" type="curve" smooth="yes"/>
      <point x="130" y="113"/>
      <point x="251" y="-7"/>
    </contour>
    <contour>
      <point x="447" y="79" type="curve" smooth="yes"/>
      <point x="330" y="79"/>
      <point x="235" y="159"/>
      <point x="235" y="262" type="curve" smooth="yes"/>
      <point x="235" y="363"/>
      <point x="325" y="442"/>
      <point x="437" y="442" type="curve" smooth="yes"/>
      <point x="568" y="442"/>
      <point x="667" y="359"/>
      <point x="667" y="262" type="curve" smooth="yes"/>
      <point x="667" y="159"/>
      <point x="570" y="79"/>
    </contour>
    <contour>
      <point x="386" y="548" type="line"/>
      <point x="583" y="574" type="line"/>
      <point x="624" y="591" type="line"/>
      <point x="737" y="597" type="line"/>
      <point x="719" y="663" type="line"/>
      <point x="573" y="650" type="line"/>
      <point x="518" y="630" type="line"/>
      <point x="373" y="613" type="line"/>
    </contour>
  </outline>
</glyph>
<glyph name="divide" format="2">
  <advance width="877"/>
  <unicode hex="00F7"/>
  <outline>
    <contour>
      <point x="120" y="215" type="line"/>
      <point x="757" y="215" type="line"/>
      <point x="757" y="320" type="line"/>
      <point x="120" y="320" type="line"/>
    </contour>
    <contour>
      <point x="433" y="15" type="curve" smooth="yes"/>
      <point x="487" y="15"/>
      <point x="559" y="27"/>
      <point x="559" y="81" type="curve" smooth="yes"/>
      <point x="559" y="129"/>
      <point x="492" y="145"/>
      <point x="433" y="145" type="curve" smooth="yes"/>
      <point x="379" y="145"/>
      <point x="307" y="133"/>
      <point x="307" y="79" type="curve" smooth="yes"/>
      <point x="307" y="31"/>
      <point x="374" y="15"/>
    </contour>
    <contour>
      <point x="433" y="387" type="curve" smooth="yes"/>
      <point x="487" y="387"/>
      <point x="559" y="399"/>
      <point x="559" y="453" type="curve" smooth="yes"/>
      <point x="559" y="501"/>
      <point x="492" y="517"/>
      <point x="433" y="517" type="curve" smooth="yes"/>
      <point x="379" y="517"/>
      <point x="307" y="505"/>
      <point x="307" y="451" type="curve" smooth="yes"/>
      <point x="307" y="403"/>
      <point x="374" y="387"/>
    </contour>
  </outline>
</glyph>
<glyph name="oslash" format="2">
  <advance width="956"/>
  <unicode hex="00F8"/>
  <anchor x="478" y="525" name="top"/>
  <anchor x="479" y="0" name="bottom"/>
  <anchor x="479" y="263" name="center"/>
  <anchor x="789" y="10" name="ogonek"/>
  <anchor x="846" y="525" name="topright"/>
  <outline>
    <contour>
      <point x="206" y="-15" type="line"/>
      <point x="808" y="476" type="line"/>
      <point x="751" y="536" type="line"/>
      <point x="149" y="43" type="line"/>
    </contour>
    <component base="o" xOffset="1"/>
  </outline>
</glyph>
<glyph name="thorn" format="2">
  <advance width="1009"/>
  <unicode hex="00FE"/>
  <anchor x="534" y="0" name="bottom"/>
  <anchor x="534" y="525" name="top"/>
  <outline>
    <contour>
      <point x="220" y="-220" type="line"/>
      <point x="324" y="-220" type="line"/>
      <point x="324" y="131" type="line"/>
      <point x="298" y="117" type="line"/>
      <point x="314" y="65"/>
      <point x="427" y="-9"/>
      <point x="567" y="-9" type="curve" smooth="yes"/>
      <point x="742" y="-9"/>
      <point x="879" y="104"/>
      <point x="879" y="263" type="curve" smooth="yes"/>
      <point x="879" y="422"/>
      <point x="743" y="534"/>
      <point x="564" y="534" type="curve" smooth="yes"/>
      <point x="436" y="534"/>
      <point x="323" y="467"/>
      <point x="308" y="414" type="curve"/>
      <point x="324" y="405" type="line"/>
      <point x="324" y="740" type="line"/>
      <point x="220" y="740" type="line"/>
    </contour>
    <contour>
      <point x="550" y="86" type="curve" smooth="yes"/>
      <point x="415" y="86"/>
      <point x="319" y="163"/>
      <point x="319" y="263" type="curve" smooth="yes"/>
      <point x="319" y="363"/>
      <point x="415" y="439"/>
      <point x="550" y="439" type="curve" smooth="yes"/>
      <point x="685" y="439"/>
      <point x="780" y="363"/>
      <point x="780" y="263" type="curve" smooth="yes"/>
      <point x="780" y="163"/>
      <point x="685" y="86"/>
    </contour>
  </outline>
</glyph>
<glyph name="eogonek" format="2">
  <advance width="931"/>
  <unicode hex="0119"/>
  <anchor x="466" y="525" name="top"/>
  <anchor x="476" y="0" name="bottom"/>
  <anchor x="711" y="0" name="ogonek"/>
  <outline>
    <contour>
      <point x="612" y="-200" type="curve" smooth="yes"/>
      <point x="664" y="-200"/>
      <point x="707" y="-171"/>
      <point x="725" y="-138" type="curve"/>
      <point x="669" y="-98" type="line"/>
      <point x="658" y="-114"/>
      <point x="646" y="-123"/>
      <point x="624" y="-123" type="curve" smooth="yes"/>
      <point x="601" y="-123"/>
      <point x="587" y="-107"/>
      <point x="587" y="-84" type="curve" smooth="yes"/>
      <point x="587" y="-33"/>
      <point x="635" y="3"/>
      <point x="731" y="51" type="curve"/>
      <point x="709" y="86" type="line"/>
      <point x="593" y="40"/>
      <point x="496" y="-9"/>
      <point x="496" y="-102" type="curve" smooth="yes"/>
      <point x="496" y="-155"/>
      <point x="539" y="-200"/>
    </contour>
    <component base="e"/>
  </outline>
</glyph>
<glyph name="Hbar" format="2">
  <advance width="1289"/>
  <unicode hex="0126"/>
  <anchor x="645" y="0" name="bottom"/>
  <anchor x="645" y="350" name="center"/>
  <anchor x="645" y="700" name="top"/>
  <anchor x="214" y="700" name="topleft"/>
  <outline>
    <contour>
      <point x="145" y="468" type="line"/>
      <point x="301" y="468" type="line"/>
      <point x="337" y="478" type="line"/>
      <point x="964" y="478" type="line"/>
      <point x="985" y="468" type="line"/>
      <point x="1144" y="468" type="line"/>
      <point x="1144" y="572" type="line"/>
      <point x="988" y="572" type="line"/>
      <point x="952" y="562" type="line"/>
      <point x="347" y="562" type="line"/>
      <point x="301" y="572" type="line"/>
      <point x="145" y="572" type="line"/>
    </contour>
    <component base="H" xOffset="110"/>
  </outline>
</glyph>
<glyph name="hbar" format="2">
  <advance width="1015"/>
  <unicode hex="0127"/>
  <anchor x="506" y="0" name="bottom"/>
  <anchor x="309" y="638" name="center"/>
  <anchor x="506" y="740" name="top"/>
  <outline>
    <contour>
      <point x="105" y="595" type="line"/>
      <point x="513" y="595" type="line"/>
      <point x="513" y="681" type="line"/>
      <point x="105" y="681" type="line"/>
    </contour>
    <component base="h"/>
  </outline>
</glyph>
<glyph name="kgreenlandic" format="2">
  <advance width="907"/>
  <unicode hex="0138"/>
  <anchor x="495" y="0" name="bottom"/>
  <anchor x="495" y="525" name="top"/>
  <outline>
    <contour>
      <point x="309" y="143" type="line"/>
      <point x="821" y="525" type="line"/>
      <point x="670" y="525" type="line"/>
      <point x="309" y="240" type="line"/>
    </contour>
    <contour>
      <point x="220" y="0" type="line"/>
      <point x="323" y="0" type="line"/>
      <point x="323" y="525" type="line"/>
      <point x="220" y="525" type="line"/>
    </contour>
    <contour>
      <point x="693" y="0" type="line"/>
      <point x="822" y="-1" type="line"/>
      <point x="505" y="329" type="line"/>
      <point x="430" y="282" type="line"/>
    </contour>
  </outline>
</glyph>
<glyph name="Lslash" format="2">
  <advance width="928"/>
  <unicode hex="0141"/>
  <anchor x="484" y="0" name="bottom"/>
  <anchor x="268" y="350" name="center"/>
  <anchor x="267" y="700" name="top"/>
  <anchor x="484" y="700" name="topright"/>
  <outline>
    <contour>
      <point x="69" y="226" type="line"/>
      <point x="633" y="439" type="line"/>
      <point x="601" y="536" type="line"/>
      <point x="40" y="318" type="line"/>
    </contour>
    <component base="L" xOffset="30"/>
  </outline>
</glyph>
<glyph name="lslash" format="2">
  <advance width="523"/>
  <unicode hex="0142"/>
  <anchor x="263" y="0" name="bottom"/>
  <anchor x="263" y="370" name="center"/>
  <anchor x="263" y="740" name="top"/>
  <anchor x="368" y="740" name="topright"/>
  <outline>
    <contour>
      <point x="88" y="294" type="line"/>
      <point x="462" y="389" type="line"/>
      <point x="433" y="478" type="line"/>
      <point x="62" y="386" type="line"/>
    </contour>
    <component base="l" xOffset="1"/>
  </outline>
</glyph>
<glyph name="Eng" format="2">
  <advance width="1121"/>
  <unicode hex="014A"/>
  <outline>
    <contour>
      <point x="669" y="-197" type="line"/>
      <point x="821" y="-197"/>
      <point x="939" y="-81"/>
      <point x="939" y="106" type="curve" smooth="yes"/>
      <point x="939" y="700" type="line"/>
      <point x="831" y="700" type="line"/>
      <point x="831" y="470" type="line" smooth="yes"/>
      <point x="831" y="361"/>
      <point x="835" y="218"/>
      <point x="851" y="118" type="curve"/>
      <point x="857" y="127" type="line"/>
      <point x="289" y="700" type="line"/>
      <point x="182" y="700" type="line"/>
      <point x="182" y="0" type="line"/>
      <point x="290" y="0" type="line"/>
      <point x="290" y="291" type="line" smooth="yes"/>
      <point x="290" y="346"/>
      <point x="281" y="455"/>
      <point x="270" y="566" type="curve"/>
      <point x="269" y="552" type="line"/>
      <point x="830" y="0" type="line"/>
      <point x="826" y="71" type="line"/>
      <point x="826" y="50" type="line" smooth="yes"/>
      <point x="826" y="-32"/>
      <point x="747" y="-95"/>
      <point x="630" y="-95" type="curve"/>
    </contour>
  </outline>
</glyph>
<glyph name="eng" format="2">
  <advance width="1015"/>
  <unicode hex="014B"/>
  <outline>
    <contour>
      <point x="545" y="-197" type="line"/>
      <point x="686" y="-197"/>
      <point x="795" y="-130"/>
      <point x="795" y="-25" type="curve" smooth="yes"/>
      <point x="795" y="310" type="line" smooth="yes"/>
      <point x="795" y="434"/>
      <point x="710" y="536"/>
      <point x="545" y="536" type="curve" smooth="yes"/>
      <point x="448" y="536"/>
      <point x="372" y="484"/>
      <point x="323" y="427" type="curve"/>
      <point x="323" y="525" type="line"/>
      <point x="220" y="525" type="line"/>
      <point x="220" y="0" type="line"/>
      <point x="323" y="0" type="line"/>
      <point x="323" y="278" type="line" smooth="yes"/>
      <point x="323" y="346"/>
      <point x="406" y="440"/>
      <point x="521" y="440" type="curve" smooth="yes"/>
      <point x="614" y="440"/>
      <point x="692" y="380"/>
      <point x="692" y="293" type="curve" smooth="yes"/>
      <point x="692" y="0" type="line" smooth="yes"/>
      <point x="692" y="-65"/>
      <point x="635" y="-105"/>
      <point x="506" y="-105" type="curve"/>
    </contour>
  </outline>
</glyph>
<glyph name="OE" format="2">
  <advance width="1472"/>
  <unicode hex="0152"/>
  <anchor x="734" y="0" name="bottom"/>
  <anchor x="734" y="700" name="top"/>
  <outline>
    <contour>
      <point x="525" y="0" type="curve" smooth="yes"/>
      <point x="1312" y="0" type="line"/>
      <point x="1312" y="104" type="line"/>
      <point x="839" y="104" type="line"/>
      <point x="839" y="307" type="line"/>
      <point x="1257" y="307" type="line"/>
      <point x="1257" y="411" type="line"/>
      <point x="839" y="411" type="line"/>
      <point x="839" y="596" type="line"/>
      <point x="1312" y="596" type="line"/>
      <point x="1312" y="700" type="line"/>
      <point x="545" y="700" type="line" smooth="yes"/>
      <point x="273" y="700"/>
      <point x="128" y="539"/>
      <point x="128" y="350" type="curve" smooth="yes"/>
      <point x="128" y="158"/>
      <point x="265" y="0"/>
    </contour>
    <contour>
      <point x="238" y="350" type="curve" smooth="yes"/>
      <point x="238" y="478"/>
      <point x="345" y="596"/>
      <point x="548" y="596" type="curve" smooth="yes"/>
      <point x="731" y="596" type="line"/>
      <point x="731" y="104" type="line"/>
      <point x="528" y="104" type="line" smooth="yes"/>
      <point x="339" y="104"/>
      <point x="238" y="221"/>
    </contour>
  </outline>
</glyph>
<glyph name="oe" format="2">
  <advance width="1531"/>
  <unicode hex="0153"/>
  <anchor x="773" y="0" name="bottom"/>
  <anchor x="773" y="525" name="top"/>
  <outline>
    <contour>
      <point x="478" y="-10" type="curve" smooth="yes"/>
      <point x="620" y="-10"/>
      <point x="732" y="45"/>
      <point x="787" y="132" type="curve"/>
      <point x="757" y="131" type="line"/>
      <point x="814" y="45"/>
      <point x="930" y="-10"/>
      <point x="1077" y="-10" type="curve" smooth="yes"/>
      <point x="1189" y="-10"/>
      <point x="1302" y="28"/>
      <point x="1362" y="69" type="curve"/>
      <point x="1317" y="147" type="line"/>
      <point x="1273" y="122"/>
      <point x="1205" y="86"/>
      <point x="1097" y="86" type="curve" smooth="yes"/>
      <point x="934" y="86"/>
      <point x="822" y="156"/>
      <point x="822" y="264" type="curve" smooth="yes"/>
      <point x="822" y="395"/>
      <point x="931" y="442"/>
      <point x="1068" y="442" type="curve" smooth="yes"/>
      <point x="1178" y="442"/>
      <point x="1282" y="389"/>
      <point x="1282" y="294" type="curve" smooth="yes"/>
      <point x="1282" y="281" type="line"/>
      <point x="1326" y="310" type="line"/>
      <point x="811" y="310" type="line"/>
      <point x="810" y="228" type="line"/>
      <point x="1385" y="228" type="line"/>
      <point x="1386" y="282" type="line" smooth="yes"/>
      <point x="1389" y="433"/>
      <point x="1243" y="536"/>
      <point x="1068" y="537" type="curve" smooth="yes"/>
      <point x="935" y="536"/>
      <point x="816" y="484"/>
      <point x="758" y="391" type="curve"/>
      <point x="789" y="392" type="line"/>
      <point x="733" y="480"/>
      <point x="621" y="536"/>
      <point x="478" y="536" type="curve" smooth="yes"/>
      <point x="273" y="536"/>
      <point x="130" y="422"/>
      <point x="130" y="263" type="curve" smooth="yes"/>
      <point x="130" y="104"/>
      <point x="273" y="-10"/>
    </contour>
    <contour>
      <point x="478" y="84" type="curve" smooth="yes"/>
      <point x="342" y="84"/>
      <point x="235" y="159"/>
      <point x="235" y="263" type="curve" smooth="yes"/>
      <point x="235" y="368"/>
      <point x="342" y="442"/>
      <point x="478" y="442" type="curve" smooth="yes"/>
      <point x="614" y="442"/>
      <point x="723" y="368"/>
      <point x="720" y="260" type="curve" smooth="yes"/>
      <point x="718" y="150"/>
      <point x="605" y="84"/>
    </contour>
  </outline>
</glyph>
<glyph name="Tbar" format="2">
  <advance width="846"/>
  <unicode hex="0166"/>
  <anchor x="423" y="0" name="bottom"/>
  <anchor x="423" y="350" name="center"/>
  <anchor x="423" y="700" name="top"/>
  <outline>
    <contour>
      <point x="219" y="308" type="line"/>
      <point x="627" y="308" type="line"/>
      <point x="627" y="394" type="line"/>
      <point x="219" y="394" type="line"/>
    </contour>
    <component base="T"/>
  </outline>
</glyph>
<glyph name="Uogonek" format="2">
  <advance width="1044"/>
  <unicode hex="0172"/>
  <anchor x="522" y="0" name="bottom"/>
  <anchor x="694" y="0" name="ogonek"/>
  <anchor x="522" y="700" name="top"/>
  <anchor x="942" y="700" name="topright"/>
  <outline>
    <contour>
      <point x="615" y="-200" type="curve" smooth="yes"/>
      <point x="669" y="-200"/>
      <point x="713" y="-166"/>
      <point x="724" y="-138" type="curve"/>
      <point x="668" y="-98" type="line"/>
      <point x="660" y="-111"/>
      <point x="648" y="-123"/>
      <point x="631" y="-123" type="curve" smooth="yes"/>
      <point x="610" y="-123"/>
      <point x="597" y="-108"/>
      <point x="597" y="-81" type="curve" smooth="yes"/>
      <point x="597" y="-21"/>
      <point x="676" y="22"/>
      <point x="703" y="37" type="curve"/>
      <point x="682" y="91" type="line"/>
      <point x="644" y="61"/>
      <point x="506" y="0"/>
      <point x="506" y="-99" type="curve" smooth="yes"/>
      <point x="506" y="-158"/>
      <point x="553" y="-200"/>
    </contour>
    <component base="U"/>
  </outline>
</glyph>
<glyph name="Nhookleft" format="2">
  <advance width="1121"/>
  <unicode hex="019D"/>
  <outline>
    <contour>
      <point x="40" y="-197" type="line"/>
      <point x="192" y="-197"/>
      <point x="310" y="-81"/>
      <point x="310" y="106" type="curve" smooth="yes"/>
      <point x="310" y="291" type="line" smooth="yes"/>
      <point x="310" y="346"/>
      <point x="301" y="453"/>
      <point x="290" y="566" type="curve"/>
      <point x="269" y="532" type="line"/>
      <point x="830" y="0" type="line"/>
      <point x="939" y="0" type="line"/>
      <point x="939" y="700" type="line"/>
      <point x="811" y="700" type="line"/>
      <point x="811" y="470" type="line" smooth="yes"/>
      <point x="811" y="361"/>
      <point x="815" y="218"/>
      <point x="831" y="118" type="curve"/>
      <point x="857" y="147" type="line"/>
      <point x="289" y="700" type="line"/>
      <point x="182" y="700" type="line"/>
      <point x="182" y="131" type="line" smooth="yes"/>
      <point x="182" y="-9"/>
      <point x="130" y="-95"/>
      <point x="1" y="-95" type="curve"/>
    </contour>
  </outline>
</glyph>
<glyph name="Ohorn" format="2">
  <advance width="1102"/>
  <unicode hex="01A0"/>
  <anchor x="551" y="0" name="bottom"/>
  <anchor x="551" y="700" name="top"/>
  <outline>
    <contour>
      <point x="551" y="-10" type="curve" smooth="yes"/>
      <point x="796" y="-10"/>
      <point x="974" y="149"/>
      <point x="974" y="350" type="curve" smooth="yes"/>
      <point x="974" y="477"/>
      <point x="903" y="587"/>
      <point x="790" y="651" type="curve"/>
      <point x="782" y="631" type="line"/>
      <point x="894" y="632"/>
      <point x="944" y="708"/>
      <point x="944" y="814" type="curve"/>
      <point x="852" y="814" type="line"/>
      <point x="852" y="724"/>
      <point x="808" y="694"/>
      <point x="733" y="694" type="curve" smooth="yes"/>
      <point x="704" y="694"/>
      <point x="674" y="697"/>
      <point x="644" y="702" type="curve" smooth="yes"/>
      <point x="614" y="707"/>
      <point x="583" y="710"/>
      <point x="551" y="710" type="curve" smooth="yes"/>
      <point x="304" y="710"/>
      <point x="128" y="551"/>
      <point x="128" y="350" type="curve" smooth="yes"/>
      <point x="128" y="149"/>
      <point x="304" y="-10"/>
    </contour>
    <contour>
      <point x="551" y="95" type="curve" smooth="yes"/>
      <point x="366" y="95"/>
      <point x="238" y="205"/>
      <point x="238" y="350" type="curve" smooth="yes"/>
      <point x="238" y="495"/>
      <point x="366" y="605"/>
      <point x="551" y="605" type="curve" smooth="yes"/>
      <point x="734" y="605"/>
      <point x="864" y="494"/>
      <point x="864" y="350" type="curve" smooth="yes"/>
      <point x="864" y="206"/>
      <point x="734" y="95"/>
    </contour>
  </outline>
</glyph>
<glyph name="ohorn" format="2">
  <advance width="955"/>
  <unicode hex="01A1"/>
  <anchor x="478" y="0" name="bottom"/>
  <anchor x="478" y="525" name="top"/>
  <outline>
    <contour>
      <point x="478" y="-10" type="curve" smooth="yes"/>
      <point x="682" y="-10"/>
      <point x="825" y="104"/>
      <point x="825" y="263" type="curve" smooth="yes"/>
      <point x="825" y="356"/>
      <point x="776" y="434"/>
      <point x="694" y="482" type="curve"/>
      <point x="686" y="459" type="line"/>
      <point x="787" y="467"/>
      <point x="812" y="543"/>
      <point x="812" y="639" type="curve"/>
      <point x="730" y="639" type="line"/>
      <point x="730" y="556"/>
      <point x="710" y="520"/>
      <point x="637" y="520" type="curve" smooth="yes"/>
      <point x="611" y="520"/>
      <point x="594" y="524"/>
      <point x="575" y="527" type="curve" smooth="yes"/>
      <point x="544" y="531"/>
      <point x="512" y="536"/>
      <point x="478" y="536" type="curve" smooth="yes"/>
      <point x="273" y="536"/>
      <point x="130" y="422"/>
      <point x="130" y="263" type="curve" smooth="yes"/>
      <point x="130" y="104"/>
      <point x="273" y="-10"/>
    </contour>
    <contour>
      <point x="478" y="84" type="curve" smooth="yes"/>
      <point x="342" y="84"/>
      <point x="232" y="159"/>
      <point x="235" y="263" type="curve"/>
      <point x="232" y="368"/>
      <point x="342" y="442"/>
      <point x="478" y="442" type="curve" smooth="yes"/>
      <point x="614" y="439"/>
      <point x="723" y="368"/>
      <point x="720" y="263" type="curve"/>
      <point x="723" y="159"/>
      <point x="614" y="84"/>
    </contour>
  </outline>
</glyph>
<glyph name="Uhorn" format="2">
  <advance width="1044"/>
  <unicode hex="01AF"/>
  <anchor x="522" y="0" name="bottom"/>
  <anchor x="522" y="700" name="top"/>
  <outline>
    <contour>
      <point x="522" y="-6" type="curve" smooth="yes"/>
      <point x="734" y="-6"/>
      <point x="874" y="139"/>
      <point x="874" y="335" type="curve" smooth="yes"/>
      <point x="874" y="682" type="line"/>
      <point x="844" y="644" type="line"/>
      <point x="939" y="644"/>
      <point x="984" y="718"/>
      <point x="984" y="814" type="curve"/>
      <point x="892" y="814" type="line"/>
      <point x="892" y="740"/>
      <point x="871" y="701"/>
      <point x="792" y="701" type="curve" smooth="yes"/>
      <point x="771" y="701" type="line"/>
      <point x="771" y="339" type="line" smooth="yes"/>
      <point x="771" y="200"/>
      <point x="665" y="99"/>
      <point x="522" y="99" type="curve" smooth="yes"/>
      <point x="386" y="99"/>
      <point x="278" y="200"/>
      <point x="278" y="339" type="curve" smooth="yes"/>
      <point x="278" y="701" type="line"/>
      <point x="170" y="701" type="line"/>
      <point x="170" y="335" type="line" smooth="yes"/>
      <point x="170" y="139"/>
      <point x="310" y="-6"/>
    </contour>
  </outline>
</glyph>
<glyph name="uhorn" format="2">
  <advance width="981"/>
  <unicode hex="01B0"/>
  <anchor x="491" y="0" name="bottom"/>
  <anchor x="491" y="525" name="top"/>
  <outline>
    <contour>
      <point x="434" y="-10" type="curve" smooth="yes"/>
      <point x="566" y="-10"/>
      <point x="656" y="51"/>
      <point x="690" y="109" type="curve"/>
      <point x="678" y="137" type="line"/>
      <point x="678" y="0" type="line"/>
      <point x="781" y="0" type="line"/>
      <point x="781" y="506" type="line"/>
      <point x="748" y="469" type="line"/>
      <point x="845" y="468"/>
      <point x="873" y="546"/>
      <point x="873" y="639" type="curve"/>
      <point x="791" y="639" type="line"/>
      <point x="791" y="559"/>
      <point x="775" y="525"/>
      <point x="678" y="525" type="curve"/>
      <point x="678" y="279" type="line" smooth="yes"/>
      <point x="678" y="163"/>
      <point x="585" y="93"/>
      <point x="476" y="93" type="curve" smooth="yes"/>
      <point x="355" y="93"/>
      <point x="303" y="163"/>
      <point x="303" y="299" type="curve" smooth="yes"/>
      <point x="303" y="525" type="line"/>
      <point x="200" y="525" type="line"/>
      <point x="200" y="261" type="line" smooth="yes"/>
      <point x="200" y="92"/>
      <point x="295" y="-10"/>
    </contour>
  </outline>
</glyph>
<glyph name="Oogonek" format="2">
  <advance width="1102"/>
  <unicode hex="01EA"/>
  <anchor x="551" y="700" name="top"/>
  <anchor x="551" y="0" name="bottom"/>
  <anchor x="551" y="350" name="center"/>
  <anchor x="768" y="0" name="ogonek"/>
  <anchor x="100" y="700" name="topleft"/>
  <anchor x="1002" y="700" name="topright"/>
  <outline>
    <contour>
      <point x="627" y="-200" type="curve" smooth="yes"/>
      <point x="681" y="-200"/>
      <point x="725" y="-166"/>
      <point x="736" y="-138" type="curve"/>
      <point x="680" y="-98" type="line"/>
      <point x="672" y="-111"/>
      <point x="660" y="-123"/>
      <point x="643" y="-123" type="curve" smooth="yes"/>
      <point x="622" y="-123"/>
      <point x="609" y="-108"/>
      <point x="609" y="-86" type="curve" smooth="yes"/>
      <point x="609" y="-21"/>
      <point x="725" y="16"/>
      <point x="765" y="37" type="curve"/>
      <point x="744" y="91" type="line"/>
      <point x="665" y="61"/>
      <point x="518" y="0"/>
      <point x="518" y="-99" type="curve" smooth="yes"/>
      <point x="518" y="-158"/>
      <point x="565" y="-200"/>
    </contour>
    <component base="O"/>
  </outline>
</glyph>
<glyph name="oogonek" format="2">
  <advance width="955"/>
  <unicode hex="01EB"/>
  <anchor x="478" y="525" name="top"/>
  <anchor x="478" y="0" name="bottom"/>
  <anchor x="478" y="263" name="center"/>
  <anchor x="788" y="10" name="ogonek"/>
  <anchor x="845" y="525" name="topright"/>
  <outline>
    <contour>
      <point x="589" y="-200" type="curve" smooth="yes"/>
      <point x="641" y="-200"/>
      <point x="684" y="-171"/>
      <point x="702" y="-138" type="curve"/>
      <point x="646" y="-98" type="line"/>
      <point x="635" y="-114"/>
      <point x="621" y="-123"/>
      <point x="603" y="-123" type="curve" smooth="yes"/>
      <point x="580" y="-123"/>
      <point x="564" y="-107"/>
      <point x="564" y="-80" type="curve" smooth="yes"/>
      <point x="564" y="-30"/>
      <point x="620" y="4"/>
      <point x="687" y="40" type="curve"/>
      <point x="686" y="86" type="line"/>
      <point x="570" y="40"/>
      <point x="473" y="-9"/>
      <point x="473" y="-102" type="curve" smooth="yes"/>
      <point x="473" y="-155"/>
      <point x="516" y="-200"/>
    </contour>
    <component base="o"/>
  </outline>
</glyph>
<glyph name="jdotless" format="2">
  <advance width="599"/>
  <unicode hex="0237"/>
  <anchor x="338" y="-230" name="bottom"/>
  <anchor x="338" y="525" name="top"/>
  <outline>
    <contour>
      <point x="129" y="-197" type="line"/>
      <point x="276" y="-197"/>
      <point x="389" y="-81"/>
      <point x="389" y="106" type="curve" smooth="yes"/>
      <point x="389" y="525" type="line"/>
      <point x="286" y="525" type="line"/>
      <point x="286" y="131" type="line" smooth="yes"/>
      <point x="286" y="-16"/>
      <point x="226" y="-105"/>
      <point x="90" y="-105" type="curve"/>
    </contour>
  </outline>
</glyph>
<glyph name="schwa" format="2">
  <advance width="931"/>
  <unicode hex="0259"/>
  <outline>
    <contour>
      <point x="463" y="-12" type="curve" smooth="yes"/>
      <point x="650" y="-11"/>
      <point x="811" y="93"/>
      <point x="811" y="268" type="curve" smooth="yes"/>
      <point x="811" y="423"/>
      <point x="663" y="535"/>
      <point x="454" y="535" type="curve" smooth="yes"/>
      <point x="342" y="535"/>
      <point x="229" y="497"/>
      <point x="169" y="456" type="curve"/>
      <point x="214" y="378" type="line"/>
      <point x="258" y="403"/>
      <point x="326" y="439"/>
      <point x="434" y="439" type="curve" smooth="yes"/>
      <point x="597" y="439"/>
      <point x="709" y="369"/>
      <point x="709" y="261" type="curve" smooth="yes"/>
      <point x="709" y="130"/>
      <point x="600" y="83"/>
      <point x="463" y="83" type="curve" smooth="yes"/>
      <point x="359" y="83"/>
      <point x="261" y="130"/>
      <point x="250" y="198" type="curve"/>
      <point x="250" y="222" type="line"/>
      <point x="235" y="215" type="line"/>
      <point x="738" y="215" type="line"/>
      <point x="715" y="297" type="line"/>
      <point x="146" y="297" type="line"/>
      <point x="145" y="243" type="line" smooth="yes"/>
      <point x="145" y="92"/>
      <point x="288" y="-11"/>
    </contour>
  </outline>
</glyph>
<glyph name="nhookleft" format="2">
  <advance width="1091"/>
  <unicode hex="0272"/>
  <outline>
    <contour>
      <point x="129" y="-197" type="line"/>
      <point x="281" y="-197"/>
      <point x="399" y="-130"/>
      <point x="399" y="-25" type="curve" smooth="yes"/>
      <point x="399" y="278" type="line" smooth="yes"/>
      <point x="399" y="346"/>
      <point x="482" y="440"/>
      <point x="597" y="440" type="curve" smooth="yes"/>
      <point x="690" y="440"/>
      <point x="768" y="380"/>
      <point x="768" y="293" type="curve" smooth="yes"/>
      <point x="768" y="0" type="line"/>
      <point x="871" y="0" type="line"/>
      <point x="871" y="310" type="line" smooth="yes"/>
      <point x="871" y="434"/>
      <point x="786" y="536"/>
      <point x="621" y="536" type="curve" smooth="yes"/>
      <point x="512" y="536"/>
      <point x="432" y="472"/>
      <point x="382" y="407" type="curve"/>
      <point x="399" y="382" type="line"/>
      <point x="399" y="525" type="line"/>
      <point x="296" y="525" type="line"/>
      <point x="296" y="0" type="line" smooth="yes"/>
      <point x="296" y="-89"/>
      <point x="180" y="-105"/>
      <point x="90" y="-105" type="curve"/>
    </contour>
  </outline>
</glyph>
<glyph name="ringhalfleft" format="2">
  <advance width="221"/>
  <unicode hex="02BF"/>
  <outline>
    <contour>
      <point x="142" y="530" type="curve"/>
      <point x="142" y="591" type="line"/>
      <point x="114" y="591"/>
      <point x="94" y="609.667"/>
      <point x="94" y="635" type="curve" smooth="yes"/>
      <point x="94" y="668.333"/>
      <point x="122" y="679"/>
      <point x="142" y="679" type="curve"/>
      <point x="140" y="741" type="line"/>
      <point x="82.667" y="739.667"/>
      <point x="32" y="692.333"/>
      <point x="32" y="635" type="curve" smooth="yes"/>
      <point x="32" y="569.667"/>
      <point x="95.333" y="530"/>
    </contour>
  </outline>
</glyph>
<glyph name="verticallinelowmod" format="2">
  <advance width="231"/>
  <unicode hex="02CC"/>
  <outline>
    <contour>
      <point x="67" y="-147" type="line"/>
      <point x="164" y="-147" type="line"/>
      <point x="164" y="197" type="line"/>
      <point x="67" y="197" type="line"/>
    </contour>
  </outline>
</glyph>
<glyph name="macroncomb" format="2">
  <unicode hex="0304"/>
  <anchor x="250" y="525" name="_top"/>
  <anchor x="250" y="710" name="top"/>
  <outline>
    <contour>
      <point x="98" y="642" type="line"/>
      <point x="402" y="642" type="line"/>
      <point x="402" y="717" type="line"/>
      <point x="98" y="717" type="line"/>
    </contour>
  </outline>
</glyph>
<glyph name="dblgravecomb" format="2">
  <unicode hex="030F"/>
  <anchor x="251" y="525" name="_top"/>
  <anchor x="251" y="700" name="top"/>
  <outline>
    <contour>
      <point x="420" y="596" type="line"/>
      <point x="454" y="647" type="line"/>
      <point x="311" y="772" type="line"/>
      <point x="246" y="690" type="line"/>
    </contour>
    <contour>
      <point x="221" y="596" type="line"/>
      <point x="255" y="647" type="line"/>
      <point x="112" y="772" type="line"/>
      <point x="47" y="690" type="line"/>
    </contour>
  </outline>
</glyph>
<glyph name="breveinvertedcomb" format="2">
  <unicode hex="0311"/>
  <anchor x="250" y="525" name="_top"/>
  <anchor x="250" y="710" name="top"/>
  <outline>
    <contour>
      <point x="162" y="599" type="line"/>
      <point x="179" y="651"/>
      <point x="210" y="684"/>
      <point x="250" y="684" type="curve" smooth="yes"/>
      <point x="290" y="684"/>
      <point x="321" y="651"/>
      <point x="338" y="599" type="curve"/>
      <point x="412" y="611" type="line"/>
      <point x="393" y="706"/>
      <point x="335" y="765"/>
      <point x="250" y="765" type="curve" smooth="yes"/>
      <point x="165" y="765"/>
      <point x="107" y="706"/>
      <point x="88" y="611" type="curve"/>
    </contour>
  </outline>
</glyph>
<glyph name="horncomb" format="2">
  <unicode hex="031B"/>
  <anchor x="24" y="502" name="_topright"/>
  <anchor x="224" y="616" name="topright"/>
  <outline>
    <contour>
      <point x="24" y="423" type="line"/>
      <point x="166" y="423"/>
      <point x="204" y="507"/>
      <point x="204" y="616" type="curve"/>
      <point x="122" y="616" type="line"/>
      <point x="122" y="536"/>
      <point x="106" y="502"/>
      <point x="24" y="502" type="curve"/>
    </contour>
  </outline>
</glyph>
<glyph name="cedillacomb" format="2">
  <unicode hex="0327"/>
  <anchor x="251" y="0" name="_bottom"/>
  <anchor x="251" y="-244" name="bottom"/>
  <outline>
    <contour>
      <point x="159" y="-244" type="line"/>
      <point x="241" y="-246"/>
      <point x="349" y="-212"/>
      <point x="349" y="-139" type="curve" smooth="yes"/>
      <point x="349" y="-83"/>
      <point x="301" y="-58"/>
      <point x="249" y="-46" type="curve"/>
      <point x="292" y="24" type="line"/>
      <point x="233" y="24" type="line"/>
      <point x="164" y="-80" type="line"/>
      <point x="174" y="-100" type="line"/>
      <point x="208" y="-101"/>
      <point x="273" y="-115"/>
      <point x="273" y="-145" type="curve" smooth="yes"/>
      <point x="273" y="-182"/>
      <point x="211" y="-195"/>
      <point x="152" y="-196" type="curve"/>
    </contour>
  </outline>
</glyph>
<glyph name="pi" format="2">
  <advance width="994"/>
  <unicode hex="03C0"/>
  <outline>
    <contour>
      <point x="264" y="0" type="line"/>
      <point x="355" y="0" type="line"/>
      <point x="355" y="438" type="line"/>
      <point x="342" y="425" type="line"/>
      <point x="649" y="425" type="line"/>
      <point x="639" y="460" type="line"/>
      <point x="639" y="0" type="line"/>
      <point x="730" y="0" type="line"/>
      <point x="730" y="438" type="line"/>
      <point x="721" y="425" type="line"/>
      <point x="874" y="425" type="line"/>
      <point x="874" y="526" type="line"/>
      <point x="120" y="526" type="line"/>
      <point x="120" y="425" type="line"/>
      <point x="281" y="425" type="line"/>
      <point x="264" y="476" type="line"/>
    </contour>
  </outline>
</glyph>
<glyph name="Germandbls" format="2">
  <advance width="1089"/>
  <unicode hex="1E9E"/>
  <anchor x="550" y="0" name="bottom"/>
  <anchor x="550" y="700" name="top"/>
  <outline>
    <contour>
      <point x="721" y="-10" type="curve" smooth="yes"/>
      <point x="866" y="-10"/>
      <point x="961" y="77"/>
      <point x="961" y="184" type="curve" smooth="yes"/>
      <point x="961" y="300"/>
      <point x="882" y="334"/>
      <point x="769" y="373" type="curve" smooth="yes"/>
      <point x="678" y="404"/>
      <point x="618" y="433"/>
      <point x="618" y="486" type="curve" smooth="yes"/>
      <point x="618" y="567"/>
      <point x="735" y="593"/>
      <point x="885" y="609" type="curve"/>
      <point x="875" y="686" type="line"/>
      <point x="779" y="714"/>
      <point x="702" y="726"/>
      <point x="605" y="726" type="curve" smooth="yes"/>
      <point x="345" y="726"/>
      <point x="184" y="572"/>
      <point x="183" y="257" type="curve" smooth="yes"/>
      <point x="182" y="0" type="line"/>
      <point x="290" y="0" type="line"/>
      <point x="292" y="263" type="line" smooth="yes"/>
      <point x="294" y="531"/>
      <point x="444" y="637"/>
      <point x="605" y="637" type="curve" smooth="yes"/>
      <point x="685" y="637"/>
      <point x="753" y="622"/>
      <point x="785" y="613" type="curve"/>
      <point x="785" y="653" type="line"/>
      <point x="648" y="662"/>
      <point x="512" y="597"/>
      <point x="512" y="469" type="curve" smooth="yes"/>
      <point x="512" y="372"/>
      <point x="595" y="314"/>
      <point x="693" y="283" type="curve" smooth="yes"/>
      <point x="795" y="251"/>
      <point x="857" y="227"/>
      <point x="857" y="173" type="curve" smooth="yes"/>
      <point x="857" y="116"/>
      <point x="797" y="87"/>
      <point x="721" y="87" type="curve" smooth="yes"/>
      <point x="638" y="87"/>
      <point x="578" y="127"/>
      <point x="526" y="163" type="curve"/>
      <point x="459" y="83" type="line"/>
      <point x="535" y="24"/>
      <point x="614" y="-10"/>
    </contour>
  </outline>
</glyph>
<glyph name="endash" format="2">
  <advance width="718"/>
  <unicode hex="2013"/>
  <outline>
    <contour>
      <point x="125" y="243" type="line"/>
      <point x="593" y="243" type="line"/>
      <point x="593" y="336" type="line"/>
      <point x="125" y="336" type="line"/>
    </contour>
  </outline>
</glyph>
<glyph name="emdash" format="2">
  <advance width="1082"/>
  <unicode hex="2014"/>
  <outline>
    <contour>
      <point x="125" y="243" type="line"/>
      <point x="957" y="243" type="line"/>
      <point x="957" y="337" type="line"/>
      <point x="125" y="337" type="line"/>
    </contour>
  </outline>
</glyph>
<glyph name="quoteleft" format="2">
  <advance width="341"/>
  <unicode hex="2018"/>
  <outline>
    <contour>
      <point x="225" y="401" type="curve" smooth="yes"/>
      <point x="274" y="401"/>
      <point x="315" y="424"/>
      <point x="315" y="473" type="curve" smooth="yes"/>
      <point x="315" y="512"/>
      <point x="280" y="528"/>
      <point x="252" y="545" type="curve" smooth="yes"/>
      <point x="231" y="557"/>
      <point x="212" y="570"/>
      <point x="212" y="593" type="curve" smooth="yes"/>
      <point x="212" y="622"/>
      <point x="257" y="659"/>
      <point x="321" y="696" type="curve"/>
      <point x="273" y="751" type="line"/>
      <point x="185" y="712"/>
      <point x="90" y="623"/>
      <point x="90" y="543" type="curve" smooth="yes"/>
      <point x="90" y="464"/>
      <point x="157" y="401"/>
    </contour>
  </outline>
</glyph>
<glyph name="quoteright" format="2">
  <advance width="341"/>
  <unicode hex="2019"/>
  <outline>
    <contour>
      <point x="68" y="390" type="line"/>
      <point x="156" y="429"/>
      <point x="251" y="518"/>
      <point x="251" y="598" type="curve" smooth="yes"/>
      <point x="251" y="677"/>
      <point x="184" y="740"/>
      <point x="116" y="740" type="curve" smooth="yes"/>
      <point x="67" y="740"/>
      <point x="26" y="717"/>
      <point x="26" y="668" type="curve" smooth="yes"/>
      <point x="26" y="629"/>
      <point x="61" y="613"/>
      <point x="89" y="596" type="curve" smooth="yes"/>
      <point x="110" y="584"/>
      <point x="129" y="571"/>
      <point x="129" y="548" type="curve" smooth="yes"/>
      <point x="129" y="519"/>
      <point x="84" y="482"/>
      <point x="20" y="445" type="curve"/>
    </contour>
  </outline>
</glyph>
<glyph name="bullet" format="2">
  <advance width="623"/>
  <unicode hex="2022"/>
  <outline>
    <contour>
      <point x="311" y="216" type="curve" smooth="yes"/>
      <point x="386" y="216"/>
      <point x="448" y="276"/>
      <point x="448" y="351" type="curve" smooth="yes"/>
      <point x="448" y="428"/>
      <point x="384" y="488"/>
      <point x="311" y="488" type="curve" smooth="yes"/>
      <point x="238" y="488"/>
      <point x="175" y="428"/>
      <point x="175" y="351" type="curve" smooth="yes"/>
      <point x="175" y="276"/>
      <point x="236" y="216"/>
    </contour>
  </outline>
</glyph>
<glyph name="perthousand" format="2">
  <advance width="1612"/>
  <unicode hex="2030"/>
  <outline>
    <contour>
      <point x="260" y="0" type="line"/>
      <point x="361" y="0" type="line"/>
      <point x="850" y="700" type="line"/>
      <point x="742" y="700" type="line"/>
    </contour>
    <contour>
      <point x="273" y="269" type="curve" smooth="yes"/>
      <point x="381" y="269"/>
      <point x="457" y="368"/>
      <point x="457" y="488" type="curve" smooth="yes"/>
      <point x="457" y="611"/>
      <point x="386" y="709"/>
      <point x="274" y="709" type="curve" smooth="yes"/>
      <point x="161" y="709"/>
      <point x="90" y="611"/>
      <point x="90" y="488" type="curve" smooth="yes"/>
      <point x="90" y="367"/>
      <point x="161" y="269"/>
    </contour>
    <contour>
      <point x="274" y="359" type="curve" smooth="yes"/>
      <point x="221" y="359"/>
      <point x="193" y="413"/>
      <point x="193" y="488" type="curve" smooth="yes"/>
      <point x="193" y="560"/>
      <point x="221" y="618"/>
      <point x="273" y="618" type="curve" smooth="yes"/>
      <point x="325" y="618"/>
      <point x="353" y="563"/>
      <point x="353" y="488" type="curve" smooth="yes"/>
      <point x="353" y="416"/>
      <point x="326" y="359"/>
    </contour>
    <contour>
      <point x="875" y="-16" type="curve" smooth="yes"/>
      <point x="983" y="-16"/>
      <point x="1059" y="83"/>
      <point x="1059" y="203" type="curve" smooth="yes"/>
      <point x="1059" y="326"/>
      <point x="988" y="424"/>
      <point x="876" y="424" type="curve" smooth="yes"/>
      <point x="763" y="424"/>
      <point x="692" y="326"/>
      <point x="692" y="203" type="curve" smooth="yes"/>
      <point x="692" y="82"/>
      <point x="763" y="-16"/>
    </contour>
    <contour>
      <point x="876" y="74" type="curve" smooth="yes"/>
      <point x="823" y="74"/>
      <point x="795" y="128"/>
      <point x="795" y="203" type="curve" smooth="yes"/>
      <point x="795" y="275"/>
      <point x="823" y="333"/>
      <point x="875" y="333" type="curve" smooth="yes"/>
      <point x="927" y="333"/>
      <point x="955" y="278"/>
      <point x="955" y="203" type="curve" smooth="yes"/>
      <point x="955" y="131"/>
      <point x="928" y="74"/>
    </contour>
    <contour>
      <point x="1328" y="-16" type="curve" smooth="yes"/>
      <point x="1436" y="-16"/>
      <point x="1512" y="83"/>
      <point x="1512" y="203" type="curve" smooth="yes"/>
      <point x="1512" y="326"/>
      <point x="1441" y="424"/>
      <point x="1329" y="424" type="curve" smooth="yes"/>
      <point x="1216" y="424"/>
      <point x="1145" y="326"/>
      <point x="1145" y="203" type="curve" smooth="yes"/>
      <point x="1145" y="82"/>
      <point x="1216" y="-16"/>
    </contour>
    <contour>
      <point x="1329" y="74" type="curve" smooth="yes"/>
      <point x="1277" y="74"/>
      <point x="1248" y="128"/>
      <point x="1248" y="203" type="curve" smooth="yes"/>
      <point x="1248" y="275"/>
      <point x="1276" y="333"/>
      <point x="1328" y="333" type="curve" smooth="yes"/>
      <point x="1381" y="333"/>
      <point x="1408" y="278"/>
      <point x="1408" y="203" type="curve" smooth="yes"/>
      <point x="1408" y="131"/>
      <point x="1382" y="74"/>
    </contour>
  </outline>
</glyph>
<glyph name="guilsinglleft" format="2">
  <advance width="561"/>
  <unicode hex="2039"/>
  <outline>
    <contour>
      <point x="338" y="50" type="line"/>
      <point x="411" y="105" type="line"/>
      <point x="232" y="276" type="line"/>
      <point x="231" y="245" type="line"/>
      <point x="410" y="416" type="line"/>
      <point x="337" y="471" type="line"/>
      <point x="110" y="259" type="line"/>
      <point x="110" y="257" type="line"/>
    </contour>
  </outline>
</glyph>
<glyph name="guilsinglright" format="2">
  <advance width="561"/>
  <unicode hex="203A"/>
  <outline>
    <contour>
      <point x="224" y="50" type="line"/>
      <point x="451" y="262" type="line"/>
      <point x="451" y="264" type="line"/>
      <point x="223" y="471" type="line"/>
      <point x="150" y="416" type="line"/>
      <point x="329" y="245" type="line"/>
      <point x="330" y="276" type="line"/>
      <point x="151" y="105" type="line"/>
    </contour>
  </outline>
</glyph>
<glyph name="fraction" format="2">
  <advance width="880"/>
  <unicode hex="2044"/>
  <outline>
    <contour>
      <point x="150" y="0" type="line"/>
      <point x="251" y="0" type="line"/>
      <point x="740" y="700" type="line"/>
      <point x="639" y="700" type="line"/>
    </contour>
  </outline>
</glyph>
<glyph name="colonsign" format="2">
  <advance width="981"/>
  <unicode hex="20A1"/>
  <anchor x="486" y="0" name="bottom"/>
  <anchor x="486" y="700" name="top"/>
  <outline>
    <contour>
      <point x="490" y="-159" type="line"/>
      <point x="918" y="720" type="line"/>
      <point x="825" y="760" type="line"/>
      <point x="393" y="-113" type="line"/>
    </contour>
    <contour>
      <point x="310" y="-116" type="line"/>
      <point x="738" y="763" type="line"/>
      <point x="645" y="803" type="line"/>
      <point x="213" y="-70" type="line"/>
    </contour>
    <component base="C"/>
  </outline>
</glyph>
<glyph name="franc" format="2">
  <advance width="896"/>
  <unicode hex="20A3"/>
  <anchor x="445" y="0" name="bottom"/>
  <anchor x="445" y="700" name="top"/>
  <outline>
    <contour>
      <point x="81" y="130" type="line"/>
      <point x="489" y="130" type="line"/>
      <point x="489" y="216" type="line"/>
      <point x="81" y="216" type="line"/>
    </contour>
    <component base="F"/>
  </outline>
</glyph>
<glyph name="lira" format="2">
  <advance width="940"/>
  <unicode hex="20A4"/>
  <outline>
    <contour>
      <point x="304" y="53" type="line"/>
      <point x="339" y="90"/>
      <point x="385" y="147"/>
      <point x="385" y="224" type="curve" smooth="yes"/>
      <point x="385" y="261"/>
      <point x="370" y="308"/>
      <point x="355" y="353" type="curve" smooth="yes"/>
      <point x="339" y="400"/>
      <point x="324" y="446"/>
      <point x="324" y="486" type="curve" smooth="yes"/>
      <point x="324" y="555"/>
      <point x="376" y="602"/>
      <point x="500" y="602" type="curve" smooth="yes"/>
      <point x="579" y="602"/>
      <point x="638" y="578"/>
      <point x="685" y="534" type="curve"/>
      <point x="759" y="605" type="line"/>
      <point x="722" y="662"/>
      <point x="636" y="710"/>
      <point x="500" y="710" type="curve" smooth="yes"/>
      <point x="316" y="710"/>
      <point x="204" y="618"/>
      <point x="204" y="487" type="curve" smooth="yes"/>
      <point x="204" y="443"/>
      <point x="218" y="398"/>
      <point x="233" y="353" type="curve" smooth="yes"/>
      <point x="249" y="305"/>
      <point x="265" y="254"/>
      <point x="265" y="201" type="curve" smooth="yes"/>
      <point x="265" y="136"/>
      <point x="237" y="87"/>
      <point x="212" y="74" type="curve"/>
    </contour>
    <contour>
      <point x="655" y="-21" type="curve" smooth="yes"/>
      <point x="718" y="-21"/>
      <point x="779" y="8"/>
      <point x="820" y="57" type="curve"/>
      <point x="768" y="138" type="line"/>
      <point x="743" y="113"/>
      <point x="703" y="83"/>
      <point x="655" y="83" type="curve" smooth="yes"/>
      <point x="610" y="83"/>
      <point x="560" y="97"/>
      <point x="508" y="112" type="curve" smooth="yes"/>
      <point x="447" y="131"/>
      <point x="381" y="150"/>
      <point x="317" y="150" type="curve" smooth="yes"/>
      <point x="236" y="150"/>
      <point x="169" y="125"/>
      <point x="120" y="81" type="curve"/>
      <point x="160" y="-6" type="line"/>
      <point x="192" y="15"/>
      <point x="249" y="46"/>
      <point x="304" y="46" type="curve" smooth="yes"/>
      <point x="347" y="46"/>
      <point x="413" y="28"/>
      <point x="481" y="11" type="curve" smooth="yes"/>
      <point x="544" y="-5"/>
      <point x="608" y="-21"/>
    </contour>
    <contour>
      <point x="136" y="210" type="line"/>
      <point x="683" y="210" type="line"/>
      <point x="683" y="312" type="line"/>
      <point x="136" y="312" type="line"/>
    </contour>
    <contour>
      <point x="134" y="350" type="line"/>
      <point x="682" y="350" type="line"/>
      <point x="682" y="452" type="line"/>
      <point x="134" y="452" type="line"/>
    </contour>
  </outline>
</glyph>
<glyph name="naira" format="2">
  <advance width="1121"/>
  <unicode hex="20A6"/>
  <anchor x="561" y="0" name="bottom"/>
  <anchor x="561" y="700" name="top"/>
  <outline>
    <contour>
      <point x="78" y="297" type="line"/>
      <point x="200" y="297" type="line"/>
      <point x="230" y="304" type="line"/>
      <point x="864" y="304" type="line"/>
      <point x="905" y="297" type="line"/>
      <point x="1043" y="297" type="line"/>
      <point x="1043" y="407" type="line"/>
      <point x="910" y="407" type="line"/>
      <point x="868" y="400" type="line"/>
      <point x="236" y="400" type="line"/>
      <point x="202" y="407" type="line"/>
      <point x="78" y="407" type="line"/>
    </contour>
    <component base="N"/>
  </outline>
</glyph>
<glyph name="won" format="2">
  <advance width="1276"/>
  <unicode hex="20A9"/>
  <anchor x="638" y="0" name="bottom"/>
  <anchor x="638" y="700" name="top"/>
  <outline>
    <contour>
      <point x="101" y="322" type="line"/>
      <point x="244" y="322" type="line"/>
      <point x="282" y="336" type="line"/>
      <point x="1000" y="336" type="line"/>
      <point x="1029" y="322" type="line"/>
      <point x="1175" y="322" type="line"/>
      <point x="1175" y="431" type="line"/>
      <point x="1072" y="431" type="line"/>
      <point x="1036" y="417" type="line"/>
      <point x="253" y="417" type="line"/>
      <point x="220" y="431" type="line"/>
      <point x="101" y="431" type="line"/>
    </contour>
    <component base="W"/>
  </outline>
</glyph>
<glyph name="euro" format="2">
  <advance width="901"/>
  <unicode hex="20AC"/>
  <outline>
    <contour>
      <point x="554" y="-10" type="curve" smooth="yes"/>
      <point x="637" y="-10"/>
      <point x="721" y="9"/>
      <point x="786" y="37" type="curve"/>
      <point x="736" y="136" type="line"/>
      <point x="683" y="113"/>
      <point x="621" y="101"/>
      <point x="554" y="101" type="curve" smooth="yes"/>
      <point x="394" y="101"/>
      <point x="264" y="187"/>
      <point x="264" y="350" type="curve" smooth="yes"/>
      <point x="264" y="497"/>
      <point x="387" y="594"/>
      <point x="554" y="594" type="curve" smooth="yes"/>
      <point x="621" y="594"/>
      <point x="684" y="581"/>
      <point x="736" y="560" type="curve"/>
      <point x="785" y="659" type="line"/>
      <point x="720" y="688"/>
      <point x="637" y="706"/>
      <point x="554" y="706" type="curve" smooth="yes"/>
      <point x="323" y="706"/>
      <point x="147" y="555"/>
      <point x="147" y="350" type="curve" smooth="yes"/>
      <point x="147" y="122"/>
      <point x="337" y="-10"/>
    </contour>
    <contour>
      <point x="542" y="221" type="line"/>
      <point x="542" y="314" type="line"/>
      <point x="50" y="316" type="line"/>
      <point x="50" y="222" type="line"/>
    </contour>
    <contour>
      <point x="542" y="367" type="line"/>
      <point x="542" y="460" type="line"/>
      <point x="50" y="461" type="line"/>
      <point x="50" y="368" type="line"/>
    </contour>
  </outline>
</glyph>
<glyph name="guarani" format="2">
  <advance width="1082"/>
  <unicode hex="20B2"/>
  <outline>
    <contour>
      <point x="544" y="-10" type="curve" smooth="yes"/>
      <point x="791" y="-10"/>
      <point x="962" y="92"/>
      <point x="962" y="303" type="curve" smooth="yes"/>
      <point x="962" y="310"/>
      <point x="962" y="318"/>
      <point x="958" y="349" type="curve"/>
      <point x="558" y="349" type="line"/>
      <point x="558" y="244" type="line"/>
      <point x="857" y="244" type="line"/>
      <point x="841" y="266" type="line"/>
      <point x="842" y="253" type="line" smooth="yes"/>
      <point x="842" y="161"/>
      <point x="716" y="95"/>
      <point x="553" y="95" type="curve" smooth="yes"/>
      <point x="394" y="95"/>
      <point x="243" y="173"/>
      <point x="243" y="350" type="curve" smooth="yes"/>
      <point x="243" y="493"/>
      <point x="381" y="601"/>
      <point x="560" y="601" type="curve" smooth="yes"/>
      <point x="660" y="601"/>
      <point x="750" y="563"/>
      <point x="822" y="508" type="curve"/>
      <point x="892" y="587" type="line"/>
      <point x="835" y="648"/>
      <point x="711" y="706"/>
      <point x="560" y="706" type="curve" smooth="yes"/>
      <point x="319" y="706"/>
      <point x="128" y="551"/>
      <point x="128" y="350" type="curve" smooth="yes"/>
      <point x="128" y="113"/>
      <point x="323" y="-10"/>
    </contour>
    <contour>
      <point x="501" y="-136" type="line"/>
      <point x="618" y="-136" type="line"/>
      <point x="618" y="797" type="line"/>
      <point x="501" y="797" type="line"/>
    </contour>
  </outline>
</glyph>
<glyph name="cedi" format="2">
  <advance width="981"/>
  <unicode hex="20B5"/>
  <anchor x="526" y="0" name="bottom"/>
  <anchor x="532" y="700" name="top"/>
  <outline>
    <contour>
      <point x="458" y="-81" type="line"/>
      <point x="585" y="-81" type="line"/>
      <point x="585" y="21" type="line"/>
      <point x="578" y="66" type="line"/>
      <point x="578" y="632" type="line"/>
      <point x="585" y="670" type="line"/>
      <point x="585" y="766" type="line"/>
      <point x="458" y="766" type="line"/>
      <point x="458" y="663" type="line"/>
      <point x="465" y="627" type="line"/>
      <point x="465" y="73" type="line"/>
      <point x="458" y="18" type="line"/>
    </contour>
    <component base="C"/>
  </outline>
</glyph>
<glyph name="rupeeIndian" format="2">
  <advance width="808"/>
  <unicode hex="20B9"/>
  <outline>
    <contour>
      <point x="256" y="247" type="line"/>
      <point x="319" y="247" type="line" smooth="yes"/>
      <point x="482" y="247"/>
      <point x="610" y="350"/>
      <point x="610" y="457" type="curve" smooth="yes"/>
      <point x="610" y="569"/>
      <point x="508" y="640"/>
      <point x="409" y="640" type="curve"/>
      <point x="436" y="580" type="line"/>
      <point x="678" y="580" type="line"/>
      <point x="678" y="700" type="line"/>
      <point x="100" y="700" type="line"/>
      <point x="100" y="580" type="line"/>
      <point x="301" y="580" type="line" smooth="yes"/>
      <point x="397" y="580"/>
      <point x="480" y="545"/>
      <point x="480" y="478" type="curve" smooth="yes"/>
      <point x="480" y="421"/>
      <point x="425" y="367"/>
      <point x="329" y="367" type="curve" smooth="yes"/>
      <point x="185" y="367" type="line"/>
      <point x="185" y="316" type="line"/>
    </contour>
    <contour>
      <point x="650" y="-1" type="line"/>
      <point x="312" y="341" type="line"/>
      <point x="185" y="316" type="line"/>
      <point x="493" y="0" type="line"/>
    </contour>
    <contour>
      <point x="275" y="421" type="line"/>
      <point x="683" y="421" type="line"/>
      <point x="683" y="507" type="line"/>
      <point x="275" y="507" type="line"/>
    </contour>
  </outline>
</glyph>
<glyph name="manat" format="2">
  <advance width="1068"/>
  <unicode hex="20BC"/>
  <outline>
    <contour>
      <point x="182" y="-7" type="line"/>
      <point x="285" y="-7" type="line"/>
      <point x="285" y="355" type="line" smooth="yes"/>
      <point x="285" y="494"/>
      <point x="391" y="595"/>
      <point x="534" y="595" type="curve" smooth="yes"/>
      <point x="670" y="595"/>
      <point x="778" y="494"/>
      <point x="778" y="355" type="curve" smooth="yes"/>
      <point x="778" y="-7" type="line"/>
      <point x="886" y="-7" type="line"/>
      <point x="886" y="359" type="line" smooth="yes"/>
      <point x="886" y="555"/>
      <point x="746" y="700"/>
      <point x="534" y="700" type="curve" smooth="yes"/>
      <point x="322" y="700"/>
      <point x="182" y="555"/>
      <point x="182" y="359" type="curve" smooth="yes"/>
    </contour>
    <contour>
      <point x="464" y="254" type="line"/>
      <point x="581" y="254" type="line"/>
      <point x="581" y="801" type="line"/>
      <point x="464" y="801" type="line"/>
    </contour>
  </outline>
</glyph>
<glyph name="ruble" format="2">
  <advance width="998"/>
  <unicode hex="20BD"/>
  <outline>
    <contour>
      <point x="227" y="0" type="line"/>
      <point x="335" y="0" type="line"/>
      <point x="335" y="282" type="line"/>
      <point x="327" y="258" type="line"/>
      <point x="616" y="258" type="line" smooth="yes"/>
      <point x="749" y="258"/>
      <point x="863" y="358"/>
      <point x="863" y="485" type="curve" smooth="yes"/>
      <point x="863" y="605"/>
      <point x="759" y="700"/>
      <point x="636" y="700" type="curve" smooth="yes"/>
      <point x="227" y="700" type="line"/>
    </contour>
    <contour>
      <point x="120" y="127" type="line"/>
      <point x="528" y="127" type="line"/>
      <point x="528" y="213" type="line"/>
      <point x="120" y="213" type="line"/>
    </contour>
    <contour>
      <point x="123" y="271" type="line"/>
      <point x="297" y="271" type="line"/>
      <point x="297" y="372" type="line"/>
      <point x="123" y="372" type="line"/>
    </contour>
    <contour>
      <point x="335" y="348" type="line"/>
      <point x="335" y="621" type="line"/>
      <point x="326" y="596" type="line"/>
      <point x="606" y="596" type="line" smooth="yes"/>
      <point x="682" y="596"/>
      <point x="748" y="546"/>
      <point x="748" y="485" type="curve" smooth="yes"/>
      <point x="748" y="418"/>
      <point x="682" y="362"/>
      <point x="606" y="362" type="curve" smooth="yes"/>
      <point x="326" y="362" type="line"/>
    </contour>
  </outline>
</glyph>
<glyph name="literSign" format="2">
  <advance width="779"/>
  <unicode hex="2113"/>
  <outline>
    <contour>
      <point x="409" y="-16" type="curve" smooth="yes"/>
      <point x="466" y="-16"/>
      <point x="521" y="11"/>
      <point x="562" y="48" type="curve"/>
      <point x="530" y="108" type="line"/>
      <point x="501" y="89"/>
      <point x="462" y="63"/>
      <point x="434" y="63" type="curve" smooth="yes"/>
      <point x="363" y="63"/>
      <point x="320" y="143"/>
      <point x="320" y="243" type="curve" smooth="yes"/>
      <point x="320" y="296"/>
      <point x="337" y="397"/>
      <point x="366" y="486" type="curve" smooth="yes"/>
      <point x="398" y="583"/>
      <point x="447" y="675"/>
      <point x="507" y="675" type="curve" smooth="yes"/>
      <point x="535" y="675"/>
      <point x="556" y="650"/>
      <point x="556" y="613" type="curve" smooth="yes"/>
      <point x="556" y="537"/>
      <point x="509" y="425"/>
      <point x="412" y="320" type="curve" smooth="yes"/>
      <point x="347" y="249"/>
      <point x="257" y="180"/>
      <point x="145" y="125" type="curve"/>
      <point x="177" y="68" type="line"/>
      <point x="308" y="129"/>
      <point x="408" y="205"/>
      <point x="480" y="282" type="curve" smooth="yes"/>
      <point x="592" y="402"/>
      <point x="639" y="528"/>
      <point x="639" y="609" type="curve" smooth="yes"/>
      <point x="639" y="690"/>
      <point x="588" y="748"/>
      <point x="508" y="749" type="curve" smooth="yes"/>
      <point x="408" y="746"/>
      <point x="338" y="658"/>
      <point x="295" y="550" type="curve" smooth="yes"/>
      <point x="255" y="451"/>
      <point x="237" y="333"/>
      <point x="237" y="248" type="curve" smooth="yes"/>
      <point x="237" y="101"/>
      <point x="305" y="-16"/>
    </contour>
  </outline>
</glyph>
<glyph name="numero" format="2">
  <advance width="1545"/>
  <unicode hex="2116"/>
  <anchor x="561" y="0" name="bottom"/>
  <anchor x="561" y="700" name="top"/>
  <outline>
    <contour>
      <point x="1049" y="173" type="line"/>
      <point x="1415" y="173" type="line"/>
      <point x="1415" y="272" type="line"/>
      <point x="1049" y="272" type="line"/>
    </contour>
    <contour>
      <point x="1223" y="338" type="curve" smooth="yes"/>
      <point x="1327" y="338"/>
      <point x="1407" y="409"/>
      <point x="1407" y="521" type="curve" smooth="yes"/>
      <point x="1407" y="626.333"/>
      <point x="1327" y="708"/>
      <point x="1223" y="708" type="curve" smooth="yes"/>
      <point x="1119" y="708"/>
      <point x="1041" y="626.333"/>
      <point x="1041" y="521" type="curve" smooth="yes"/>
      <point x="1041" y="409"/>
      <point x="1119" y="338"/>
    </contour>
    <contour>
      <point x="1222" y="431" type="curve" smooth="yes"/>
      <point x="1179.333" y="431"/>
      <point x="1151" y="470.333"/>
      <point x="1151" y="521" type="curve" smooth="yes"/>
      <point x="1151" y="574.333"/>
      <point x="1179.333" y="615"/>
      <point x="1222" y="615" type="curve" smooth="yes"/>
      <point x="1267.333" y="615"/>
      <point x="1295" y="574.333"/>
      <point x="1295" y="521" type="curve" smooth="yes"/>
      <point x="1295" y="470"/>
      <point x="1268" y="431"/>
    </contour>
    <component base="N"/>
  </outline>
</glyph>
<glyph name="Ohm" format="2">
  <advance width="1057"/>
  <unicode hex="2126"/>
  <outline>
    <contour>
      <point x="100" y="0" type="line"/>
      <point x="428" y="0" type="line"/>
      <point x="428" y="56" type="line"/>
      <point x="379" y="107"/>
      <point x="331" y="153"/>
      <point x="300" y="214" type="curve" smooth="yes"/>
      <point x="279" y="259"/>
      <point x="264" y="314"/>
      <point x="264" y="383" type="curve" smooth="yes"/>
      <point x="264" y="506"/>
      <point x="378" y="596"/>
      <point x="529" y="596" type="curve" smooth="yes"/>
      <point x="678" y="596"/>
      <point x="794" y="506"/>
      <point x="794" y="383" type="curve" smooth="yes"/>
      <point x="794" y="314"/>
      <point x="778" y="261"/>
      <point x="751" y="214" type="curve" smooth="yes"/>
      <point x="722" y="162"/>
      <point x="678" y="115"/>
      <point x="627" y="56" type="curve"/>
      <point x="627" y="0" type="line"/>
      <point x="957" y="0" type="line"/>
      <point x="957" y="113" type="line"/>
      <point x="733" y="113" type="line"/>
      <point x="752" y="66" type="line"/>
      <point x="824" y="135"/>
      <point x="911" y="256"/>
      <point x="911" y="383" type="curve" smooth="yes"/>
      <point x="911" y="574"/>
      <point x="742" y="710"/>
      <point x="529" y="710" type="curve" smooth="yes"/>
      <point x="313" y="710"/>
      <point x="146" y="572"/>
      <point x="146" y="384" type="curve" smooth="yes"/>
      <point x="146" y="256"/>
      <point x="231" y="137"/>
      <point x="306" y="65" type="curve"/>
      <point x="331" y="113" type="line"/>
      <point x="100" y="113" type="line"/>
    </contour>
  </outline>
</glyph>
<glyph name="partialdiff" format="2">
  <advance width="910"/>
  <unicode hex="2202"/>
  <outline>
    <contour>
      <point x="444" y="-7" type="curve" smooth="yes"/>
      <point x="665" y="-7"/>
      <point x="780" y="142"/>
      <point x="780" y="297" type="curve" smooth="yes"/>
      <point x="780" y="386"/>
      <point x="734" y="481"/>
      <point x="663" y="558" type="curve" smooth="yes"/>
      <point x="591" y="638"/>
      <point x="493" y="703"/>
      <point x="393" y="735" type="curve"/>
      <point x="305" y="656" type="line"/>
      <point x="448" y="625"/>
      <point x="657" y="484"/>
      <point x="657" y="345" type="curve"/>
      <point x="725" y="362" type="line"/>
      <point x="684" y="465"/>
      <point x="575" y="536"/>
      <point x="432" y="536" type="curve" smooth="yes"/>
      <point x="281" y="536"/>
      <point x="130" y="416"/>
      <point x="130" y="265" type="curve" smooth="yes"/>
      <point x="130" y="114"/>
      <point x="269" y="-7"/>
    </contour>
    <contour>
      <point x="447" y="97" type="curve" smooth="yes"/>
      <point x="335" y="97"/>
      <point x="246" y="170"/>
      <point x="246" y="265" type="curve" smooth="yes"/>
      <point x="246" y="358"/>
      <point x="335" y="431"/>
      <point x="447" y="431" type="curve" smooth="yes"/>
      <point x="572" y="431"/>
      <point x="669" y="357"/>
      <point x="669" y="265" type="curve" smooth="yes"/>
      <point x="669" y="170"/>
      <point x="571" y="97"/>
    </contour>
  </outline>
</glyph>
<glyph name="emptyset" format="2">
  <advance width="955"/>
  <unicode hex="2205"/>
  <anchor x="477" y="0" name="bottom"/>
  <anchor x="477" y="263" name="center"/>
  <anchor x="787" y="10" name="ogonek"/>
  <anchor x="477" y="525" name="top"/>
  <anchor x="844" y="525" name="topright"/>
  <outline>
    <contour>
      <point x="161" y="-8" type="line"/>
      <point x="857" y="459" type="line"/>
      <point x="798" y="543" type="line"/>
      <point x="99" y="76" type="line"/>
    </contour>
    <component base="o" xOffset="-1"/>
  </outline>
</glyph>
<glyph name="increment" format="2">
  <advance width="1000"/>
  <unicode hex="2206"/>
  <outline>
    <contour>
      <point x="90" y="0" type="line"/>
      <point x="911" y="0" type="line"/>
      <point x="499" y="721" type="line"/>
    </contour>
    <contour>
      <point x="246" y="64" type="line"/>
      <point x="507" y="530" type="line"/>
      <point x="491" y="530" type="line"/>
      <point x="753" y="61" type="line"/>
      <point x="812" y="103" type="line"/>
      <point x="196" y="103" type="line"/>
    </contour>
  </outline>
</glyph>
<glyph name="product" format="2">
  <advance width="1072"/>
  <unicode hex="220F"/>
  <outline>
    <contour>
      <point x="688" y="-200" type="line"/>
      <point x="813" y="-200" type="line"/>
      <point x="813" y="656" type="line"/>
      <point x="688" y="656" type="line"/>
    </contour>
    <contour>
      <point x="259" y="-200" type="line"/>
      <point x="383" y="-200" type="line"/>
      <point x="383" y="625" type="line"/>
      <point x="259" y="625" type="line"/>
    </contour>
    <contour>
      <point x="90" y="587" type="line"/>
      <point x="982" y="587" type="line"/>
      <point x="982" y="700" type="line"/>
      <point x="90" y="700" type="line"/>
    </contour>
  </outline>
</glyph>
<glyph name="summation" format="2">
  <advance width="799"/>
  <unicode hex="2211"/>
  <outline>
    <contour>
      <point x="169" y="0" type="line"/>
      <point x="674" y="0" type="line"/>
      <point x="674" y="97" type="line"/>
      <point x="207" y="97" type="line"/>
      <point x="230" y="70" type="line"/>
      <point x="517" y="331" type="line"/>
      <point x="517" y="346" type="line"/>
      <point x="231" y="607" type="line"/>
      <point x="201" y="578" type="line"/>
      <point x="674" y="578" type="line"/>
      <point x="674" y="676" type="line"/>
      <point x="169" y="676" type="line"/>
      <point x="125" y="576" type="line"/>
      <point x="425" y="308" type="line"/>
      <point x="422" y="367" type="line"/>
      <point x="125" y="100" type="line"/>
    </contour>
  </outline>
</glyph>
<glyph name="minus" format="2">
  <advance width="881"/>
  <unicode hex="2212"/>
  <outline>
    <contour>
      <point x="130" y="235" type="line"/>
      <point x="751" y="235" type="line"/>
      <point x="751" y="350" type="line"/>
      <point x="130" y="350" type="line"/>
    </contour>
  </outline>
</glyph>
<glyph name="bulletoperator" format="2">
  <advance width="524"/>
  <unicode hex="2219"/>
  <outline>
    <contour>
      <point x="263" y="219" type="curve" smooth="yes"/>
      <point x="306" y="219"/>
      <point x="344" y="256"/>
      <point x="344" y="301" type="curve" smooth="yes"/>
      <point x="344" y="345"/>
      <point x="306" y="383"/>
      <point x="263" y="383" type="curve" smooth="yes"/>
      <point x="218" y="383"/>
      <point x="180" y="345"/>
      <point x="180" y="301" type="curve" smooth="yes"/>
      <point x="180" y="256"/>
      <point x="218" y="219"/>
    </contour>
  </outline>
</glyph>
<glyph name="radical" format="2">
  <advance width="1044"/>
  <unicode hex="221A"/>
  <outline>
    <contour>
      <point x="331" y="-230" type="line"/>
      <point x="431" y="-230" type="line"/>
      <point x="804" y="620" type="line"/>
      <point x="732" y="587" type="line"/>
      <point x="974" y="587" type="line"/>
      <point x="974" y="700" type="line"/>
      <point x="713" y="700" type="line"/>
      <point x="344" y="-167" type="line"/>
      <point x="419" y="-188" type="line"/>
      <point x="204" y="309" type="line"/>
      <point x="75" y="309" type="line"/>
    </contour>
  </outline>
</glyph>
<glyph name="infinity" format="2">
  <advance width="1133"/>
  <unicode hex="221E"/>
  <outline>
    <contour>
      <point x="839" y="47" type="curve" smooth="yes"/>
      <point x="940" y="47"/>
      <point x="1033" y="110"/>
      <point x="1033" y="242" type="curve" smooth="yes"/>
      <point x="1033" y="374"/>
      <point x="937" y="437"/>
      <point x="837" y="437" type="curve" smooth="yes"/>
      <point x="753" y="437"/>
      <point x="706" y="404"/>
      <point x="647" y="356" type="curve" smooth="yes"/>
      <point x="427" y="180" type="line" smooth="yes"/>
      <point x="384" y="147"/>
      <point x="347" y="129"/>
      <point x="302" y="129" type="curve" smooth="yes"/>
      <point x="241" y="129"/>
      <point x="183" y="165"/>
      <point x="183" y="242" type="curve" smooth="yes"/>
      <point x="183" y="319"/>
      <point x="244" y="355"/>
      <point x="301" y="355" type="curve" smooth="yes"/>
      <point x="350" y="355"/>
      <point x="398" y="329"/>
      <point x="431" y="301" type="curve" smooth="yes"/>
      <point x="655" y="120" type="line" smooth="yes"/>
      <point x="706" y="79"/>
      <point x="756" y="47"/>
    </contour>
    <contour>
      <point x="293" y="47" type="curve" smooth="yes"/>
      <point x="376" y="47"/>
      <point x="421" y="80"/>
      <point x="478" y="125" type="curve" smooth="yes"/>
      <point x="701" y="306" type="line" smooth="yes"/>
      <point x="736" y="334"/>
      <point x="793" y="355"/>
      <point x="830" y="355" type="curve" smooth="yes"/>
      <point x="889" y="355"/>
      <point x="950" y="319"/>
      <point x="950" y="242" type="curve" smooth="yes"/>
      <point x="950" y="165"/>
      <point x="893" y="129"/>
      <point x="830" y="129" type="curve" smooth="yes"/>
      <point x="797" y="129"/>
      <point x="745" y="154"/>
      <point x="716" y="177" type="curve" smooth="yes"/>
      <point x="496" y="353" type="line" smooth="yes"/>
      <point x="435" y="402"/>
      <point x="383" y="437"/>
      <point x="295" y="437" type="curve" smooth="yes"/>
      <point x="195" y="437"/>
      <point x="100" y="374"/>
      <point x="100" y="242" type="curve" smooth="yes"/>
      <point x="100" y="110"/>
      <point x="193" y="47"/>
    </contour>
  </outline>
</glyph>
<glyph name="integral" format="2">
  <advance width="835"/>
  <unicode hex="222B"/>
  <outline>
    <contour>
      <point x="161" y="-127" type="curve" smooth="yes"/>
      <point x="273" y="-127"/>
      <point x="341" y="-64"/>
      <point x="384" y="71" type="curve" smooth="yes"/>
      <point x="534" y="544" type="line" smooth="yes"/>
      <point x="550" y="593"/>
      <point x="574" y="638"/>
      <point x="643" y="638" type="curve" smooth="yes"/>
      <point x="668" y="638"/>
      <point x="713" y="630"/>
      <point x="756" y="609" type="curve"/>
      <point x="785" y="710" type="line"/>
      <point x="758" y="733"/>
      <point x="706" y="745"/>
      <point x="642" y="745" type="curve" smooth="yes"/>
      <point x="534" y="745"/>
      <point x="458" y="682"/>
      <point x="415" y="547" type="curve" smooth="yes"/>
      <point x="264" y="72" type="line" smooth="yes"/>
      <point x="248" y="23"/>
      <point x="222" y="-17"/>
      <point x="163" y="-17" type="curve" smooth="yes"/>
      <point x="138" y="-17"/>
      <point x="97" y="-7"/>
      <point x="72" y="14" type="curve"/>
      <point x="25" y="-71" type="line"/>
      <point x="58" y="-96"/>
      <point x="118" y="-127"/>
    </contour>
  </outline>
</glyph>
<glyph name="approxequal" format="2">
  <advance width="843"/>
  <unicode hex="2248"/>
  <outline>
    <contour>
      <point x="556" y="277" type="curve" smooth="yes"/>
      <point x="672" y="277"/>
      <point x="729" y="357"/>
      <point x="729" y="445" type="curve"/>
      <point x="645" y="443" type="line"/>
      <point x="646" y="394"/>
      <point x="621" y="363"/>
      <point x="576" y="363" type="curve" smooth="yes"/>
      <point x="543" y="363"/>
      <point x="498" y="383"/>
      <point x="450" y="403" type="curve" smooth="yes"/>
      <point x="397" y="426"/>
      <point x="336" y="449"/>
      <point x="276" y="449" type="curve" smooth="yes"/>
      <point x="171" y="449"/>
      <point x="110" y="378"/>
      <point x="110" y="289" type="curve"/>
      <point x="194" y="294" type="line"/>
      <point x="191" y="335"/>
      <point x="232" y="363"/>
      <point x="269" y="363" type="curve" smooth="yes"/>
      <point x="304" y="363"/>
      <point x="352" y="342"/>
      <point x="403" y="321" type="curve" smooth="yes"/>
      <point x="455" y="300"/>
      <point x="511" y="277"/>
    </contour>
    <contour>
      <point x="560" y="78" type="curve" smooth="yes"/>
      <point x="676" y="78"/>
      <point x="733" y="153"/>
      <point x="733" y="236" type="curve"/>
      <point x="649" y="234" type="line"/>
      <point x="650" y="191"/>
      <point x="625" y="164"/>
      <point x="580" y="164" type="curve" smooth="yes"/>
      <point x="544" y="164"/>
      <point x="495" y="186"/>
      <point x="443" y="209" type="curve" smooth="yes"/>
      <point x="392" y="229"/>
      <point x="336" y="250"/>
      <point x="280" y="250" type="curve" smooth="yes"/>
      <point x="175" y="250"/>
      <point x="114" y="179"/>
      <point x="114" y="90" type="curve"/>
      <point x="198" y="95" type="line"/>
      <point x="195" y="136"/>
      <point x="236" y="164"/>
      <point x="273" y="164" type="curve" smooth="yes"/>
      <point x="306" y="164"/>
      <point x="351" y="146"/>
      <point x="398" y="126" type="curve" smooth="yes"/>
      <point x="453" y="103"/>
      <point x="512" y="78"/>
    </contour>
  </outline>
</glyph>
<glyph name="notequal" format="2">
  <advance width="836"/>
  <unicode hex="2260"/>
  <outline>
    <contour>
      <point x="149" y="28" type="line"/>
      <point x="271" y="28" type="line"/>
      <point x="674" y="537" type="line"/>
      <point x="548" y="536" type="line"/>
    </contour>
    <contour>
      <point x="120" y="126" type="line"/>
      <point x="716" y="126" type="line"/>
      <point x="716" y="231" type="line"/>
      <point x="120" y="231" type="line"/>
    </contour>
    <contour>
      <point x="120" y="331" type="line"/>
      <point x="716" y="331" type="line"/>
      <point x="716" y="436" type="line"/>
      <point x="120" y="436" type="line"/>
    </contour>
  </outline>
</glyph>
<glyph name="greaterequal" format="2">
  <advance width="867"/>
  <unicode hex="2265"/>
  <outline>
    <contour>
      <point x="170" y="138" type="line"/>
      <point x="742" y="295" type="line"/>
      <point x="742" y="360" type="line"/>
      <point x="170" y="518" type="line"/>
      <point x="148" y="437" type="line"/>
      <point x="676" y="294" type="line"/>
      <point x="671" y="357" type="line"/>
      <point x="141" y="212" type="line"/>
    </contour>
    <contour>
      <point x="140" y="0" type="line"/>
      <point x="777" y="0" type="line"/>
      <point x="777" y="90" type="line"/>
      <point x="140" y="90" type="line"/>
    </contour>
  </outline>
</glyph>
<glyph name="lozenge" format="2">
  <advance width="877"/>
  <unicode hex="25CA"/>
  <outline>
    <contour>
      <point x="449" y="-43" type="line"/>
      <point x="762" y="330" type="line"/>
      <point x="449" y="690" type="line"/>
      <point x="136" y="328" type="line"/>
    </contour>
    <contour>
      <point x="449" y="93" type="line"/>
      <point x="250" y="327" type="line"/>
      <point x="449" y="554" type="line"/>
      <point x="648" y="327" type="line"/>
    </contour>
  </outline>
</glyph>
<glyph name="I.ss01" format="2">
  <advance width="492"/>
  <anchor x="246" y="0" name="bottom"/>
  <anchor x="300" y="0" name="ogonek"/>
  <anchor x="246" y="700" name="top"/>
  <anchor x="112" y="700" name="topleft"/>
  <outline>
    <contour>
      <point x="192" y="0" type="line"/>
      <point x="300" y="0" type="line"/>
      <point x="300" y="700" type="line"/>
      <point x="299" y="700"/>
      <point x="281" y="700"/>
      <point x="246" y="700" type="curve" smooth="yes"/>
      <point x="192" y="700" type="line"/>
    </contour>
  </outline>
</glyph>
<glyph name="J.ss01" format="2">
  <advance width="881"/>
  <anchor x="436" y="0" name="bottom"/>
  <anchor x="646" y="700" name="top"/>
  <outline>
    <contour>
      <point x="401" y="-10" type="curve" smooth="yes"/>
      <point x="592" y="-10"/>
      <point x="699" y="129"/>
      <point x="699" y="273" type="curve" smooth="yes"/>
      <point x="699" y="700" type="line"/>
      <point x="591" y="700" type="line"/>
      <point x="591" y="283" type="line" smooth="yes"/>
      <point x="591" y="176"/>
      <point x="518" y="90"/>
      <point x="401" y="90" type="curve" smooth="yes"/>
      <point x="296" y="90"/>
      <point x="246" y="156"/>
      <point x="197" y="223" type="curve"/>
      <point x="125" y="147" type="line"/>
      <point x="146" y="110"/>
      <point x="230" y="-10"/>
    </contour>
  </outline>
</glyph>
<glyph name="a.ss01" format="2">
  <advance width="968"/>
  <anchor x="449" y="0" name="bottom"/>
  <anchor x="758" y="0" name="ogonek"/>
  <anchor x="449" y="525" name="top"/>
  <outline>
    <contour>
      <point x="665" y="0" type="line"/>
      <point x="758" y="0" type="line"/>
      <point x="758" y="304" type="line" smooth="yes"/>
      <point x="758" y="473"/>
      <point x="628" y="536"/>
      <point x="432" y="536" type="curve" smooth="yes"/>
      <point x="316" y="536"/>
      <point x="221" y="496"/>
      <point x="149" y="445" type="curve"/>
      <point x="206" y="374" type="line"/>
      <point x="269" y="423"/>
      <point x="357" y="442"/>
      <point x="430" y="442" type="curve" smooth="yes"/>
      <point x="579" y="442"/>
      <point x="665" y="394"/>
      <point x="665" y="282" type="curve" smooth="yes"/>
    </contour>
    <contour>
      <point x="388" y="-10" type="curve" smooth="yes"/>
      <point x="517" y="-10"/>
      <point x="649" y="51"/>
      <point x="702" y="107" type="curve"/>
      <point x="678" y="174" type="line"/>
      <point x="630" y="125"/>
      <point x="509" y="78"/>
      <point x="392" y="78" type="curve" smooth="yes"/>
      <point x="285" y="78"/>
      <point x="227" y="103"/>
      <point x="227" y="161" type="curve" smooth="yes"/>
      <point x="227" y="220"/>
      <point x="304" y="237"/>
      <point x="453" y="237" type="curve" smooth="yes"/>
      <point x="703" y="237" type="line"/>
      <point x="712" y="319" type="line"/>
      <point x="444" y="319" type="line" smooth="yes"/>
      <point x="277" y="319"/>
      <point x="130" y="292"/>
      <point x="130" y="149" type="curve" smooth="yes"/>
      <point x="130" y="40"/>
      <point x="256" y="-10"/>
    </contour>
  </outline>
</glyph>
<glyph name="acutecomb_dotaccentcomb" format="2">
  <anchor x="234" y="525" name="_top"/>
  <anchor x="234" y="710" name="top"/>
  <outline>
    <contour>
      <point x="303" y="627" type="line"/>
      <point x="420" y="747" type="line"/>
      <point x="343" y="804" type="line"/>
      <point x="251" y="663" type="line"/>
    </contour>
    <contour>
      <point x="149" y="635" type="curve" smooth="yes"/>
      <point x="192" y="635"/>
      <point x="218" y="661"/>
      <point x="218" y="700" type="curve" smooth="yes"/>
      <point x="218" y="741"/>
      <point x="193" y="765"/>
      <point x="149" y="765" type="curve" smooth="yes"/>
      <point x="106" y="765"/>
      <point x="80" y="739"/>
      <point x="80" y="700" type="curve" smooth="yes"/>
      <point x="80" y="659"/>
      <point x="105" y="635"/>
    </contour>
  </outline>
</glyph>
<glyph name="brevecomb.case" format="2">
  <anchor x="250" y="700" name="_top"/>
  <anchor x="250" y="850" name="top"/>
  <outline>
    <contour>
      <point x="250" y="751" type="curve" smooth="yes"/>
      <point x="333" y="751"/>
      <point x="395" y="813"/>
      <point x="412" y="885" type="curve"/>
      <point x="338" y="897" type="line"/>
      <point x="323" y="864"/>
      <point x="291" y="832"/>
      <point x="250" y="832" type="curve" smooth="yes"/>
      <point x="209" y="832"/>
      <point x="177" y="864"/>
      <point x="162" y="897" type="curve"/>
      <point x="88" y="885" type="line"/>
      <point x="105" y="813"/>
      <point x="167" y="751"/>
    </contour>
  </outline>
</glyph>
<glyph name="brevecomb_gravecomb.case" format="2">
  <anchor x="250" y="700" name="_top"/>
  <anchor x="250" y="850" name="top"/>
  <outline>
    <contour>
      <point x="250" y="751" type="curve" smooth="yes"/>
      <point x="333" y="751"/>
      <point x="395" y="802"/>
      <point x="412" y="885" type="curve"/>
      <point x="342" y="897" type="line"/>
      <point x="323" y="849"/>
      <point x="291" y="828"/>
      <point x="250" y="828" type="curve" smooth="yes"/>
      <point x="207" y="828"/>
      <point x="178" y="849"/>
      <point x="158" y="897" type="curve"/>
      <point x="88" y="885" type="line"/>
      <point x="105" y="802"/>
      <point x="167" y="751"/>
    </contour>
    <contour>
      <point x="249" y="885" type="line"/>
      <point x="297" y="923" type="line"/>
      <point x="214" y="1069" type="line"/>
      <point x="128" y="1006" type="line"/>
    </contour>
  </outline>
</glyph>
<glyph name="caroncomb.alt" format="2">
  <anchor x="51" y="711" name="_topright"/>
  <outline>
    <contour>
      <point x="95" y="513" type="line"/>
      <point x="130" y="525"/>
      <point x="219" y="565"/>
      <point x="219" y="634" type="curve" smooth="yes"/>
      <point x="219" y="687"/>
      <point x="177" y="711"/>
      <point x="141" y="711" type="curve" smooth="yes"/>
      <point x="105" y="711"/>
      <point x="76" y="694"/>
      <point x="76" y="662" type="curve" smooth="yes"/>
      <point x="76" y="634"/>
      <point x="92" y="629"/>
      <point x="105" y="625" type="curve" smooth="yes"/>
      <point x="116" y="621"/>
      <point x="125" y="619"/>
      <point x="125" y="607" type="curve" smooth="yes"/>
      <point x="125" y="586"/>
      <point x="98" y="560"/>
      <point x="71" y="555" type="curve"/>
    </contour>
  </outline>
</glyph>
<glyph name="caroncomb_dotaccentcomb" format="2">
  <anchor x="250" y="525" name="_top"/>
  <anchor x="250" y="790" name="top"/>
  <outline>
    <contour>
      <point x="207" y="597" type="line"/>
      <point x="293" y="597" type="line"/>
      <point x="398" y="710" type="line"/>
      <point x="360" y="743" type="line"/>
      <point x="235" y="670" type="line"/>
      <point x="265" y="670" type="line"/>
      <point x="140" y="743" type="line"/>
      <point x="102" y="710" type="line"/>
    </contour>
    <contour>
      <point x="250" y="760" type="curve" smooth="yes"/>
      <point x="293" y="760"/>
      <point x="319" y="786"/>
      <point x="319" y="825" type="curve" smooth="yes"/>
      <point x="319" y="866"/>
      <point x="294" y="890"/>
      <point x="250" y="890" type="curve" smooth="yes"/>
      <point x="207" y="890"/>
      <point x="181" y="864"/>
      <point x="181" y="825" type="curve" smooth="yes"/>
      <point x="181" y="784"/>
      <point x="206" y="760"/>
    </contour>
  </outline>
</glyph>
<glyph name="circumflexcomb_gravecomb.case" format="2">
  <anchor x="222" y="700" name="_top"/>
  <anchor x="222" y="850" name="top"/>
  <outline>
    <contour>
      <point x="98" y="755" type="line"/>
      <point x="236" y="818" type="line"/>
      <point x="207" y="818" type="line"/>
      <point x="345" y="755" type="line"/>
      <point x="378" y="791" type="line"/>
      <point x="258" y="889" type="line"/>
      <point x="185" y="889" type="line"/>
      <point x="65" y="791" type="line"/>
    </contour>
    <contour>
      <point x="387" y="865" type="line"/>
      <point x="435" y="903" type="line"/>
      <point x="352" y="1049" type="line"/>
      <point x="266" y="986" type="line"/>
    </contour>
  </outline>
</glyph>
<glyph name="circumflexcomb_gravecomb" format="2">
  <anchor x="250" y="525" name="_top"/>
  <anchor x="250" y="780" name="top"/>
  <outline>
    <contour>
      <point x="130" y="597" type="line"/>
      <point x="265" y="670" type="line"/>
      <point x="235" y="670" type="line"/>
      <point x="370" y="597" type="line"/>
      <point x="408" y="630" type="line"/>
      <point x="293" y="743" type="line"/>
      <point x="207" y="743" type="line"/>
      <point x="92" y="630" type="line"/>
    </contour>
    <contour>
      <point x="391" y="710" type="line"/>
      <point x="439" y="748" type="line"/>
      <point x="346" y="889" type="line"/>
      <point x="270" y="831" type="line"/>
    </contour>
  </outline>
</glyph>
<glyph name="circumflexcomb_hookabovecomb" format="2">
  <anchor x="250" y="525" name="_top"/>
  <anchor x="250" y="780" name="top"/>
  <outline>
    <contour>
      <point x="130" y="597" type="line"/>
      <point x="265" y="670" type="line"/>
      <point x="235" y="670" type="line"/>
      <point x="370" y="597" type="line"/>
      <point x="408" y="630" type="line"/>
      <point x="293" y="743" type="line"/>
      <point x="207" y="743" type="line"/>
      <point x="92" y="630" type="line"/>
    </contour>
    <contour>
      <point x="366" y="715" type="curve"/>
      <point x="417" y="728" type="line"/>
      <point x="415" y="732"/>
      <point x="414" y="736"/>
      <point x="414" y="741" type="curve" smooth="yes"/>
      <point x="414" y="754"/>
      <point x="425" y="761"/>
      <point x="449" y="773" type="curve" smooth="yes"/>
      <point x="467" y="782"/>
      <point x="486" y="800"/>
      <point x="486" y="834" type="curve" smooth="yes"/>
      <point x="486" y="876"/>
      <point x="450" y="911"/>
      <point x="380" y="911" type="curve" smooth="yes"/>
      <point x="353" y="911"/>
      <point x="319" y="903"/>
      <point x="291" y="887" type="curve"/>
      <point x="307" y="824" type="line"/>
      <point x="329" y="835"/>
      <point x="356" y="842"/>
      <point x="378" y="842" type="curve" smooth="yes"/>
      <point x="395" y="842"/>
      <point x="408" y="837"/>
      <point x="408" y="825" type="curve" smooth="yes"/>
      <point x="408" y="816"/>
      <point x="400" y="810"/>
      <point x="378" y="795" type="curve" smooth="yes"/>
      <point x="356" y="780"/>
      <point x="351" y="765"/>
      <point x="351" y="753" type="curve" smooth="yes"/>
      <point x="351" y="741"/>
      <point x="356" y="728"/>
    </contour>
  </outline>
</glyph>
<glyph name="circumflexcomb_tildecomb.case" format="2">
  <anchor x="251" y="700" name="_top"/>
  <anchor x="251" y="850" name="top"/>
  <outline>
    <contour>
      <point x="127" y="755" type="line"/>
      <point x="265" y="818" type="line"/>
      <point x="236" y="818" type="line"/>
      <point x="374" y="755" type="line"/>
      <point x="407" y="791" type="line"/>
      <point x="287" y="889" type="line"/>
      <point x="214" y="889" type="line"/>
      <point x="94" y="791" type="line"/>
    </contour>
    <contour>
      <point x="328" y="917" type="curve" smooth="yes"/>
      <point x="381" y="917"/>
      <point x="409" y="964"/>
      <point x="412" y="1020" type="curve"/>
      <point x="344" y="1030" type="line"/>
      <point x="339" y="1005"/>
      <point x="329" y="992"/>
      <point x="311" y="992" type="curve" smooth="yes"/>
      <point x="297" y="992"/>
      <point x="278" y="1001"/>
      <point x="261" y="1009" type="curve" smooth="yes"/>
      <point x="237" y="1020"/>
      <point x="215" y="1031"/>
      <point x="187" y="1031" type="curve" smooth="yes"/>
      <point x="134" y="1031"/>
      <point x="92" y="983"/>
      <point x="89" y="929" type="curve"/>
      <point x="157" y="919" type="line"/>
      <point x="162" y="941"/>
      <point x="176" y="956"/>
      <point x="194" y="956" type="curve" smooth="yes"/>
      <point x="207" y="956"/>
      <point x="222" y="949"/>
      <point x="246" y="938" type="curve" smooth="yes"/>
      <point x="269" y="928"/>
      <point x="296" y="917"/>
    </contour>
  </outline>
</glyph>
<glyph name="eight.dnom" format="2">
  <advance width="353"/>
  <outline>
    <contour>
      <point x="177" y="-11" type="curve" smooth="yes"/>
      <point x="248.641" y="-11"/>
      <point x="309" y="38.333"/>
      <point x="309" y="97" type="curve" smooth="yes"/>
      <point x="309" y="134.333"/>
      <point x="278.787" y="170.089"/>
      <point x="236" y="188" type="curve"/>
      <point x="237" y="177" type="line"/>
      <point x="263.865" y="187.945"/>
      <point x="300" y="212.213"/>
      <point x="300" y="255" type="curve" smooth="yes"/>
      <point x="300" y="312.712"/>
      <point x="244.661" y="358"/>
      <point x="177" y="358" type="curve" smooth="yes"/>
      <point x="108.343" y="358"/>
      <point x="54" y="312.712"/>
      <point x="54" y="255" type="curve" smooth="yes"/>
      <point x="54" y="214.204"/>
      <point x="85.159" y="187.945"/>
      <point x="117" y="177" type="curve"/>
      <point x="120" y="188" type="line"/>
      <point x="86.169" y="173.075"/>
      <point x="44" y="144.761"/>
      <point x="44" y="97" type="curve" smooth="yes"/>
      <point x="44" y="38.293"/>
      <point x="104.363" y="-11"/>
    </contour>
    <contour>
      <point x="177" y="52" type="curve" smooth="yes"/>
      <point x="146.155" y="52"/>
      <point x="121" y="74.667"/>
      <point x="121" y="104" type="curve" smooth="yes"/>
      <point x="121" y="132"/>
      <point x="147.149" y="151"/>
      <point x="177" y="151" type="curve" smooth="yes"/>
      <point x="205.856" y="151"/>
      <point x="233" y="131.861"/>
      <point x="233" y="104" type="curve" smooth="yes"/>
      <point x="233" y="75.144"/>
      <point x="207.845" y="52"/>
    </contour>
    <contour>
      <point x="177" y="213" type="curve" smooth="yes"/>
      <point x="150.135" y="213"/>
      <point x="129" y="230.333"/>
      <point x="129" y="253" type="curve" smooth="yes"/>
      <point x="129" y="277"/>
      <point x="149.139" y="294"/>
      <point x="177" y="294" type="curve" smooth="yes"/>
      <point x="202.871" y="294"/>
      <point x="225" y="276.88"/>
      <point x="225" y="253" type="curve" smooth="yes"/>
      <point x="225" y="230.115"/>
      <point x="201.876" y="213"/>
    </contour>
  </outline>
</glyph>
<glyph name="g.ss01" format="2">
  <advance width="758"/>
  <anchor x="399" y="-230" name="bottom"/>
  <anchor x="399" y="525" name="top"/>
  <outline>
    <contour>
      <point x="399" y="-240" type="curve" smooth="yes"/>
      <point x="548" y="-240"/>
      <point x="638" y="-170"/>
      <point x="638" y="-75" type="curve" smooth="yes"/>
      <point x="638" y="26"/>
      <point x="548" y="90"/>
      <point x="399" y="90" type="curve" smooth="yes"/>
      <point x="325" y="90" type="line" smooth="yes"/>
      <point x="297" y="90"/>
      <point x="280" y="104"/>
      <point x="280" y="128" type="curve" smooth="yes"/>
      <point x="280" y="148"/>
      <point x="297" y="162"/>
      <point x="325" y="162" type="curve" smooth="yes"/>
      <point x="386" y="162" type="line" smooth="yes"/>
      <point x="499" y="162"/>
      <point x="591" y="245"/>
      <point x="591" y="348" type="curve" smooth="yes"/>
      <point x="591" y="380"/>
      <point x="587" y="402"/>
      <point x="551" y="463" type="curve"/>
      <point x="536" y="437" type="line"/>
      <point x="637" y="437" type="line"/>
      <point x="637" y="521" type="line"/>
      <point x="433" y="521" type="line"/>
      <point x="481" y="512" type="line"/>
      <point x="443" y="524"/>
      <point x="426" y="531"/>
      <point x="386" y="531" type="curve" smooth="yes"/>
      <point x="273" y="531"/>
      <point x="181" y="449"/>
      <point x="181" y="348" type="curve" smooth="yes"/>
      <point x="181" y="296"/>
      <point x="197" y="255"/>
      <point x="264" y="195" type="curve"/>
      <point x="274" y="216" type="line"/>
      <point x="192" y="197"/>
      <point x="169" y="162"/>
      <point x="169" y="131" type="curve" smooth="yes"/>
      <point x="169" y="90"/>
      <point x="194" y="59"/>
      <point x="263" y="36" type="curve"/>
      <point x="254" y="56" type="line"/>
      <point x="181" y="20"/>
      <point x="160" y="-24"/>
      <point x="160" y="-75" type="curve" smooth="yes"/>
      <point x="160" y="-170"/>
      <point x="243" y="-240"/>
    </contour>
    <contour>
      <point x="398" y="-150" type="curve" smooth="yes"/>
      <point x="318" y="-150"/>
      <point x="263" y="-119"/>
      <point x="263" y="-75" type="curve" smooth="yes"/>
      <point x="263" y="-30"/>
      <point x="318" y="0"/>
      <point x="398" y="0" type="curve" smooth="yes"/>
      <point x="482" y="0"/>
      <point x="535" y="-30"/>
      <point x="535" y="-75" type="curve" smooth="yes"/>
      <point x="535" y="-119"/>
      <point x="482" y="-150"/>
    </contour>
    <contour>
      <point x="386" y="252" type="curve" smooth="yes"/>
      <point x="329" y="252"/>
      <point x="284" y="292"/>
      <point x="284" y="348" type="curve" smooth="yes"/>
      <point x="284" y="400"/>
      <point x="329" y="441"/>
      <point x="386" y="441" type="curve" smooth="yes"/>
      <point x="443" y="441"/>
      <point x="488" y="400"/>
      <point x="488" y="348" type="curve" smooth="yes"/>
      <point x="488" y="291"/>
      <point x="443" y="252"/>
    </contour>
  </outline>
</glyph>
<glyph name="horncomb.case" format="2">
  <anchor x="140" y="502" name="_topright"/>
  <anchor x="371" y="616" name="topright"/>
  <outline>
    <contour>
      <point x="140" y="420" type="line"/>
      <point x="283" y="420"/>
      <point x="351" y="497"/>
      <point x="351" y="616" type="curve"/>
      <point x="259" y="616" type="line"/>
      <point x="259" y="526"/>
      <point x="215" y="502"/>
      <point x="140" y="502" type="curve"/>
    </contour>
  </outline>
</glyph>
<glyph name="macroncomb_acutecomb" format="2">
  <anchor x="250" y="525" name="_top"/>
  <anchor x="250" y="700" name="top"/>
  <outline>
    <contour>
      <point x="108" y="632" type="line"/>
      <point x="392" y="632" type="line"/>
      <point x="392" y="707" type="line"/>
      <point x="108" y="707" type="line"/>
    </contour>
    <contour>
      <point x="250" y="747" type="line"/>
      <point x="367" y="867" type="line"/>
      <point x="290" y="924" type="line"/>
      <point x="198" y="783" type="line"/>
    </contour>
  </outline>
</glyph>
<glyph name="ogonekcomb.case" format="2">
  <anchor x="329" y="-1" name="_ogonek"/>
  <outline>
    <contour>
      <point x="250" y="-201" type="curve" smooth="yes"/>
      <point x="304" y="-201"/>
      <point x="348" y="-167"/>
      <point x="359" y="-139" type="curve"/>
      <point x="303" y="-99" type="line"/>
      <point x="295" y="-112"/>
      <point x="283" y="-124"/>
      <point x="266" y="-124" type="curve" smooth="yes"/>
      <point x="245" y="-124"/>
      <point x="232" y="-109"/>
      <point x="232" y="-88" type="curve" smooth="yes"/>
      <point x="232" y="-49"/>
      <point x="266" y="-24"/>
      <point x="329" y="-1" type="curve"/>
      <point x="295" y="44" type="line"/>
      <point x="222" y="26"/>
      <point x="141" y="-21"/>
      <point x="141" y="-100" type="curve" smooth="yes"/>
      <point x="141" y="-159"/>
      <point x="188" y="-201"/>
    </contour>
  </outline>
</glyph>
<glyph name="tildecomb_acutecomb" format="2">
  <anchor x="249.5" y="525" name="_top"/>
  <anchor x="251" y="790" name="top"/>
  <outline>
    <contour>
      <point x="301" y="615" type="curve" smooth="yes"/>
      <point x="366" y="615"/>
      <point x="408" y="671"/>
      <point x="411" y="736" type="curve"/>
      <point x="343" y="746" type="line"/>
      <point x="338" y="708"/>
      <point x="324" y="688"/>
      <point x="306" y="688" type="curve" smooth="yes"/>
      <point x="295" y="688"/>
      <point x="286" y="696"/>
      <point x="260" y="718" type="curve" smooth="yes"/>
      <point x="240" y="734"/>
      <point x="225" y="746"/>
      <point x="198" y="746" type="curve" smooth="yes"/>
      <point x="133" y="746"/>
      <point x="91" y="690"/>
      <point x="88" y="625" type="curve"/>
      <point x="156" y="615" type="line"/>
      <point x="161" y="653"/>
      <point x="175" y="673"/>
      <point x="193" y="673" type="curve" smooth="yes"/>
      <point x="204" y="673"/>
      <point x="213" y="665"/>
      <point x="239" y="643" type="curve" smooth="yes"/>
      <point x="259" y="627"/>
      <point x="274" y="615"/>
    </contour>
    <contour>
      <point x="262" y="767" type="line"/>
      <point x="379" y="887" type="line"/>
      <point x="302" y="944" type="line"/>
      <point x="210" y="803" type="line"/>
    </contour>
  </outline>
</glyph>
<glyph name="tildecomb_dieresiscomb" format="2">
  <anchor x="251" y="525" name="_top"/>
  <anchor x="250" y="865" name="top"/>
  <outline>
    <contour>
      <point x="350" y="807" type="curve" smooth="yes"/>
      <point x="392" y="807"/>
      <point x="419" y="833"/>
      <point x="419" y="872" type="curve" smooth="yes"/>
      <point x="419" y="913"/>
      <point x="394" y="937"/>
      <point x="350" y="937" type="curve" smooth="yes"/>
      <point x="307" y="937"/>
      <point x="281" y="911"/>
      <point x="281" y="872" type="curve" smooth="yes"/>
      <point x="281" y="831"/>
      <point x="306" y="807"/>
    </contour>
    <contour>
      <point x="150" y="807" type="curve" smooth="yes"/>
      <point x="192" y="807"/>
      <point x="219" y="833"/>
      <point x="219" y="872" type="curve" smooth="yes"/>
      <point x="219" y="913"/>
      <point x="194" y="937"/>
      <point x="150" y="937" type="curve" smooth="yes"/>
      <point x="107" y="937"/>
      <point x="81" y="911"/>
      <point x="81" y="872" type="curve" smooth="yes"/>
      <point x="81" y="831"/>
      <point x="106" y="807"/>
    </contour>
    <component base="tildecomb" xOffset="-1"/>
  </outline>
</glyph>
<glyph name="two.dnom" format="2">
  <advance width="346"/>
  <outline>
    <contour>
      <point x="65" y="0" type="line"/>
      <point x="296" y="0" type="line"/>
      <point x="296" y="67" type="line"/>
      <point x="142" y="67" type="line"/>
      <point x="138" y="58" type="line"/>
      <point x="205" y="123" type="line" smooth="yes"/>
      <point x="239" y="156"/>
      <point x="293" y="209"/>
      <point x="293" y="259" type="curve" smooth="yes"/>
      <point x="293" y="315"/>
      <point x="257.333" y="361"/>
      <point x="183" y="361" type="curve" smooth="yes"/>
      <point x="114.667" y="361"/>
      <point x="66" y="315"/>
      <point x="42" y="275" type="curve"/>
      <point x="94" y="238" type="line"/>
      <point x="121" y="273"/>
      <point x="147.667" y="289"/>
      <point x="173" y="289" type="curve" smooth="yes"/>
      <point x="195" y="289"/>
      <point x="209" y="274.333"/>
      <point x="209" y="251" type="curve" smooth="yes"/>
      <point x="209" y="220"/>
      <point x="173" y="187"/>
      <point x="156" y="170.5" type="curve" smooth="yes"/>
      <point x="56" y="71" type="line"/>
    </contour>
  </outline>
</glyph>
